ISO-10303-21;
HEADER;
FILE_DESCRIPTION(('FreeCAD Model'),'2;1');
FILE_NAME('Open CASCADE Shape Model','2026-07-24T14:33:53',(''),(''),
  'Open CASCADE STEP processor 7.8','FreeCAD','Unknown');
FILE_SCHEMA(('AUTOMOTIVE_DESIGN { 1 0 10303 214 1 1 1 1 }'));
ENDSEC;
DATA;
#1 = APPLICATION_PROTOCOL_DEFINITION('international standard',
  'automotive_design',2000,#2);
#2 = APPLICATION_CONTEXT(
  'core data for automotive mechanical design processes');
#3 = SHAPE_DEFINITION_REPRESENTATION(#4,#10);
#4 = PRODUCT_DEFINITION_SHAPE('','',#5);
#5 = PRODUCT_DEFINITION('design','',#6,#9);
#6 = PRODUCT_DEFINITION_FORMATION('','',#7);
#7 = PRODUCT('largerSectionPad','largerSectionPad','',(#8));
#8 = PRODUCT_CONTEXT('',#2,'mechanical');
#9 = PRODUCT_DEFINITION_CONTEXT('part definition',#2,'design');
#10 = ADVANCED_BREP_SHAPE_REPRESENTATION('',(#11,#15),#302);
#11 = AXIS2_PLACEMENT_3D('',#12,#13,#14);
#12 = CARTESIAN_POINT('',(0.,0.,0.));
#13 = DIRECTION('',(0.,0.,1.));
#14 = DIRECTION('',(1.,0.,-0.));
#15 = MANIFOLD_SOLID_BREP('',#16);
#16 = CLOSED_SHELL('',(#17,#139,#159,#179,#222,#247,#284,#293));
#17 = ADVANCED_FACE('',(#18,#45),#134,.T.);
#18 = FACE_BOUND('',#19,.F.);
#19 = EDGE_LOOP('',(#20,#30,#37,#38));
#20 = ORIENTED_EDGE('',*,*,#21,.F.);
#21 = EDGE_CURVE('',#22,#24,#26,.T.);
#22 = VERTEX_POINT('',#23);
#23 = CARTESIAN_POINT('',(3.25,0.,0.));
#24 = VERTEX_POINT('',#25);
#25 = CARTESIAN_POINT('',(3.25,0.,32.5));
#26 = LINE('',#27,#28);
#27 = CARTESIAN_POINT('',(3.25,0.,0.));
#28 = VECTOR('',#29,1.);
#29 = DIRECTION('',(0.,0.,1.));
#30 = ORIENTED_EDGE('',*,*,#31,.F.);
#31 = EDGE_CURVE('',#22,#22,#32,.T.);
#32 = CIRCLE('',#33,3.25);
#33 = AXIS2_PLACEMENT_3D('',#34,#35,#36);
#34 = CARTESIAN_POINT('',(0.,0.,0.));
#35 = DIRECTION('',(0.,0.,1.));
#36 = DIRECTION('',(1.,0.,0.));
#37 = ORIENTED_EDGE('',*,*,#21,.T.);
#38 = ORIENTED_EDGE('',*,*,#39,.T.);
#39 = EDGE_CURVE('',#24,#24,#40,.T.);
#40 = CIRCLE('',#41,3.25);
#41 = AXIS2_PLACEMENT_3D('',#42,#43,#44);
#42 = CARTESIAN_POINT('',(0.,0.,32.5));
#43 = DIRECTION('',(0.,0.,1.));
#44 = DIRECTION('',(1.,0.,0.));
#45 = FACE_BOUND('',#46,.F.);
#46 = EDGE_LOOP('',(#47));
#47 = ORIENTED_EDGE('',*,*,#48,.F.);
#48 = EDGE_CURVE('',#49,#49,#51,.T.);
#49 = VERTEX_POINT('',#50);
#50 = CARTESIAN_POINT('',(1.2,3.020347662108,5.));
#51 = B_SPLINE_CURVE_WITH_KNOTS('',6,(#52,#53,#54,#55,#56,#57,#58,#59,
    #60,#61,#62,#63,#64,#65,#66,#67,#68,#69,#70,#71,#72,#73,#74,#75,#76,
    #77,#78,#79,#80,#81,#82,#83,#84,#85,#86,#87,#88,#89,#90,#91,#92,#93,
    #94,#95,#96,#97,#98,#99,#100,#101,#102,#103,#104,#105,#106,#107,#108
    ,#109,#110,#111,#112,#113,#114,#115,#116,#117,#118,#119,#120,#121,
    #122,#123,#124,#125,#126,#127,#128,#129,#130,#131,#132,#133),
  .UNSPECIFIED.,.T.,.F.,(7,5,5,5,5,5,5,5,5,5,5,5,5,5,5,5,7),(0.,
    2.601363995728E-02,0.142220074933,0.174507025816,0.218265161381,
    0.296438438457,0.356172747777,0.473543432638,0.49933809293,
    0.525420698634,0.641935212892,0.674307760935,0.718181905351,
    0.796562430564,0.856455103775,0.974136954507,1.),.UNSPECIFIED.);
#52 = CARTESIAN_POINT('',(1.2,3.020347662108,5.));
#53 = CARTESIAN_POINT('',(1.2,3.020347662108,5.030078047627));
#54 = CARTESIAN_POINT('',(1.199095302183,3.020707110107,5.060156103205)
  );
#55 = CARTESIAN_POINT('',(1.197285930116,3.021425978471,5.090207391866)
  );
#56 = CARTESIAN_POINT('',(1.1945721276,3.022501821881,5.120205167528));
#57 = CARTESIAN_POINT('',(1.190954358669,3.023929777333,5.150122712895)
  );
#58 = CARTESIAN_POINT('',(1.166237163202,3.033621841689,5.313101425234)
  );
#59 = CARTESIAN_POINT('',(1.128051907741,3.048408543593,5.443897640887)
  );
#60 = CARTESIAN_POINT('',(1.072002380892,3.069391043198,5.570298757749)
  );
#61 = CARTESIAN_POINT('',(0.998013889997,3.095084431839,5.690040367791)
  );
#62 = CARTESIAN_POINT('',(0.906041949555,3.123196813801,5.800339563719)
  );
#63 = CARTESIAN_POINT('',(0.766041820984,3.158586035893,5.924573522147)
  );
#64 = CARTESIAN_POINT('',(0.734236369854,3.166250368811,5.950582830849)
  );
#65 = CARTESIAN_POINT('',(0.701084538127,3.173820592441,5.975500011068)
  );
#66 = CARTESIAN_POINT('',(0.666610301586,3.181229859477,5.999233861432)
  );
#67 = CARTESIAN_POINT('',(0.630843187003,3.188409483316,6.021690865118)
  );
#68 = CARTESIAN_POINT('',(0.543639736642,3.204615534337,6.071349749322)
  );
#69 = CARTESIAN_POINT('',(0.491100987763,3.213401214972,6.097431165974)
  );
#70 = CARTESIAN_POINT('',(0.436400533666,3.22145047218,6.120703257095));
#71 = CARTESIAN_POINT('',(0.379768944735,3.228577017629,6.14089092123));
#72 = CARTESIAN_POINT('',(0.321465073639,3.234616940296,6.157757106862)
  );
#73 = CARTESIAN_POINT('',(0.155130878827,3.248058031432,6.194937204414)
  );
#74 = CARTESIAN_POINT('',(4.425181327041E-02,3.252777708465,6.2074863709
    ));
#75 = CARTESIAN_POINT('',(-6.830240604859E-02,3.252811450987,
    6.207472491996));
#76 = CARTESIAN_POINT('',(-0.179738322504,3.247967049153,6.194710229564)
  );
#77 = CARTESIAN_POINT('',(-0.287324936553,3.238884160673,6.170011181379)
  );
#78 = CARTESIAN_POINT('',(-0.466165010986,3.217340198295,6.108780538034)
  );
#79 = CARTESIAN_POINT('',(-0.540100493888,3.206169490411,6.076380498191)
  );
#80 = CARTESIAN_POINT('',(-0.610081215108,3.193568534376,6.038714181021)
  );
#81 = CARTESIAN_POINT('',(-0.675764438045,3.179990152091,5.996400542262)
  );
#82 = CARTESIAN_POINT('',(-0.736889650997,3.165892394317,5.950074348263)
  );
#83 = CARTESIAN_POINT('',(-0.904072478976,3.123812764042,5.802780802006)
  );
#84 = CARTESIAN_POINT('',(-0.997028597327,3.095445676241,5.691824357288)
  );
#85 = CARTESIAN_POINT('',(-1.071734194882,3.069506403034,5.571254434182)
  );
#86 = CARTESIAN_POINT('',(-1.128235689769,3.048344497097,5.443919048106)
  );
#87 = CARTESIAN_POINT('',(-1.166610919731,3.033477552967,5.312131715503)
  );
#88 = CARTESIAN_POINT('',(-1.191152946093,3.023851388496,5.148471260194)
  );
#89 = CARTESIAN_POINT('',(-1.194691301095,3.022454576421,5.118880504637)
  );
#90 = CARTESIAN_POINT('',(-1.197345522799,3.021402301848,5.089212141774)
  );
#91 = CARTESIAN_POINT('',(-1.19911516686,3.02069921733,5.059492012245));
#92 = CARTESIAN_POINT('',(-1.2,3.020347662108,5.029745993539));
#93 = CARTESIAN_POINT('',(-1.2,3.020347662108,4.969921952373));
#94 = CARTESIAN_POINT('',(-1.199095302183,3.020707110107,4.939843896795)
  );
#95 = CARTESIAN_POINT('',(-1.197285930116,3.021425978471,4.909792608134)
  );
#96 = CARTESIAN_POINT('',(-1.1945721276,3.022501821881,4.879794832472));
#97 = CARTESIAN_POINT('',(-1.190954358669,3.023929777333,4.849877287105)
  );
#98 = CARTESIAN_POINT('',(-1.166237163202,3.033621841689,4.686898574766)
  );
#99 = CARTESIAN_POINT('',(-1.128051907741,3.048408543593,4.556102359113)
  );
#100 = CARTESIAN_POINT('',(-1.072002380892,3.069391043198,4.429701242251
    ));
#101 = CARTESIAN_POINT('',(-0.998013889997,3.095084431839,4.309959632209
    ));
#102 = CARTESIAN_POINT('',(-0.906041949555,3.123196813801,4.199660436281
    ));
#103 = CARTESIAN_POINT('',(-0.766041820984,3.158586035893,4.075426477853
    ));
#104 = CARTESIAN_POINT('',(-0.734236369854,3.166250368811,4.049417169151
    ));
#105 = CARTESIAN_POINT('',(-0.701084538127,3.173820592441,4.024499988932
    ));
#106 = CARTESIAN_POINT('',(-0.666610301586,3.181229859477,4.000766138568
    ));
#107 = CARTESIAN_POINT('',(-0.630843187003,3.188409483316,3.978309134882
    ));
#108 = CARTESIAN_POINT('',(-0.543639736642,3.204615534337,3.928650250678
    ));
#109 = CARTESIAN_POINT('',(-0.491100987763,3.213401214972,3.902568834026
    ));
#110 = CARTESIAN_POINT('',(-0.436400533666,3.22145047218,3.879296742905)
  );
#111 = CARTESIAN_POINT('',(-0.379768944735,3.22857701763,3.85910907877)
  );
#112 = CARTESIAN_POINT('',(-0.321465073639,3.234616940296,3.842242893138
    ));
#113 = CARTESIAN_POINT('',(-0.155130878826,3.248058031432,3.805062795586
    ));
#114 = CARTESIAN_POINT('',(-4.425181327067E-02,3.252777708465,
    3.7925136291));
#115 = CARTESIAN_POINT('',(6.83024060489E-02,3.252811450987,
    3.792527508004));
#116 = CARTESIAN_POINT('',(0.179738322504,3.247967049153,3.805289770436)
  );
#117 = CARTESIAN_POINT('',(0.287324936554,3.238884160673,3.829988818621)
  );
#118 = CARTESIAN_POINT('',(0.466165010986,3.217340198295,3.891219461966)
  );
#119 = CARTESIAN_POINT('',(0.540100493888,3.206169490411,3.923619501808)
  );
#120 = CARTESIAN_POINT('',(0.610081215108,3.193568534376,3.961285818979)
  );
#121 = CARTESIAN_POINT('',(0.675764438045,3.179990152091,4.003599457738)
  );
#122 = CARTESIAN_POINT('',(0.736889650997,3.165892394317,4.049925651737)
  );
#123 = CARTESIAN_POINT('',(0.904072478976,3.123812764042,4.197219197994)
  );
#124 = CARTESIAN_POINT('',(0.997028597327,3.095445676241,4.308175642712)
  );
#125 = CARTESIAN_POINT('',(1.071734194882,3.069506403034,4.428745565818)
  );
#126 = CARTESIAN_POINT('',(1.128235689769,3.048344497097,4.556080951894)
  );
#127 = CARTESIAN_POINT('',(1.166610919731,3.033477552967,4.687868284497)
  );
#128 = CARTESIAN_POINT('',(1.191152946093,3.023851388496,4.851528739806)
  );
#129 = CARTESIAN_POINT('',(1.194691301095,3.022454576421,4.881119495363)
  );
#130 = CARTESIAN_POINT('',(1.197345522799,3.021402301848,4.910787858226)
  );
#131 = CARTESIAN_POINT('',(1.19911516686,3.02069921733,4.940507987755));
#132 = CARTESIAN_POINT('',(1.2,3.020347662108,4.970254006461));
#133 = CARTESIAN_POINT('',(1.2,3.020347662108,5.));
#134 = CYLINDRICAL_SURFACE('',#135,3.25);
#135 = AXIS2_PLACEMENT_3D('',#136,#137,#138);
#136 = CARTESIAN_POINT('',(0.,0.,0.));
#137 = DIRECTION('',(-0.,-0.,-1.));
#138 = DIRECTION('',(1.,0.,0.));
#139 = ADVANCED_FACE('',(#140,#151),#154,.F.);
#140 = FACE_BOUND('',#141,.F.);
#141 = EDGE_LOOP('',(#142));
#142 = ORIENTED_EDGE('',*,*,#143,.T.);
#143 = EDGE_CURVE('',#144,#144,#146,.T.);
#144 = VERTEX_POINT('',#145);
#145 = CARTESIAN_POINT('',(4.5,0.,32.5));
#146 = CIRCLE('',#147,4.5);
#147 = AXIS2_PLACEMENT_3D('',#148,#149,#150);
#148 = CARTESIAN_POINT('',(0.,0.,32.5));
#149 = DIRECTION('',(0.,0.,1.));
#150 = DIRECTION('',(1.,0.,0.));
#151 = FACE_BOUND('',#152,.F.);
#152 = EDGE_LOOP('',(#153));
#153 = ORIENTED_EDGE('',*,*,#39,.F.);
#154 = PLANE('',#155);
#155 = AXIS2_PLACEMENT_3D('',#156,#157,#158);
#156 = CARTESIAN_POINT('',(-1.519377925044E-16,1.201785651367E-16,32.5)
  );
#157 = DIRECTION('',(0.,0.,1.));
#158 = DIRECTION('',(1.,0.,0.));
#159 = ADVANCED_FACE('',(#160,#163),#174,.F.);
#160 = FACE_BOUND('',#161,.F.);
#161 = EDGE_LOOP('',(#162));
#162 = ORIENTED_EDGE('',*,*,#31,.T.);
#163 = FACE_BOUND('',#164,.F.);
#164 = EDGE_LOOP('',(#165));
#165 = ORIENTED_EDGE('',*,*,#166,.T.);
#166 = EDGE_CURVE('',#167,#167,#169,.T.);
#167 = VERTEX_POINT('',#168);
#168 = CARTESIAN_POINT('',(1.2,0.,0.));
#169 = CIRCLE('',#170,1.2);
#170 = AXIS2_PLACEMENT_3D('',#171,#172,#173);
#171 = CARTESIAN_POINT('',(0.,0.,0.));
#172 = DIRECTION('',(0.,0.,-1.));
#173 = DIRECTION('',(1.,0.,0.));
#174 = PLANE('',#175);
#175 = AXIS2_PLACEMENT_3D('',#176,#177,#178);
#176 = CARTESIAN_POINT('',(-2.1E-16,2.9E-16,0.));
#177 = DIRECTION('',(0.,0.,1.));
#178 = DIRECTION('',(1.,0.,0.));
#179 = ADVANCED_FACE('',(#180),#217,.F.);
#180 = FACE_BOUND('',#181,.F.);
#181 = EDGE_LOOP('',(#182,#193,#199,#200,#201,#210));
#182 = ORIENTED_EDGE('',*,*,#183,.T.);
#183 = EDGE_CURVE('',#184,#186,#188,.T.);
#184 = VERTEX_POINT('',#185);
#185 = CARTESIAN_POINT('',(-1.2,1.E-15,5.));
#186 = VERTEX_POINT('',#187);
#187 = CARTESIAN_POINT('',(1.2,1.E-15,5.));
#188 = ELLIPSE('',#189,1.697056274848,1.2);
#189 = AXIS2_PLACEMENT_3D('',#190,#191,#192);
#190 = CARTESIAN_POINT('',(0.,0.,5.));
#191 = DIRECTION('',(0.,0.707106781187,-0.707106781187));
#192 = DIRECTION('',(0.,-0.707106781187,-0.707106781187));
#193 = ORIENTED_EDGE('',*,*,#194,.T.);
#194 = EDGE_CURVE('',#186,#49,#195,.T.);
#195 = LINE('',#196,#197);
#196 = CARTESIAN_POINT('',(1.2,1.11E-15,5.));
#197 = VECTOR('',#198,1.);
#198 = DIRECTION('',(0.,1.,-2.2E-16));
#199 = ORIENTED_EDGE('',*,*,#48,.T.);
#200 = ORIENTED_EDGE('',*,*,#194,.F.);
#201 = ORIENTED_EDGE('',*,*,#202,.F.);
#202 = EDGE_CURVE('',#203,#186,#205,.T.);
#203 = VERTEX_POINT('',#204);
#204 = CARTESIAN_POINT('',(0.,1.2,3.8));
#205 = ELLIPSE('',#206,1.697056274848,1.2);
#206 = AXIS2_PLACEMENT_3D('',#207,#208,#209);
#207 = CARTESIAN_POINT('',(0.,0.,5.));
#208 = DIRECTION('',(0.,-0.707106781187,-0.707106781187));
#209 = DIRECTION('',(0.,0.707106781187,-0.707106781187));
#210 = ORIENTED_EDGE('',*,*,#211,.F.);
#211 = EDGE_CURVE('',#184,#203,#212,.T.);
#212 = ELLIPSE('',#213,1.697056274848,1.2);
#213 = AXIS2_PLACEMENT_3D('',#214,#215,#216);
#214 = CARTESIAN_POINT('',(0.,0.,5.));
#215 = DIRECTION('',(0.,-0.707106781187,-0.707106781187));
#216 = DIRECTION('',(0.,0.707106781187,-0.707106781187));
#217 = CYLINDRICAL_SURFACE('',#218,1.2);
#218 = AXIS2_PLACEMENT_3D('',#219,#220,#221);
#219 = CARTESIAN_POINT('',(0.,1.11E-15,5.));
#220 = DIRECTION('',(0.,-1.,2.2E-16));
#221 = DIRECTION('',(1.,0.,0.));
#222 = ADVANCED_FACE('',(#223),#242,.T.);
#223 = FACE_BOUND('',#224,.F.);
#224 = EDGE_LOOP('',(#225,#233,#240,#241));
#225 = ORIENTED_EDGE('',*,*,#226,.T.);
#226 = EDGE_CURVE('',#144,#227,#229,.T.);
#227 = VERTEX_POINT('',#228);
#228 = CARTESIAN_POINT('',(4.5,0.,65.));
#229 = LINE('',#230,#231);
#230 = CARTESIAN_POINT('',(4.5,0.,32.5));
#231 = VECTOR('',#232,1.);
#232 = DIRECTION('',(0.,0.,1.));
#233 = ORIENTED_EDGE('',*,*,#234,.T.);
#234 = EDGE_CURVE('',#227,#227,#235,.T.);
#235 = CIRCLE('',#236,4.5);
#236 = AXIS2_PLACEMENT_3D('',#237,#238,#239);
#237 = CARTESIAN_POINT('',(0.,0.,65.));
#238 = DIRECTION('',(0.,0.,1.));
#239 = DIRECTION('',(1.,0.,0.));
#240 = ORIENTED_EDGE('',*,*,#226,.F.);
#241 = ORIENTED_EDGE('',*,*,#143,.F.);
#242 = CYLINDRICAL_SURFACE('',#243,4.5);
#243 = AXIS2_PLACEMENT_3D('',#244,#245,#246);
#244 = CARTESIAN_POINT('',(0.,0.,32.5));
#245 = DIRECTION('',(-0.,-0.,-1.));
#246 = DIRECTION('',(1.,0.,0.));
#247 = ADVANCED_FACE('',(#248,#274),#279,.F.);
#248 = FACE_BOUND('',#249,.F.);
#249 = EDGE_LOOP('',(#250,#251,#257,#265,#272,#273));
#250 = ORIENTED_EDGE('',*,*,#166,.F.);
#251 = ORIENTED_EDGE('',*,*,#252,.T.);
#252 = EDGE_CURVE('',#167,#186,#253,.T.);
#253 = LINE('',#254,#255);
#254 = CARTESIAN_POINT('',(1.2,0.,0.));
#255 = VECTOR('',#256,1.);
#256 = DIRECTION('',(0.,0.,1.));
#257 = ORIENTED_EDGE('',*,*,#258,.T.);
#258 = EDGE_CURVE('',#186,#259,#261,.T.);
#259 = VERTEX_POINT('',#260);
#260 = CARTESIAN_POINT('',(1.2,0.,10.7));
#261 = LINE('',#262,#263);
#262 = CARTESIAN_POINT('',(1.2,0.,0.));
#263 = VECTOR('',#264,1.);
#264 = DIRECTION('',(0.,0.,1.));
#265 = ORIENTED_EDGE('',*,*,#266,.T.);
#266 = EDGE_CURVE('',#259,#259,#267,.T.);
#267 = CIRCLE('',#268,1.2);
#268 = AXIS2_PLACEMENT_3D('',#269,#270,#271);
#269 = CARTESIAN_POINT('',(0.,0.,10.7));
#270 = DIRECTION('',(0.,0.,-1.));
#271 = DIRECTION('',(1.,0.,0.));
#272 = ORIENTED_EDGE('',*,*,#258,.F.);
#273 = ORIENTED_EDGE('',*,*,#252,.F.);
#274 = FACE_BOUND('',#275,.F.);
#275 = EDGE_LOOP('',(#276,#277,#278));
#276 = ORIENTED_EDGE('',*,*,#202,.T.);
#277 = ORIENTED_EDGE('',*,*,#183,.F.);
#278 = ORIENTED_EDGE('',*,*,#211,.T.);
#279 = CYLINDRICAL_SURFACE('',#280,1.2);
#280 = AXIS2_PLACEMENT_3D('',#281,#282,#283);
#281 = CARTESIAN_POINT('',(0.,0.,0.));
#282 = DIRECTION('',(0.,0.,-1.));
#283 = DIRECTION('',(1.,0.,0.));
#284 = ADVANCED_FACE('',(#285),#288,.T.);
#285 = FACE_BOUND('',#286,.T.);
#286 = EDGE_LOOP('',(#287));
#287 = ORIENTED_EDGE('',*,*,#234,.T.);
#288 = PLANE('',#289);
#289 = AXIS2_PLACEMENT_3D('',#290,#291,#292);
#290 = CARTESIAN_POINT('',(-1.519377925044E-16,1.201785651367E-16,65.));
#291 = DIRECTION('',(0.,0.,1.));
#292 = DIRECTION('',(1.,0.,0.));
#293 = ADVANCED_FACE('',(#294),#297,.F.);
#294 = FACE_BOUND('',#295,.T.);
#295 = EDGE_LOOP('',(#296));
#296 = ORIENTED_EDGE('',*,*,#266,.T.);
#297 = PLANE('',#298);
#298 = AXIS2_PLACEMENT_3D('',#299,#300,#301);
#299 = CARTESIAN_POINT('',(-1.4E-16,-2.E-17,10.7));
#300 = DIRECTION('',(0.,0.,1.));
#301 = DIRECTION('',(1.,0.,0.));
#302 = ( GEOMETRIC_REPRESENTATION_CONTEXT(3) 
GLOBAL_UNCERTAINTY_ASSIGNED_CONTEXT((#306)) GLOBAL_UNIT_ASSIGNED_CONTEXT
((#303,#304,#305)) REPRESENTATION_CONTEXT('Context #1',
  '3D Context with UNIT and UNCERTAINTY') );
#303 = ( LENGTH_UNIT() NAMED_UNIT(*) SI_UNIT(.MILLI.,.METRE.) );
#304 = ( NAMED_UNIT(*) PLANE_ANGLE_UNIT() SI_UNIT($,.RADIAN.) );
#305 = ( NAMED_UNIT(*) SI_UNIT($,.STERADIAN.) SOLID_ANGLE_UNIT() );
#306 = UNCERTAINTY_MEASURE_WITH_UNIT(LENGTH_MEASURE(1.E-07),#303,
  'distance_accuracy_value','confusion accuracy');
#307 = PRODUCT_RELATED_PRODUCT_CATEGORY('part',$,(#7));
#308 = MECHANICAL_DESIGN_GEOMETRIC_PRESENTATION_REPRESENTATION('',(#309)
  ,#302);
#309 = STYLED_ITEM('color',(#310),#15);
#310 = PRESENTATION_STYLE_ASSIGNMENT((#311,#317));
#311 = SURFACE_STYLE_USAGE(.BOTH.,#312);
#312 = SURFACE_SIDE_STYLE('',(#313));
#313 = SURFACE_STYLE_FILL_AREA(#314);
#314 = FILL_AREA_STYLE('',(#315));
#315 = FILL_AREA_STYLE_COLOUR('',#316);
#316 = COLOUR_RGB('',0.447058818107,0.474509808674,0.501960817233);
#317 = CURVE_STYLE('',#318,POSITIVE_LENGTH_MEASURE(0.1),#319);
#318 = DRAUGHTING_PRE_DEFINED_CURVE_FONT('continuous');
#319 = COLOUR_RGB('',9.803921802644E-02,9.803921802644E-02,
  9.803921802644E-02);
ENDSEC;
END-ISO-10303-21;
