ISO-10303-21;
HEADER;
FILE_DESCRIPTION(('FreeCAD Model'),'2;1');
FILE_NAME('Open CASCADE Shape Model','2026-06-16T11:01:29',(''),(''),
  'Open CASCADE STEP processor 7.8','FreeCAD','Unknown');
FILE_SCHEMA(('AUTOMOTIVE_DESIGN { 1 0 10303 214 1 1 1 1 }'));
ENDSEC;
DATA;
#1 = APPLICATION_PROTOCOL_DEFINITION('international standard',
  'automotive_design',2000,#2);
#2 = APPLICATION_CONTEXT(
  'core data for automotive mechanical design processes');
#3 = SHAPE_DEFINITION_REPRESENTATION(#4,#10);
#4 = PRODUCT_DEFINITION_SHAPE('','',#5);
#5 = PRODUCT_DEFINITION('design','',#6,#9);
#6 = PRODUCT_DEFINITION_FORMATION('','',#7);
#7 = PRODUCT('Pocket001','Pocket001','',(#8));
#8 = PRODUCT_CONTEXT('',#2,'mechanical');
#9 = PRODUCT_DEFINITION_CONTEXT('part definition',#2,'design');
#10 = ADVANCED_BREP_SHAPE_REPRESENTATION('',(#11,#15),#257);
#11 = AXIS2_PLACEMENT_3D('',#12,#13,#14);
#12 = CARTESIAN_POINT('',(0.,0.,0.));
#13 = DIRECTION('',(0.,0.,1.));
#14 = DIRECTION('',(1.,0.,-0.));
#15 = MANIFOLD_SOLID_BREP('',#16);
#16 = CLOSED_SHELL('',(#17,#139,#159,#168,#211,#248));
#17 = ADVANCED_FACE('',(#18,#45),#134,.T.);
#18 = FACE_BOUND('',#19,.F.);
#19 = EDGE_LOOP('',(#20,#29,#37,#44));
#20 = ORIENTED_EDGE('',*,*,#21,.F.);
#21 = EDGE_CURVE('',#22,#22,#24,.T.);
#22 = VERTEX_POINT('',#23);
#23 = CARTESIAN_POINT('',(3.25,0.,0.));
#24 = CIRCLE('',#25,3.25);
#25 = AXIS2_PLACEMENT_3D('',#26,#27,#28);
#26 = CARTESIAN_POINT('',(0.,0.,0.));
#27 = DIRECTION('',(0.,0.,1.));
#28 = DIRECTION('',(1.,0.,0.));
#29 = ORIENTED_EDGE('',*,*,#30,.T.);
#30 = EDGE_CURVE('',#22,#31,#33,.T.);
#31 = VERTEX_POINT('',#32);
#32 = CARTESIAN_POINT('',(3.25,0.,65.));
#33 = LINE('',#34,#35);
#34 = CARTESIAN_POINT('',(3.25,0.,0.));
#35 = VECTOR('',#36,1.);
#36 = DIRECTION('',(0.,0.,1.));
#37 = ORIENTED_EDGE('',*,*,#38,.T.);
#38 = EDGE_CURVE('',#31,#31,#39,.T.);
#39 = CIRCLE('',#40,3.25);
#40 = AXIS2_PLACEMENT_3D('',#41,#42,#43);
#41 = CARTESIAN_POINT('',(0.,0.,65.));
#42 = DIRECTION('',(0.,0.,1.));
#43 = DIRECTION('',(1.,0.,0.));
#44 = ORIENTED_EDGE('',*,*,#30,.F.);
#45 = FACE_BOUND('',#46,.F.);
#46 = EDGE_LOOP('',(#47));
#47 = ORIENTED_EDGE('',*,*,#48,.F.);
#48 = EDGE_CURVE('',#49,#49,#51,.T.);
#49 = VERTEX_POINT('',#50);
#50 = CARTESIAN_POINT('',(1.2,3.020347662108,5.));
#51 = B_SPLINE_CURVE_WITH_KNOTS('',6,(#52,#53,#54,#55,#56,#57,#58,#59,
    #60,#61,#62,#63,#64,#65,#66,#67,#68,#69,#70,#71,#72,#73,#74,#75,#76,
    #77,#78,#79,#80,#81,#82,#83,#84,#85,#86,#87,#88,#89,#90,#91,#92,#93,
    #94,#95,#96,#97,#98,#99,#100,#101,#102,#103,#104,#105,#106,#107,#108
    ,#109,#110,#111,#112,#113,#114,#115,#116,#117,#118,#119,#120,#121,
    #122,#123,#124,#125,#126,#127,#128,#129,#130,#131,#132,#133),
  .UNSPECIFIED.,.T.,.F.,(7,5,5,5,5,5,5,5,5,5,5,5,5,5,5,5,7),(0.,
    2.601363995728E-02,0.142220074933,0.174507025816,0.218265161381,
    0.296438438457,0.356172747777,0.473543432638,0.49933809293,
    0.525420698634,0.641935212892,0.674307760935,0.718181905351,
    0.796562430564,0.856455103775,0.974136954507,1.),.UNSPECIFIED.);
#52 = CARTESIAN_POINT('',(1.2,3.020347662108,5.));
#53 = CARTESIAN_POINT('',(1.2,3.020347662108,5.030078047627));
#54 = CARTESIAN_POINT('',(1.199095302183,3.020707110107,5.060156103205)
  );
#55 = CARTESIAN_POINT('',(1.197285930116,3.021425978471,5.090207391866)
  );
#56 = CARTESIAN_POINT('',(1.1945721276,3.022501821881,5.120205167528));
#57 = CARTESIAN_POINT('',(1.190954358669,3.023929777333,5.150122712895)
  );
#58 = CARTESIAN_POINT('',(1.166237163202,3.033621841689,5.313101425234)
  );
#59 = CARTESIAN_POINT('',(1.128051907741,3.048408543593,5.443897640887)
  );
#60 = CARTESIAN_POINT('',(1.072002380892,3.069391043198,5.570298757749)
  );
#61 = CARTESIAN_POINT('',(0.998013889997,3.095084431839,5.690040367791)
  );
#62 = CARTESIAN_POINT('',(0.906041949555,3.123196813801,5.800339563719)
  );
#63 = CARTESIAN_POINT('',(0.766041820984,3.158586035893,5.924573522147)
  );
#64 = CARTESIAN_POINT('',(0.734236369854,3.166250368811,5.950582830849)
  );
#65 = CARTESIAN_POINT('',(0.701084538127,3.173820592441,5.975500011068)
  );
#66 = CARTESIAN_POINT('',(0.666610301586,3.181229859477,5.999233861432)
  );
#67 = CARTESIAN_POINT('',(0.630843187003,3.188409483316,6.021690865118)
  );
#68 = CARTESIAN_POINT('',(0.543639736642,3.204615534337,6.071349749322)
  );
#69 = CARTESIAN_POINT('',(0.491100987763,3.213401214972,6.097431165974)
  );
#70 = CARTESIAN_POINT('',(0.436400533666,3.22145047218,6.120703257095));
#71 = CARTESIAN_POINT('',(0.379768944735,3.228577017629,6.14089092123));
#72 = CARTESIAN_POINT('',(0.321465073639,3.234616940296,6.157757106862)
  );
#73 = CARTESIAN_POINT('',(0.155130878827,3.248058031432,6.194937204414)
  );
#74 = CARTESIAN_POINT('',(4.425181327041E-02,3.252777708465,6.2074863709
    ));
#75 = CARTESIAN_POINT('',(-6.830240604859E-02,3.252811450987,
    6.207472491996));
#76 = CARTESIAN_POINT('',(-0.179738322504,3.247967049153,6.194710229564)
  );
#77 = CARTESIAN_POINT('',(-0.287324936553,3.238884160673,6.170011181379)
  );
#78 = CARTESIAN_POINT('',(-0.466165010986,3.217340198295,6.108780538034)
  );
#79 = CARTESIAN_POINT('',(-0.540100493888,3.206169490411,6.076380498191)
  );
#80 = CARTESIAN_POINT('',(-0.610081215108,3.193568534376,6.038714181021)
  );
#81 = CARTESIAN_POINT('',(-0.675764438045,3.179990152091,5.996400542262)
  );
#82 = CARTESIAN_POINT('',(-0.736889650997,3.165892394317,5.950074348263)
  );
#83 = CARTESIAN_POINT('',(-0.904072478976,3.123812764042,5.802780802006)
  );
#84 = CARTESIAN_POINT('',(-0.997028597327,3.095445676241,5.691824357288)
  );
#85 = CARTESIAN_POINT('',(-1.071734194882,3.069506403034,5.571254434182)
  );
#86 = CARTESIAN_POINT('',(-1.128235689769,3.048344497097,5.443919048106)
  );
#87 = CARTESIAN_POINT('',(-1.166610919731,3.033477552967,5.312131715503)
  );
#88 = CARTESIAN_POINT('',(-1.191152946093,3.023851388496,5.148471260194)
  );
#89 = CARTESIAN_POINT('',(-1.194691301095,3.022454576421,5.118880504637)
  );
#90 = CARTESIAN_POINT('',(-1.197345522799,3.021402301848,5.089212141774)
  );
#91 = CARTESIAN_POINT('',(-1.19911516686,3.02069921733,5.059492012245));
#92 = CARTESIAN_POINT('',(-1.2,3.020347662108,5.029745993539));
#93 = CARTESIAN_POINT('',(-1.2,3.020347662108,4.969921952373));
#94 = CARTESIAN_POINT('',(-1.199095302183,3.020707110107,4.939843896795)
  );
#95 = CARTESIAN_POINT('',(-1.197285930116,3.021425978471,4.909792608134)
  );
#96 = CARTESIAN_POINT('',(-1.1945721276,3.022501821881,4.879794832472));
#97 = CARTESIAN_POINT('',(-1.190954358669,3.023929777333,4.849877287105)
  );
#98 = CARTESIAN_POINT('',(-1.166237163202,3.033621841689,4.686898574766)
  );
#99 = CARTESIAN_POINT('',(-1.128051907741,3.048408543593,4.556102359113)
  );
#100 = CARTESIAN_POINT('',(-1.072002380892,3.069391043198,4.429701242251
    ));
#101 = CARTESIAN_POINT('',(-0.998013889997,3.095084431839,4.309959632209
    ));
#102 = CARTESIAN_POINT('',(-0.906041949555,3.123196813801,4.199660436281
    ));
#103 = CARTESIAN_POINT('',(-0.766041820984,3.158586035893,4.075426477853
    ));
#104 = CARTESIAN_POINT('',(-0.734236369854,3.166250368811,4.049417169151
    ));
#105 = CARTESIAN_POINT('',(-0.701084538127,3.173820592441,4.024499988932
    ));
#106 = CARTESIAN_POINT('',(-0.666610301586,3.181229859477,4.000766138568
    ));
#107 = CARTESIAN_POINT('',(-0.630843187003,3.188409483316,3.978309134882
    ));
#108 = CARTESIAN_POINT('',(-0.543639736642,3.204615534337,3.928650250678
    ));
#109 = CARTESIAN_POINT('',(-0.491100987763,3.213401214972,3.902568834026
    ));
#110 = CARTESIAN_POINT('',(-0.436400533666,3.22145047218,3.879296742905)
  );
#111 = CARTESIAN_POINT('',(-0.379768944735,3.22857701763,3.85910907877)
  );
#112 = CARTESIAN_POINT('',(-0.321465073639,3.234616940296,3.842242893138
    ));
#113 = CARTESIAN_POINT('',(-0.155130878826,3.248058031432,3.805062795586
    ));
#114 = CARTESIAN_POINT('',(-4.425181327067E-02,3.252777708465,
    3.7925136291));
#115 = CARTESIAN_POINT('',(6.83024060489E-02,3.252811450987,
    3.792527508004));
#116 = CARTESIAN_POINT('',(0.179738322504,3.247967049153,3.805289770436)
  );
#117 = CARTESIAN_POINT('',(0.287324936554,3.238884160673,3.829988818621)
  );
#118 = CARTESIAN_POINT('',(0.466165010986,3.217340198295,3.891219461966)
  );
#119 = CARTESIAN_POINT('',(0.540100493888,3.206169490411,3.923619501808)
  );
#120 = CARTESIAN_POINT('',(0.610081215108,3.193568534376,3.961285818979)
  );
#121 = CARTESIAN_POINT('',(0.675764438045,3.179990152091,4.003599457738)
  );
#122 = CARTESIAN_POINT('',(0.736889650997,3.165892394317,4.049925651737)
  );
#123 = CARTESIAN_POINT('',(0.904072478976,3.123812764042,4.197219197994)
  );
#124 = CARTESIAN_POINT('',(0.997028597327,3.095445676241,4.308175642712)
  );
#125 = CARTESIAN_POINT('',(1.071734194882,3.069506403034,4.428745565818)
  );
#126 = CARTESIAN_POINT('',(1.128235689769,3.048344497097,4.556080951894)
  );
#127 = CARTESIAN_POINT('',(1.166610919731,3.033477552967,4.687868284497)
  );
#128 = CARTESIAN_POINT('',(1.191152946093,3.023851388496,4.851528739806)
  );
#129 = CARTESIAN_POINT('',(1.194691301095,3.022454576421,4.881119495363)
  );
#130 = CARTESIAN_POINT('',(1.197345522799,3.021402301848,4.910787858226)
  );
#131 = CARTESIAN_POINT('',(1.19911516686,3.02069921733,4.940507987755));
#132 = CARTESIAN_POINT('',(1.2,3.020347662108,4.970254006461));
#133 = CARTESIAN_POINT('',(1.2,3.020347662108,5.));
#134 = CYLINDRICAL_SURFACE('',#135,3.25);
#135 = AXIS2_PLACEMENT_3D('',#136,#137,#138);
#136 = CARTESIAN_POINT('',(0.,0.,0.));
#137 = DIRECTION('',(-0.,-0.,-1.));
#138 = DIRECTION('',(1.,0.,0.));
#139 = ADVANCED_FACE('',(#140,#143),#154,.F.);
#140 = FACE_BOUND('',#141,.F.);
#141 = EDGE_LOOP('',(#142));
#142 = ORIENTED_EDGE('',*,*,#21,.T.);
#143 = FACE_BOUND('',#144,.F.);
#144 = EDGE_LOOP('',(#145));
#145 = ORIENTED_EDGE('',*,*,#146,.T.);
#146 = EDGE_CURVE('',#147,#147,#149,.T.);
#147 = VERTEX_POINT('',#148);
#148 = CARTESIAN_POINT('',(1.2,0.,0.));
#149 = CIRCLE('',#150,1.2);
#150 = AXIS2_PLACEMENT_3D('',#151,#152,#153);
#151 = CARTESIAN_POINT('',(0.,0.,0.));
#152 = DIRECTION('',(0.,0.,-1.));
#153 = DIRECTION('',(1.,0.,0.));
#154 = PLANE('',#155);
#155 = AXIS2_PLACEMENT_3D('',#156,#157,#158);
#156 = CARTESIAN_POINT('',(-2.103754050061E-16,2.880807401045E-16,0.));
#157 = DIRECTION('',(0.,0.,1.));
#158 = DIRECTION('',(1.,0.,0.));
#159 = ADVANCED_FACE('',(#160),#163,.T.);
#160 = FACE_BOUND('',#161,.T.);
#161 = EDGE_LOOP('',(#162));
#162 = ORIENTED_EDGE('',*,*,#38,.T.);
#163 = PLANE('',#164);
#164 = AXIS2_PLACEMENT_3D('',#165,#166,#167);
#165 = CARTESIAN_POINT('',(-2.103754050061E-16,2.880807401045E-16,65.));
#166 = DIRECTION('',(0.,0.,1.));
#167 = DIRECTION('',(1.,0.,0.));
#168 = ADVANCED_FACE('',(#169),#206,.F.);
#169 = FACE_BOUND('',#170,.F.);
#170 = EDGE_LOOP('',(#171,#182,#188,#189,#190,#199));
#171 = ORIENTED_EDGE('',*,*,#172,.T.);
#172 = EDGE_CURVE('',#173,#175,#177,.T.);
#173 = VERTEX_POINT('',#174);
#174 = CARTESIAN_POINT('',(-1.2,1.110223024625E-15,5.));
#175 = VERTEX_POINT('',#176);
#176 = CARTESIAN_POINT('',(1.2,1.110223024625E-15,5.));
#177 = ELLIPSE('',#178,1.697056274848,1.2);
#178 = AXIS2_PLACEMENT_3D('',#179,#180,#181);
#179 = CARTESIAN_POINT('',(0.,0.,5.));
#180 = DIRECTION('',(0.,0.707106781187,-0.707106781187));
#181 = DIRECTION('',(0.,-0.707106781187,-0.707106781187));
#182 = ORIENTED_EDGE('',*,*,#183,.T.);
#183 = EDGE_CURVE('',#175,#49,#184,.T.);
#184 = LINE('',#185,#186);
#185 = CARTESIAN_POINT('',(1.2,1.110223024625E-15,5.));
#186 = VECTOR('',#187,1.);
#187 = DIRECTION('',(0.,1.,-2.22044604925E-16));
#188 = ORIENTED_EDGE('',*,*,#48,.T.);
#189 = ORIENTED_EDGE('',*,*,#183,.F.);
#190 = ORIENTED_EDGE('',*,*,#191,.F.);
#191 = EDGE_CURVE('',#192,#175,#194,.T.);
#192 = VERTEX_POINT('',#193);
#193 = CARTESIAN_POINT('',(-1.469576158977E-16,1.2,3.8));
#194 = ELLIPSE('',#195,1.697056274848,1.2);
#195 = AXIS2_PLACEMENT_3D('',#196,#197,#198);
#196 = CARTESIAN_POINT('',(0.,0.,5.));
#197 = DIRECTION('',(0.,-0.707106781187,-0.707106781187));
#198 = DIRECTION('',(0.,0.707106781187,-0.707106781187));
#199 = ORIENTED_EDGE('',*,*,#200,.F.);
#200 = EDGE_CURVE('',#173,#192,#201,.T.);
#201 = ELLIPSE('',#202,1.697056274848,1.2);
#202 = AXIS2_PLACEMENT_3D('',#203,#204,#205);
#203 = CARTESIAN_POINT('',(0.,0.,5.));
#204 = DIRECTION('',(0.,-0.707106781187,-0.707106781187));
#205 = DIRECTION('',(0.,0.707106781187,-0.707106781187));
#206 = CYLINDRICAL_SURFACE('',#207,1.2);
#207 = AXIS2_PLACEMENT_3D('',#208,#209,#210);
#208 = CARTESIAN_POINT('',(0.,1.110223024625E-15,5.));
#209 = DIRECTION('',(0.,-1.,2.22044604925E-16));
#210 = DIRECTION('',(1.,0.,0.));
#211 = ADVANCED_FACE('',(#212,#238),#243,.F.);
#212 = FACE_BOUND('',#213,.F.);
#213 = EDGE_LOOP('',(#214,#215,#221,#229,#236,#237));
#214 = ORIENTED_EDGE('',*,*,#146,.F.);
#215 = ORIENTED_EDGE('',*,*,#216,.T.);
#216 = EDGE_CURVE('',#147,#175,#217,.T.);
#217 = LINE('',#218,#219);
#218 = CARTESIAN_POINT('',(1.2,0.,0.));
#219 = VECTOR('',#220,1.);
#220 = DIRECTION('',(0.,0.,1.));
#221 = ORIENTED_EDGE('',*,*,#222,.T.);
#222 = EDGE_CURVE('',#175,#223,#225,.T.);
#223 = VERTEX_POINT('',#224);
#224 = CARTESIAN_POINT('',(1.2,0.,10.7));
#225 = LINE('',#226,#227);
#226 = CARTESIAN_POINT('',(1.2,0.,0.));
#227 = VECTOR('',#228,1.);
#228 = DIRECTION('',(0.,0.,1.));
#229 = ORIENTED_EDGE('',*,*,#230,.T.);
#230 = EDGE_CURVE('',#223,#223,#231,.T.);
#231 = CIRCLE('',#232,1.2);
#232 = AXIS2_PLACEMENT_3D('',#233,#234,#235);
#233 = CARTESIAN_POINT('',(0.,0.,10.7));
#234 = DIRECTION('',(0.,0.,-1.));
#235 = DIRECTION('',(1.,0.,0.));
#236 = ORIENTED_EDGE('',*,*,#222,.F.);
#237 = ORIENTED_EDGE('',*,*,#216,.F.);
#238 = FACE_BOUND('',#239,.F.);
#239 = EDGE_LOOP('',(#240,#241,#242));
#240 = ORIENTED_EDGE('',*,*,#191,.T.);
#241 = ORIENTED_EDGE('',*,*,#172,.F.);
#242 = ORIENTED_EDGE('',*,*,#200,.T.);
#243 = CYLINDRICAL_SURFACE('',#244,1.2);
#244 = AXIS2_PLACEMENT_3D('',#245,#246,#247);
#245 = CARTESIAN_POINT('',(0.,0.,0.));
#246 = DIRECTION('',(0.,0.,-1.));
#247 = DIRECTION('',(1.,0.,0.));
#248 = ADVANCED_FACE('',(#249),#252,.F.);
#249 = FACE_BOUND('',#250,.T.);
#250 = EDGE_LOOP('',(#251));
#251 = ORIENTED_EDGE('',*,*,#230,.T.);
#252 = PLANE('',#253);
#253 = AXIS2_PLACEMENT_3D('',#254,#255,#256);
#254 = CARTESIAN_POINT('',(-1.424416804729E-16,-2.223496827053E-17,10.7)
  );
#255 = DIRECTION('',(0.,0.,1.));
#256 = DIRECTION('',(1.,0.,0.));
#257 = ( GEOMETRIC_REPRESENTATION_CONTEXT(3) 
GLOBAL_UNCERTAINTY_ASSIGNED_CONTEXT((#261)) GLOBAL_UNIT_ASSIGNED_CONTEXT
((#258,#259,#260)) REPRESENTATION_CONTEXT('Context #1',
  '3D Context with UNIT and UNCERTAINTY') );
#258 = ( LENGTH_UNIT() NAMED_UNIT(*) SI_UNIT(.MILLI.,.METRE.) );
#259 = ( NAMED_UNIT(*) PLANE_ANGLE_UNIT() SI_UNIT($,.RADIAN.) );
#260 = ( NAMED_UNIT(*) SI_UNIT($,.STERADIAN.) SOLID_ANGLE_UNIT() );
#261 = UNCERTAINTY_MEASURE_WITH_UNIT(LENGTH_MEASURE(1.E-07),#258,
  'distance_accuracy_value','confusion accuracy');
#262 = PRODUCT_RELATED_PRODUCT_CATEGORY('part',$,(#7));
#263 = MECHANICAL_DESIGN_GEOMETRIC_PRESENTATION_REPRESENTATION('',(#264)
  ,#257);
#264 = STYLED_ITEM('color',(#265),#15);
#265 = PRESENTATION_STYLE_ASSIGNMENT((#266,#272));
#266 = SURFACE_STYLE_USAGE(.BOTH.,#267);
#267 = SURFACE_SIDE_STYLE('',(#268));
#268 = SURFACE_STYLE_FILL_AREA(#269);
#269 = FILL_AREA_STYLE('',(#270));
#270 = FILL_AREA_STYLE_COLOUR('',#271);
#271 = COLOUR_RGB('',0.447059003357,0.474510015008,0.501960993452);
#272 = CURVE_STYLE('',#273,POSITIVE_LENGTH_MEASURE(0.1),#274);
#273 = DRAUGHTING_PRE_DEFINED_CURVE_FONT('continuous');
#274 = COLOUR_RGB('',9.803921802644E-02,9.803921802644E-02,
  9.803921802644E-02);
ENDSEC;
END-ISO-10303-21;
