ISO-10303-21;
HEADER;
FILE_DESCRIPTION(('FreeCAD Model'),'2;1');
FILE_NAME('Open CASCADE Shape Model','2026-06-11T09:49:42',(''),(''),
  'Open CASCADE STEP processor 7.8','FreeCAD','Unknown');
FILE_SCHEMA(('AUTOMOTIVE_DESIGN { 1 0 10303 214 1 1 1 1 }'));
ENDSEC;
DATA;
#1 = APPLICATION_PROTOCOL_DEFINITION('international standard',
  'automotive_design',2000,#2);
#2 = APPLICATION_CONTEXT(
  'core data for automotive mechanical design processes');
#3 = SHAPE_DEFINITION_REPRESENTATION(#4,#10);
#4 = PRODUCT_DEFINITION_SHAPE('','',#5);
#5 = PRODUCT_DEFINITION('design','',#6,#9);
#6 = PRODUCT_DEFINITION_FORMATION('','',#7);
#7 = PRODUCT('Pocket001','Pocket001','',(#8));
#8 = PRODUCT_CONTEXT('',#2,'mechanical');
#9 = PRODUCT_DEFINITION_CONTEXT('part definition',#2,'design');
#10 = ADVANCED_BREP_SHAPE_REPRESENTATION('',(#11,#15),#309);
#11 = AXIS2_PLACEMENT_3D('',#12,#13,#14);
#12 = CARTESIAN_POINT('',(0.,0.,0.));
#13 = DIRECTION('',(0.,0.,1.));
#14 = DIRECTION('',(1.,0.,-0.));
#15 = MANIFOLD_SOLID_BREP('',#16);
#16 = CLOSED_SHELL('',(#17,#119,#139,#218,#249,#275,#300));
#17 = ADVANCED_FACE('',(#18),#114,.T.);
#18 = FACE_BOUND('',#19,.F.);
#19 = EDGE_LOOP('',(#20,#29,#37,#68,#76,#83,#84,#113));
#20 = ORIENTED_EDGE('',*,*,#21,.F.);
#21 = EDGE_CURVE('',#22,#22,#24,.T.);
#22 = VERTEX_POINT('',#23);
#23 = CARTESIAN_POINT('',(9.,0.,0.));
#24 = CIRCLE('',#25,9.);
#25 = AXIS2_PLACEMENT_3D('',#26,#27,#28);
#26 = CARTESIAN_POINT('',(0.,0.,0.));
#27 = DIRECTION('',(0.,0.,1.));
#28 = DIRECTION('',(1.,0.,0.));
#29 = ORIENTED_EDGE('',*,*,#30,.T.);
#30 = EDGE_CURVE('',#22,#31,#33,.T.);
#31 = VERTEX_POINT('',#32);
#32 = CARTESIAN_POINT('',(9.,0.,8.75));
#33 = LINE('',#34,#35);
#34 = CARTESIAN_POINT('',(9.,0.,0.));
#35 = VECTOR('',#36,1.);
#36 = DIRECTION('',(0.,0.,1.));
#37 = ORIENTED_EDGE('',*,*,#38,.T.);
#38 = EDGE_CURVE('',#31,#39,#41,.T.);
#39 = VERTEX_POINT('',#40);
#40 = CARTESIAN_POINT('',(9.,-2.7E-14,11.25));
#41 = B_SPLINE_CURVE_WITH_KNOTS('',7,(#42,#43,#44,#45,#46,#47,#48,#49,
    #50,#51,#52,#53,#54,#55,#56,#57,#58,#59,#60,#61,#62,#63,#64,#65,#66,
    #67),.UNSPECIFIED.,.F.,.F.,(8,6,6,6,8),(0.,0.260552044252,
    0.500018901507,0.73948238894,1.),.UNSPECIFIED.);
#42 = CARTESIAN_POINT('',(9.,-1.5E-16,8.75));
#43 = CARTESIAN_POINT('',(9.,0.169141558736,8.75));
#44 = CARTESIAN_POINT('',(8.996291317887,0.334696029854,8.776701437937)
  );
#45 = CARTESIAN_POINT('',(8.989158027589,0.491677792528,8.828066909685)
  );
#46 = CARTESIAN_POINT('',(8.979517058312,0.635774243026,8.900989801643)
  );
#47 = CARTESIAN_POINT('',(8.968722033586,0.763562111514,8.991351004307)
  );
#48 = CARTESIAN_POINT('',(8.958034709746,0.87284690357,9.094072530732));
#49 = CARTESIAN_POINT('',(8.93938368211,1.046129104385,9.30353472954));
#50 = CARTESIAN_POINT('',(8.93109592004,1.114689700122,9.411228673531));
#51 = CARTESIAN_POINT('',(8.923989234463,1.169085125804,9.524210735742)
  );
#52 = CARTESIAN_POINT('',(8.918435186799,1.20961861335,9.640856919484));
#53 = CARTESIAN_POINT('',(8.914659496952,1.236539787791,9.759818534846)
  );
#54 = CARTESIAN_POINT('',(8.912771734988,1.25,9.879909429752));
#55 = CARTESIAN_POINT('',(8.912771734988,1.25,10.120088880311));
#56 = CARTESIAN_POINT('',(8.914659600853,1.236540441244,10.240178789699)
  );
#57 = CARTESIAN_POINT('',(8.91843469232,1.209618642128,10.359142295359)
  );
#58 = CARTESIAN_POINT('',(8.923989576015,1.169086218712,10.475788505705)
  );
#59 = CARTESIAN_POINT('',(8.931095866158,1.114688819906,10.588773356041)
  );
#60 = CARTESIAN_POINT('',(8.939383857489,1.046127474986,10.696467240065)
  );
#61 = CARTESIAN_POINT('',(8.958033371316,0.872859338604,10.905912437894)
  );
#62 = CARTESIAN_POINT('',(8.968720844105,0.763575895392,11.008640425827)
  );
#63 = CARTESIAN_POINT('',(8.979517332247,0.635776620037,11.09901469186)
  );
#64 = CARTESIAN_POINT('',(8.9891597198,0.491661032512,11.171945306979));
#65 = CARTESIAN_POINT('',(8.996292669986,0.334663714399,11.223308281534)
  );
#66 = CARTESIAN_POINT('',(9.,0.169110727015,11.25));
#67 = CARTESIAN_POINT('',(9.,2.3E-16,11.25));
#68 = ORIENTED_EDGE('',*,*,#69,.T.);
#69 = EDGE_CURVE('',#39,#70,#72,.T.);
#70 = VERTEX_POINT('',#71);
#71 = CARTESIAN_POINT('',(9.,0.,20.));
#72 = LINE('',#73,#74);
#73 = CARTESIAN_POINT('',(9.,0.,0.));
#74 = VECTOR('',#75,1.);
#75 = DIRECTION('',(0.,0.,1.));
#76 = ORIENTED_EDGE('',*,*,#77,.T.);
#77 = EDGE_CURVE('',#70,#70,#78,.T.);
#78 = CIRCLE('',#79,9.);
#79 = AXIS2_PLACEMENT_3D('',#80,#81,#82);
#80 = CARTESIAN_POINT('',(0.,0.,20.));
#81 = DIRECTION('',(0.,0.,1.));
#82 = DIRECTION('',(1.,0.,0.));
#83 = ORIENTED_EDGE('',*,*,#69,.F.);
#84 = ORIENTED_EDGE('',*,*,#85,.T.);
#85 = EDGE_CURVE('',#39,#31,#86,.T.);
#86 = B_SPLINE_CURVE_WITH_KNOTS('',7,(#87,#88,#89,#90,#91,#92,#93,#94,
    #95,#96,#97,#98,#99,#100,#101,#102,#103,#104,#105,#106,#107,#108,
    #109,#110,#111,#112),.UNSPECIFIED.,.F.,.F.,(8,6,6,6,8),(0.,
    0.260567991664,0.50004194454,0.739516383985,1.),.UNSPECIFIED.);
#87 = CARTESIAN_POINT('',(9.,-8.9E-16,11.25));
#88 = CARTESIAN_POINT('',(9.,-0.169141558736,11.25));
#89 = CARTESIAN_POINT('',(8.996291317887,-0.334696029854,11.223298562063
    ));
#90 = CARTESIAN_POINT('',(8.989158027589,-0.491677792528,11.171933090315
    ));
#91 = CARTESIAN_POINT('',(8.979517058312,-0.635774243026,11.099010198357
    ));
#92 = CARTESIAN_POINT('',(8.968722033586,-0.763562111514,11.008648995693
    ));
#93 = CARTESIAN_POINT('',(8.958034709746,-0.87284690357,10.905927469268)
  );
#94 = CARTESIAN_POINT('',(8.939383964132,-1.046126484186,10.696468437737
    ));
#95 = CARTESIAN_POINT('',(8.931095876694,-1.114688869857,10.588773884955
    ));
#96 = CARTESIAN_POINT('',(8.923989499999,-1.169086835362,10.475787644235
    ));
#97 = CARTESIAN_POINT('',(8.918434627558,-1.209619058013,10.35914076217)
  );
#98 = CARTESIAN_POINT('',(8.914659594596,-1.236540486855,10.240177718524
    ));
#99 = CARTESIAN_POINT('',(8.912771734988,-1.25,10.120088636312));
#100 = CARTESIAN_POINT('',(8.912771734988,-1.25,9.879911119689));
#101 = CARTESIAN_POINT('',(8.914659600853,-1.236540441244,9.759821210301
    ));
#102 = CARTESIAN_POINT('',(8.91843469232,-1.209618642127,9.640857704641)
  );
#103 = CARTESIAN_POINT('',(8.923989576015,-1.169086218712,9.524211494295
    ));
#104 = CARTESIAN_POINT('',(8.931095866158,-1.114688819906,9.411226643959
    ));
#105 = CARTESIAN_POINT('',(8.939383857489,-1.046127474986,9.303532759935
    ));
#106 = CARTESIAN_POINT('',(8.958031658931,-0.872875247951,9.094106793204
    ));
#107 = CARTESIAN_POINT('',(8.96871972781,-0.763589772241,8.991365978066)
  );
#108 = CARTESIAN_POINT('',(8.97951831639,-0.635772271648,8.900975122501)
  );
#109 = CARTESIAN_POINT('',(8.989162047369,-0.491633648475,8.82803804889)
  );
#110 = CARTESIAN_POINT('',(8.99629416011,-0.334622297547,8.776680964457)
  );
#111 = CARTESIAN_POINT('',(9.,-0.169076681193,8.75));
#112 = CARTESIAN_POINT('',(9.,-1.33E-15,8.75));
#113 = ORIENTED_EDGE('',*,*,#30,.F.);
#114 = CYLINDRICAL_SURFACE('',#115,9.);
#115 = AXIS2_PLACEMENT_3D('',#116,#117,#118);
#116 = CARTESIAN_POINT('',(0.,0.,0.));
#117 = DIRECTION('',(-0.,-0.,-1.));
#118 = DIRECTION('',(1.,0.,0.));
#119 = ADVANCED_FACE('',(#120,#123),#134,.F.);
#120 = FACE_BOUND('',#121,.F.);
#121 = EDGE_LOOP('',(#122));
#122 = ORIENTED_EDGE('',*,*,#21,.T.);
#123 = FACE_BOUND('',#124,.T.);
#124 = EDGE_LOOP('',(#125));
#125 = ORIENTED_EDGE('',*,*,#126,.T.);
#126 = EDGE_CURVE('',#127,#127,#129,.T.);
#127 = VERTEX_POINT('',#128);
#128 = CARTESIAN_POINT('',(6.,0.,0.));
#129 = CIRCLE('',#130,6.);
#130 = AXIS2_PLACEMENT_3D('',#131,#132,#133);
#131 = CARTESIAN_POINT('',(0.,0.,0.));
#132 = DIRECTION('',(0.,0.,1.));
#133 = DIRECTION('',(1.,0.,0.));
#134 = PLANE('',#135);
#135 = AXIS2_PLACEMENT_3D('',#136,#137,#138);
#136 = CARTESIAN_POINT('',(-3.6E-16,1.4E-16,0.));
#137 = DIRECTION('',(0.,0.,1.));
#138 = DIRECTION('',(1.,0.,0.));
#139 = ADVANCED_FACE('',(#140),#213,.F.);
#140 = FACE_BOUND('',#141,.T.);
#141 = EDGE_LOOP('',(#142,#143,#151,#182,#211,#212));
#142 = ORIENTED_EDGE('',*,*,#85,.T.);
#143 = ORIENTED_EDGE('',*,*,#144,.T.);
#144 = EDGE_CURVE('',#31,#145,#147,.T.);
#145 = VERTEX_POINT('',#146);
#146 = CARTESIAN_POINT('',(6.,0.,8.75));
#147 = LINE('',#148,#149);
#148 = CARTESIAN_POINT('',(9.,0.,8.75));
#149 = VECTOR('',#150,1.);
#150 = DIRECTION('',(-1.,0.,-1.6E-16));
#151 = ORIENTED_EDGE('',*,*,#152,.F.);
#152 = EDGE_CURVE('',#153,#145,#155,.T.);
#153 = VERTEX_POINT('',#154);
#154 = CARTESIAN_POINT('',(6.,0.,11.25));
#155 = B_SPLINE_CURVE_WITH_KNOTS('',7,(#156,#157,#158,#159,#160,#161,
    #162,#163,#164,#165,#166,#167,#168,#169,#170,#171,#172,#173,#174,
    #175,#176,#177,#178,#179,#180,#181),.UNSPECIFIED.,.F.,.F.,(8,6,6,6,8
    ),(0.,0.250847531407,0.500019640936,0.749212448366,1.),
  .UNSPECIFIED.);
#156 = CARTESIAN_POINT('',(6.,-4.4E-16,11.25));
#157 = CARTESIAN_POINT('',(6.,-0.1625003353,11.25));
#158 = CARTESIAN_POINT('',(5.994865204054,-0.321759660503,
    11.225354220437));
#159 = CARTESIAN_POINT('',(5.984965932876,-0.473330113891,
    11.177831178307));
#160 = CARTESIAN_POINT('',(5.971469484495,-0.613312126812,
    11.110137171555));
#161 = CARTESIAN_POINT('',(5.956121623319,-0.738537494882,
    11.025886909077));
#162 = CARTESIAN_POINT('',(5.940644758348,-0.846868022854,
    10.929599110157));
#163 = CARTESIAN_POINT('',(5.912017705197,-1.027803388896,
    10.724368222777));
#164 = CARTESIAN_POINT('',(5.898570535563,-1.102426560792,
    10.613489562167));
#165 = CARTESIAN_POINT('',(5.886911388918,-1.161710144147,
    10.496420463663));
#166 = CARTESIAN_POINT('',(5.877734858235,-1.205928749001,
    10.375037026425));
#167 = CARTESIAN_POINT('',(5.871476030981,-1.23531152627,10.250912502911
    ));
#168 = CARTESIAN_POINT('',(5.868347297153,-1.25,10.125450233612));
#169 = CARTESIAN_POINT('',(5.868347297153,-1.25,9.874539345653));
#170 = CARTESIAN_POINT('',(5.871476550179,-1.23530909251,9.749080347836)
  );
#171 = CARTESIAN_POINT('',(5.87773518695,-1.205927180977,9.624963008175)
  );
#172 = CARTESIAN_POINT('',(5.88691104202,-1.161711470094,9.503584270822)
  );
#173 = CARTESIAN_POINT('',(5.898569922902,-1.102429840553,9.386515690591
    ));
#174 = CARTESIAN_POINT('',(5.912017289232,-1.027806017972,9.275634759325
    ));
#175 = CARTESIAN_POINT('',(5.940640550444,-0.846894618626,9.070431056825
    ));
#176 = CARTESIAN_POINT('',(5.95611865252,-0.738562407266,8.974125748819)
  );
#177 = CARTESIAN_POINT('',(5.971471343328,-0.613309207004,8.889849500074
    ));
#178 = CARTESIAN_POINT('',(5.984971264271,-0.473288947515,8.822143295029
    ));
#179 = CARTESIAN_POINT('',(5.994868924893,-0.321692079684,8.774627911154
    ));
#180 = CARTESIAN_POINT('',(6.,-0.162441425308,8.75));
#181 = CARTESIAN_POINT('',(6.,-8.9E-16,8.75));
#182 = ORIENTED_EDGE('',*,*,#183,.F.);
#183 = EDGE_CURVE('',#145,#153,#184,.T.);
#184 = B_SPLINE_CURVE_WITH_KNOTS('',7,(#185,#186,#187,#188,#189,#190,
    #191,#192,#193,#194,#195,#196,#197,#198,#199,#200,#201,#202,#203,
    #204,#205,#206,#207,#208,#209,#210),.UNSPECIFIED.,.F.,.F.,(8,6,6,6,8
    ),(0.,0.250842069488,0.500019690347,0.749193331233,1.),
  .UNSPECIFIED.);
#185 = CARTESIAN_POINT('',(6.,-1.5E-16,8.75));
#186 = CARTESIAN_POINT('',(6.,0.1625003353,8.75));
#187 = CARTESIAN_POINT('',(5.994865204054,0.321759660503,8.774645779563)
  );
#188 = CARTESIAN_POINT('',(5.984965932876,0.473330113891,8.822168821694)
  );
#189 = CARTESIAN_POINT('',(5.971469484495,0.613312126812,8.889862828445)
  );
#190 = CARTESIAN_POINT('',(5.956121623319,0.738537494882,8.974113090923)
  );
#191 = CARTESIAN_POINT('',(5.940644758348,0.846868022854,9.070400889843)
  );
#192 = CARTESIAN_POINT('',(5.912017079033,1.027807346523,9.27563626627)
  );
#193 = CARTESIAN_POINT('',(5.89856980575,1.102430272104,9.386516940472)
  );
#194 = CARTESIAN_POINT('',(5.88691112473,1.161711046412,9.503584176232)
  );
#195 = CARTESIAN_POINT('',(5.877735333714,1.205926466027,9.624961452626)
  );
#196 = CARTESIAN_POINT('',(5.871476654187,1.235308613503,9.749077940503)
  );
#197 = CARTESIAN_POINT('',(5.868347297153,1.25,9.874537339423));
#198 = CARTESIAN_POINT('',(5.868347297153,1.25,10.125460656633));
#199 = CARTESIAN_POINT('',(5.871476550252,1.235309091951,10.250919646491
    ));
#200 = CARTESIAN_POINT('',(5.877735186544,1.205927183682,10.375036996048
    ));
#201 = CARTESIAN_POINT('',(5.886911042836,1.161711464938,10.496415731075
    ));
#202 = CARTESIAN_POINT('',(5.898569922154,1.102429845229,10.613484304922
    ));
#203 = CARTESIAN_POINT('',(5.912017289516,1.02780601618,10.724365242708)
  );
#204 = CARTESIAN_POINT('',(5.940642749044,0.846880722527,10.929584705206
    ));
#205 = CARTESIAN_POINT('',(5.956119889665,0.738551385781,11.025878608468
    ));
#206 = CARTESIAN_POINT('',(5.971469914597,0.61331441786,11.110141436206)
  );
#207 = CARTESIAN_POINT('',(5.984968409316,0.473313238942,11.177843100236
    ));
#208 = CARTESIAN_POINT('',(5.994867149464,0.321726953552,11.225363538432
    ));
#209 = CARTESIAN_POINT('',(6.,0.162469617825,11.25));
#210 = CARTESIAN_POINT('',(6.,2.3E-16,11.25));
#211 = ORIENTED_EDGE('',*,*,#144,.F.);
#212 = ORIENTED_EDGE('',*,*,#38,.T.);
#213 = CYLINDRICAL_SURFACE('',#214,1.25);
#214 = AXIS2_PLACEMENT_3D('',#215,#216,#217);
#215 = CARTESIAN_POINT('',(9.,0.,10.));
#216 = DIRECTION('',(-1.,-0.,-2.2E-16));
#217 = DIRECTION('',(2.2E-16,0.,-1.));
#218 = ADVANCED_FACE('',(#219,#222,#233),#244,.T.);
#219 = FACE_BOUND('',#220,.T.);
#220 = EDGE_LOOP('',(#221));
#221 = ORIENTED_EDGE('',*,*,#77,.T.);
#222 = FACE_BOUND('',#223,.T.);
#223 = EDGE_LOOP('',(#224));
#224 = ORIENTED_EDGE('',*,*,#225,.F.);
#225 = EDGE_CURVE('',#226,#226,#228,.T.);
#226 = VERTEX_POINT('',#227);
#227 = CARTESIAN_POINT('',(6.,0.,20.));
#228 = CIRCLE('',#229,6.);
#229 = AXIS2_PLACEMENT_3D('',#230,#231,#232);
#230 = CARTESIAN_POINT('',(0.,0.,20.));
#231 = DIRECTION('',(0.,0.,1.));
#232 = DIRECTION('',(1.,0.,0.));
#233 = FACE_BOUND('',#234,.T.);
#234 = EDGE_LOOP('',(#235));
#235 = ORIENTED_EDGE('',*,*,#236,.F.);
#236 = EDGE_CURVE('',#237,#237,#239,.T.);
#237 = VERTEX_POINT('',#238);
#238 = CARTESIAN_POINT('',(0.6,7.548717,20.));
#239 = CIRCLE('',#240,0.6);
#240 = AXIS2_PLACEMENT_3D('',#241,#242,#243);
#241 = CARTESIAN_POINT('',(0.,7.548717,20.));
#242 = DIRECTION('',(0.,0.,1.));
#243 = DIRECTION('',(1.,0.,0.));
#244 = PLANE('',#245);
#245 = AXIS2_PLACEMENT_3D('',#246,#247,#248);
#246 = CARTESIAN_POINT('',(-3.6E-16,1.4E-16,20.));
#247 = DIRECTION('',(0.,0.,1.));
#248 = DIRECTION('',(1.,0.,0.));
#249 = ADVANCED_FACE('',(#250),#270,.F.);
#250 = FACE_BOUND('',#251,.T.);
#251 = EDGE_LOOP('',(#252,#253,#259,#260,#266,#267,#268,#269));
#252 = ORIENTED_EDGE('',*,*,#126,.F.);
#253 = ORIENTED_EDGE('',*,*,#254,.T.);
#254 = EDGE_CURVE('',#127,#145,#255,.T.);
#255 = LINE('',#256,#257);
#256 = CARTESIAN_POINT('',(6.,0.,0.));
#257 = VECTOR('',#258,1.);
#258 = DIRECTION('',(0.,0.,1.));
#259 = ORIENTED_EDGE('',*,*,#183,.T.);
#260 = ORIENTED_EDGE('',*,*,#261,.T.);
#261 = EDGE_CURVE('',#153,#226,#262,.T.);
#262 = LINE('',#263,#264);
#263 = CARTESIAN_POINT('',(6.,0.,0.));
#264 = VECTOR('',#265,1.);
#265 = DIRECTION('',(0.,0.,1.));
#266 = ORIENTED_EDGE('',*,*,#225,.T.);
#267 = ORIENTED_EDGE('',*,*,#261,.F.);
#268 = ORIENTED_EDGE('',*,*,#152,.T.);
#269 = ORIENTED_EDGE('',*,*,#254,.F.);
#270 = CYLINDRICAL_SURFACE('',#271,6.);
#271 = AXIS2_PLACEMENT_3D('',#272,#273,#274);
#272 = CARTESIAN_POINT('',(0.,0.,0.));
#273 = DIRECTION('',(-0.,-0.,-1.));
#274 = DIRECTION('',(1.,0.,0.));
#275 = ADVANCED_FACE('',(#276),#295,.F.);
#276 = FACE_BOUND('',#277,.F.);
#277 = EDGE_LOOP('',(#278,#286,#293,#294));
#278 = ORIENTED_EDGE('',*,*,#279,.T.);
#279 = EDGE_CURVE('',#237,#280,#282,.T.);
#280 = VERTEX_POINT('',#281);
#281 = CARTESIAN_POINT('',(0.6,7.548717,14.));
#282 = LINE('',#283,#284);
#283 = CARTESIAN_POINT('',(0.6,7.548717,20.));
#284 = VECTOR('',#285,1.);
#285 = DIRECTION('',(-0.,-0.,-1.));
#286 = ORIENTED_EDGE('',*,*,#287,.T.);
#287 = EDGE_CURVE('',#280,#280,#288,.T.);
#288 = CIRCLE('',#289,0.6);
#289 = AXIS2_PLACEMENT_3D('',#290,#291,#292);
#290 = CARTESIAN_POINT('',(0.,7.548717,14.));
#291 = DIRECTION('',(0.,0.,1.));
#292 = DIRECTION('',(1.,0.,0.));
#293 = ORIENTED_EDGE('',*,*,#279,.F.);
#294 = ORIENTED_EDGE('',*,*,#236,.F.);
#295 = CYLINDRICAL_SURFACE('',#296,0.6);
#296 = AXIS2_PLACEMENT_3D('',#297,#298,#299);
#297 = CARTESIAN_POINT('',(0.,7.548717,20.));
#298 = DIRECTION('',(0.,0.,1.));
#299 = DIRECTION('',(1.,0.,0.));
#300 = ADVANCED_FACE('',(#301),#304,.T.);
#301 = FACE_BOUND('',#302,.T.);
#302 = EDGE_LOOP('',(#303));
#303 = ORIENTED_EDGE('',*,*,#287,.T.);
#304 = PLANE('',#305);
#305 = AXIS2_PLACEMENT_3D('',#306,#307,#308);
#306 = CARTESIAN_POINT('',(-1.068312603546E-16,7.548717,14.));
#307 = DIRECTION('',(0.,0.,1.));
#308 = DIRECTION('',(1.,0.,0.));
#309 = ( GEOMETRIC_REPRESENTATION_CONTEXT(3) 
GLOBAL_UNCERTAINTY_ASSIGNED_CONTEXT((#313)) GLOBAL_UNIT_ASSIGNED_CONTEXT
((#310,#311,#312)) REPRESENTATION_CONTEXT('Context #1',
  '3D Context with UNIT and UNCERTAINTY') );
#310 = ( LENGTH_UNIT() NAMED_UNIT(*) SI_UNIT(.MILLI.,.METRE.) );
#311 = ( NAMED_UNIT(*) PLANE_ANGLE_UNIT() SI_UNIT($,.RADIAN.) );
#312 = ( NAMED_UNIT(*) SI_UNIT($,.STERADIAN.) SOLID_ANGLE_UNIT() );
#313 = UNCERTAINTY_MEASURE_WITH_UNIT(LENGTH_MEASURE(1.E-07),#310,
  'distance_accuracy_value','confusion accuracy');
#314 = PRODUCT_RELATED_PRODUCT_CATEGORY('part',$,(#7));
#315 = MECHANICAL_DESIGN_GEOMETRIC_PRESENTATION_REPRESENTATION('',(#316)
  ,#309);
#316 = STYLED_ITEM('color',(#317),#15);
#317 = PRESENTATION_STYLE_ASSIGNMENT((#318,#324));
#318 = SURFACE_STYLE_USAGE(.BOTH.,#319);
#319 = SURFACE_SIDE_STYLE('',(#320));
#320 = SURFACE_STYLE_FILL_AREA(#321);
#321 = FILL_AREA_STYLE('',(#322));
#322 = FILL_AREA_STYLE_COLOUR('',#323);
#323 = COLOUR_RGB('',0.447058818107,0.474509808674,0.501960817233);
#324 = CURVE_STYLE('',#325,POSITIVE_LENGTH_MEASURE(0.1),#326);
#325 = DRAUGHTING_PRE_DEFINED_CURVE_FONT('continuous');
#326 = COLOUR_RGB('',9.803921802644E-02,9.803921802644E-02,
  9.803921802644E-02);
ENDSEC;
END-ISO-10303-21;
