ISO-10303-21;
HEADER;
FILE_DESCRIPTION(('FreeCAD Model'),'2;1');
FILE_NAME('Open CASCADE Shape Model','2026-06-17T10:09:22',(''),(''),
  'Open CASCADE STEP processor 7.8','FreeCAD','Unknown');
FILE_SCHEMA(('AUTOMOTIVE_DESIGN { 1 0 10303 214 1 1 1 1 }'));
ENDSEC;
DATA;
#1 = APPLICATION_PROTOCOL_DEFINITION('international standard',
  'automotive_design',2000,#2);
#2 = APPLICATION_CONTEXT(
  'core data for automotive mechanical design processes');
#3 = SHAPE_DEFINITION_REPRESENTATION(#4,#10);
#4 = PRODUCT_DEFINITION_SHAPE('','',#5);
#5 = PRODUCT_DEFINITION('design','',#6,#9);
#6 = PRODUCT_DEFINITION_FORMATION('','',#7);
#7 = PRODUCT('Fillet','Fillet','',(#8));
#8 = PRODUCT_CONTEXT('',#2,'mechanical');
#9 = PRODUCT_DEFINITION_CONTEXT('part definition',#2,'design');
#10 = ADVANCED_BREP_SHAPE_REPRESENTATION('',(#11,#15),#245);
#11 = AXIS2_PLACEMENT_3D('',#12,#13,#14);
#12 = CARTESIAN_POINT('',(0.,0.,0.));
#13 = DIRECTION('',(0.,0.,1.));
#14 = DIRECTION('',(1.,0.,-0.));
#15 = MANIFOLD_SOLID_BREP('',#16);
#16 = CLOSED_SHELL('',(#17,#50,#76,#182,#202,#211,#236));
#17 = ADVANCED_FACE('',(#18),#45,.T.);
#18 = FACE_BOUND('',#19,.F.);
#19 = EDGE_LOOP('',(#20,#30,#37,#38));
#20 = ORIENTED_EDGE('',*,*,#21,.F.);
#21 = EDGE_CURVE('',#22,#24,#26,.T.);
#22 = VERTEX_POINT('',#23);
#23 = CARTESIAN_POINT('',(21.5,2.54647908947,0.));
#24 = VERTEX_POINT('',#25);
#25 = CARTESIAN_POINT('',(21.5,14.,0.));
#26 = LINE('',#27,#28);
#27 = CARTESIAN_POINT('',(21.5,2.54647908947,0.));
#28 = VECTOR('',#29,1.);
#29 = DIRECTION('',(0.,1.,0.));
#30 = ORIENTED_EDGE('',*,*,#31,.T.);
#31 = EDGE_CURVE('',#22,#22,#32,.T.);
#32 = CIRCLE('',#33,21.5);
#33 = AXIS2_PLACEMENT_3D('',#34,#35,#36);
#34 = CARTESIAN_POINT('',(0.,2.54647908947,0.));
#35 = DIRECTION('',(0.,-1.,0.));
#36 = DIRECTION('',(1.,0.,0.));
#37 = ORIENTED_EDGE('',*,*,#21,.T.);
#38 = ORIENTED_EDGE('',*,*,#39,.F.);
#39 = EDGE_CURVE('',#24,#24,#40,.T.);
#40 = CIRCLE('',#41,21.5);
#41 = AXIS2_PLACEMENT_3D('',#42,#43,#44);
#42 = CARTESIAN_POINT('',(0.,14.,0.));
#43 = DIRECTION('',(0.,-1.,0.));
#44 = DIRECTION('',(1.,0.,0.));
#45 = CYLINDRICAL_SURFACE('',#46,21.5);
#46 = AXIS2_PLACEMENT_3D('',#47,#48,#49);
#47 = CARTESIAN_POINT('',(0.,2.54647908947,0.));
#48 = DIRECTION('',(0.,1.,0.));
#49 = DIRECTION('',(1.,0.,0.));
#50 = ADVANCED_FACE('',(#51),#71,.T.);
#51 = FACE_BOUND('',#52,.F.);
#52 = EDGE_LOOP('',(#53,#62,#63,#64));
#53 = ORIENTED_EDGE('',*,*,#54,.F.);
#54 = EDGE_CURVE('',#24,#55,#57,.T.);
#55 = VERTEX_POINT('',#56);
#56 = CARTESIAN_POINT('',(20.5,15.,0.));
#57 = CIRCLE('',#58,1.);
#58 = AXIS2_PLACEMENT_3D('',#59,#60,#61);
#59 = CARTESIAN_POINT('',(20.5,14.,0.));
#60 = DIRECTION('',(-0.,0.,1.));
#61 = DIRECTION('',(1.,0.,0.));
#62 = ORIENTED_EDGE('',*,*,#39,.F.);
#63 = ORIENTED_EDGE('',*,*,#54,.T.);
#64 = ORIENTED_EDGE('',*,*,#65,.T.);
#65 = EDGE_CURVE('',#55,#55,#66,.T.);
#66 = CIRCLE('',#67,20.5);
#67 = AXIS2_PLACEMENT_3D('',#68,#69,#70);
#68 = CARTESIAN_POINT('',(0.,15.,0.));
#69 = DIRECTION('',(0.,-1.,0.));
#70 = DIRECTION('',(1.,0.,0.));
#71 = TOROIDAL_SURFACE('',#72,20.5,1.);
#72 = AXIS2_PLACEMENT_3D('',#73,#74,#75);
#73 = CARTESIAN_POINT('',(0.,14.,0.));
#74 = DIRECTION('',(-0.,1.,-0.));
#75 = DIRECTION('',(1.,0.,0.));
#76 = ADVANCED_FACE('',(#77),#135,.F.);
#77 = FACE_BOUND('',#78,.F.);
#78 = EDGE_LOOP('',(#79,#88,#133,#134));
#79 = ORIENTED_EDGE('',*,*,#80,.T.);
#80 = EDGE_CURVE('',#81,#81,#83,.T.);
#81 = VERTEX_POINT('',#82);
#82 = CARTESIAN_POINT('',(17.5,0.,0.));
#83 = CIRCLE('',#84,17.5);
#84 = AXIS2_PLACEMENT_3D('',#85,#86,#87);
#85 = CARTESIAN_POINT('',(0.,0.,0.));
#86 = DIRECTION('',(0.,-1.,0.));
#87 = DIRECTION('',(1.,0.,0.));
#88 = ORIENTED_EDGE('',*,*,#89,.T.);
#89 = EDGE_CURVE('',#81,#22,#90,.T.);
#90 = B_SPLINE_CURVE_WITH_KNOTS('',3,(#91,#92,#93,#94,#95,#96,#97,#98,
    #99,#100,#101,#102,#103,#104,#105,#106,#107,#108,#109,#110,#111,#112
    ,#113,#114,#115,#116,#117,#118,#119,#120,#121,#122,#123,#124,#125,
    #126,#127,#128,#129,#130,#131,#132),.UNSPECIFIED.,.F.,.F.,(4,1,1,1,1
    ,1,1,1,1,1,1,1,1,1,1,1,1,1,1,1,1,1,1,1,1,1,1,1,1,1,1,1,1,1,1,1,1,1,1
    ,4),(0.,0.205058888639,0.409785171018,0.613846780362,0.816912728003,
    1.018653640236,1.21874229257,1.416854140487,1.612667845851,
    1.805865798122,1.996134629525,2.183165723325,2.366655714412,
    2.546306981359,2.721828129162,2.892934461888,3.059348444449,
    3.22080015277,3.377027711601,3.527777719284,3.67280565877,
    3.811876294229,3.944764052602,4.07125338948,4.191139138722,
    4.304226845235,4.410333080383,4.509285739508,4.600924321089,
    4.685100187081,4.76167680401,4.830529964441,4.891547988459,
    4.944631904841,4.98969561164,5.02666601595,5.055483152733,
    5.076100282871,5.088483972427,5.092614184697),.UNSPECIFIED.);
#91 = CARTESIAN_POINT('',(17.5,0.,0.));
#92 = CARTESIAN_POINT('',(17.568357420571,-8.344E-14,0.));
#93 = CARTESIAN_POINT('',(17.704961958398,2.750250075197E-03,0.));
#94 = CARTESIAN_POINT('',(17.9092596537,1.510296193642E-02,0.));
#95 = CARTESIAN_POINT('',(18.112233600227,3.560178233562E-02,0.));
#96 = CARTESIAN_POINT('',(18.313232445529,6.411376855639E-02,0.));
#97 = CARTESIAN_POINT('',(18.511617843538,0.100454009427,0.));
#98 = CARTESIAN_POINT('',(18.706768344895,0.144386824541,0.));
#99 = CARTESIAN_POINT('',(18.898083493715,0.195627292734,0.));
#100 = CARTESIAN_POINT('',(19.084987704131,0.253843099906,0.));
#101 = CARTESIAN_POINT('',(19.266933997857,0.31865669421,0.));
#102 = CARTESIAN_POINT('',(19.443407550312,0.389647734615,0.));
#103 = CARTESIAN_POINT('',(19.613929029778,0.466355816982,0.));
#104 = CARTESIAN_POINT('',(19.77805770595,0.548283459963,0.));
#105 = CARTESIAN_POINT('',(19.935394308263,0.634899331355,0.));
#106 = CARTESIAN_POINT('',(20.085583615295,0.725641693994,0.));
#107 = CARTESIAN_POINT('',(20.228316758505,0.819922048837,0.));
#108 = CARTESIAN_POINT('',(20.363333225348,0.917128951607,0.));
#109 = CARTESIAN_POINT('',(20.49042254878,1.016631978236,0.));
#110 = CARTESIAN_POINT('',(20.609425672193,1.117785813416,0.));
#111 = CARTESIAN_POINT('',(20.720235980933,1.21993443571,0.));
#112 = CARTESIAN_POINT('',(20.82279999369,1.322415372103,0.));
#113 = CARTESIAN_POINT('',(20.917117709299,1.424563994401,0.));
#114 = CARTESIAN_POINT('',(21.003242606679,1.525717829588,0.));
#115 = CARTESIAN_POINT('',(21.081281297904,1.625220856231,0.));
#116 = CARTESIAN_POINT('',(21.151392836674,1.722427759018,0.));
#117 = CARTESIAN_POINT('',(21.213787686533,1.816708113886,0.));
#118 = CARTESIAN_POINT('',(21.268726355945,1.907450476558,0.));
#119 = CARTESIAN_POINT('',(21.316517707493,1.994066347991,0.));
#120 = CARTESIAN_POINT('',(21.357516957267,2.075993991032,0.));
#121 = CARTESIAN_POINT('',(21.392123360052,2.152702073465,0.));
#122 = CARTESIAN_POINT('',(21.42077765187,2.22369311401,0.));
#123 = CARTESIAN_POINT('',(21.443959081154,2.288506708345,0.));
#124 = CARTESIAN_POINT('',(21.462182638387,2.346722516093,0.));
#125 = CARTESIAN_POINT('',(21.475994643759,2.397962983522,0.));
#126 = CARTESIAN_POINT('',(21.485972393778,2.441895802368,0.));
#127 = CARTESIAN_POINT('',(21.492711042064,2.478236035361,0.));
#128 = CARTESIAN_POINT('',(21.49684536456,2.506748046383,0.));
#129 = CARTESIAN_POINT('',(21.498979454444,2.527246820575,0.));
#130 = CARTESIAN_POINT('',(21.499829147973,2.539599649731,0.));
#131 = CARTESIAN_POINT('',(21.499977821321,2.545102299825,0.));
#132 = CARTESIAN_POINT('',(21.5,2.54647908947,0.));
#133 = ORIENTED_EDGE('',*,*,#31,.F.);
#134 = ORIENTED_EDGE('',*,*,#89,.F.);
#135 = SURFACE_OF_REVOLUTION('',#136,#179);
#136 = B_SPLINE_CURVE_WITH_KNOTS('',3,(#137,#138,#139,#140,#141,#142,
    #143,#144,#145,#146,#147,#148,#149,#150,#151,#152,#153,#154,#155,
    #156,#157,#158,#159,#160,#161,#162,#163,#164,#165,#166,#167,#168,
    #169,#170,#171,#172,#173,#174,#175,#176,#177,#178),.UNSPECIFIED.,.F.
  ,.F.,(4,1,1,1,1,1,1,1,1,1,1,1,1,1,1,1,1,1,1,1,1,1,1,1,1,1,1,1,1,1,1,1,
    1,1,1,1,1,1,1,4),(0.,0.205058888639,0.409785171018,0.613846780362,
    0.816912728003,1.018653640236,1.21874229257,1.416854140487,
    1.612667845851,1.805865798122,1.996134629525,2.183165723325,
    2.366655714412,2.546306981359,2.721828129162,2.892934461888,
    3.059348444449,3.22080015277,3.377027711601,3.527777719284,
    3.67280565877,3.811876294229,3.944764052602,4.07125338948,
    4.191139138722,4.304226845235,4.410333080383,4.509285739508,
    4.600924321089,4.685100187081,4.76167680401,4.830529964441,
    4.891547988459,4.944631904841,4.98969561164,5.02666601595,
    5.055483152733,5.076100282871,5.088483972427,5.092614184697),
  .UNSPECIFIED.);
#137 = CARTESIAN_POINT('',(17.5,0.,0.));
#138 = CARTESIAN_POINT('',(17.568357420571,-8.344E-14,0.));
#139 = CARTESIAN_POINT('',(17.704961958398,2.750250075197E-03,0.));
#140 = CARTESIAN_POINT('',(17.9092596537,1.510296193642E-02,0.));
#141 = CARTESIAN_POINT('',(18.112233600227,3.560178233562E-02,0.));
#142 = CARTESIAN_POINT('',(18.313232445529,6.411376855639E-02,0.));
#143 = CARTESIAN_POINT('',(18.511617843538,0.100454009427,0.));
#144 = CARTESIAN_POINT('',(18.706768344895,0.144386824541,0.));
#145 = CARTESIAN_POINT('',(18.898083493715,0.195627292734,0.));
#146 = CARTESIAN_POINT('',(19.084987704131,0.253843099906,0.));
#147 = CARTESIAN_POINT('',(19.266933997857,0.31865669421,0.));
#148 = CARTESIAN_POINT('',(19.443407550312,0.389647734615,0.));
#149 = CARTESIAN_POINT('',(19.613929029778,0.466355816982,0.));
#150 = CARTESIAN_POINT('',(19.77805770595,0.548283459963,0.));
#151 = CARTESIAN_POINT('',(19.935394308263,0.634899331355,0.));
#152 = CARTESIAN_POINT('',(20.085583615295,0.725641693994,0.));
#153 = CARTESIAN_POINT('',(20.228316758505,0.819922048837,0.));
#154 = CARTESIAN_POINT('',(20.363333225348,0.917128951607,0.));
#155 = CARTESIAN_POINT('',(20.49042254878,1.016631978236,0.));
#156 = CARTESIAN_POINT('',(20.609425672193,1.117785813416,0.));
#157 = CARTESIAN_POINT('',(20.720235980933,1.21993443571,0.));
#158 = CARTESIAN_POINT('',(20.82279999369,1.322415372103,0.));
#159 = CARTESIAN_POINT('',(20.917117709299,1.424563994401,0.));
#160 = CARTESIAN_POINT('',(21.003242606679,1.525717829588,0.));
#161 = CARTESIAN_POINT('',(21.081281297904,1.625220856231,0.));
#162 = CARTESIAN_POINT('',(21.151392836674,1.722427759018,0.));
#163 = CARTESIAN_POINT('',(21.213787686533,1.816708113886,0.));
#164 = CARTESIAN_POINT('',(21.268726355945,1.907450476558,0.));
#165 = CARTESIAN_POINT('',(21.316517707493,1.994066347991,0.));
#166 = CARTESIAN_POINT('',(21.357516957267,2.075993991032,0.));
#167 = CARTESIAN_POINT('',(21.392123360052,2.152702073465,0.));
#168 = CARTESIAN_POINT('',(21.42077765187,2.22369311401,0.));
#169 = CARTESIAN_POINT('',(21.443959081154,2.288506708345,0.));
#170 = CARTESIAN_POINT('',(21.462182638387,2.346722516093,0.));
#171 = CARTESIAN_POINT('',(21.475994643759,2.397962983522,0.));
#172 = CARTESIAN_POINT('',(21.485972393778,2.441895802368,0.));
#173 = CARTESIAN_POINT('',(21.492711042064,2.478236035361,0.));
#174 = CARTESIAN_POINT('',(21.49684536456,2.506748046383,0.));
#175 = CARTESIAN_POINT('',(21.498979454444,2.527246820575,0.));
#176 = CARTESIAN_POINT('',(21.499829147973,2.539599649731,0.));
#177 = CARTESIAN_POINT('',(21.499977821321,2.545102299825,0.));
#178 = CARTESIAN_POINT('',(21.5,2.54647908947,0.));
#179 = AXIS1_PLACEMENT('',#180,#181);
#180 = CARTESIAN_POINT('',(0.,0.,0.));
#181 = DIRECTION('',(-0.,-1.,-0.));
#182 = ADVANCED_FACE('',(#183,#186),#197,.F.);
#183 = FACE_BOUND('',#184,.F.);
#184 = EDGE_LOOP('',(#185));
#185 = ORIENTED_EDGE('',*,*,#65,.T.);
#186 = FACE_BOUND('',#187,.F.);
#187 = EDGE_LOOP('',(#188));
#188 = ORIENTED_EDGE('',*,*,#189,.T.);
#189 = EDGE_CURVE('',#190,#190,#192,.T.);
#190 = VERTEX_POINT('',#191);
#191 = CARTESIAN_POINT('',(3.4,15.,0.));
#192 = CIRCLE('',#193,3.4);
#193 = AXIS2_PLACEMENT_3D('',#194,#195,#196);
#194 = CARTESIAN_POINT('',(0.,15.,0.));
#195 = DIRECTION('',(0.,1.,-2.2E-16));
#196 = DIRECTION('',(1.,0.,0.));
#197 = PLANE('',#198);
#198 = AXIS2_PLACEMENT_3D('',#199,#200,#201);
#199 = CARTESIAN_POINT('',(0.,15.,0.));
#200 = DIRECTION('',(-0.,-1.,-0.));
#201 = DIRECTION('',(1.,0.,0.));
#202 = ADVANCED_FACE('',(#203),#206,.T.);
#203 = FACE_BOUND('',#204,.F.);
#204 = EDGE_LOOP('',(#205));
#205 = ORIENTED_EDGE('',*,*,#80,.F.);
#206 = PLANE('',#207);
#207 = AXIS2_PLACEMENT_3D('',#208,#209,#210);
#208 = CARTESIAN_POINT('',(0.,0.,0.));
#209 = DIRECTION('',(-0.,-1.,-0.));
#210 = DIRECTION('',(1.,0.,0.));
#211 = ADVANCED_FACE('',(#212),#231,.F.);
#212 = FACE_BOUND('',#213,.T.);
#213 = EDGE_LOOP('',(#214,#222,#223,#224));
#214 = ORIENTED_EDGE('',*,*,#215,.F.);
#215 = EDGE_CURVE('',#190,#216,#218,.T.);
#216 = VERTEX_POINT('',#217);
#217 = CARTESIAN_POINT('',(3.4,5.,2.E-15));
#218 = LINE('',#219,#220);
#219 = CARTESIAN_POINT('',(3.4,15.,0.));
#220 = VECTOR('',#221,1.);
#221 = DIRECTION('',(-4.E-17,-1.,2.2E-16));
#222 = ORIENTED_EDGE('',*,*,#189,.T.);
#223 = ORIENTED_EDGE('',*,*,#215,.T.);
#224 = ORIENTED_EDGE('',*,*,#225,.F.);
#225 = EDGE_CURVE('',#216,#216,#226,.T.);
#226 = CIRCLE('',#227,3.4);
#227 = AXIS2_PLACEMENT_3D('',#228,#229,#230);
#228 = CARTESIAN_POINT('',(0.,5.,2.22E-15));
#229 = DIRECTION('',(0.,1.,-2.2E-16));
#230 = DIRECTION('',(1.,0.,0.));
#231 = CYLINDRICAL_SURFACE('',#232,3.4);
#232 = AXIS2_PLACEMENT_3D('',#233,#234,#235);
#233 = CARTESIAN_POINT('',(0.,15.,0.));
#234 = DIRECTION('',(0.,-1.,2.2E-16));
#235 = DIRECTION('',(1.,0.,0.));
#236 = ADVANCED_FACE('',(#237),#240,.T.);
#237 = FACE_BOUND('',#238,.T.);
#238 = EDGE_LOOP('',(#239));
#239 = ORIENTED_EDGE('',*,*,#225,.T.);
#240 = PLANE('',#241);
#241 = AXIS2_PLACEMENT_3D('',#242,#243,#244);
#242 = CARTESIAN_POINT('',(0.,5.,2.22E-15));
#243 = DIRECTION('',(0.,1.,-2.2E-16));
#244 = DIRECTION('',(1.,0.,0.));
#245 = ( GEOMETRIC_REPRESENTATION_CONTEXT(3) 
GLOBAL_UNCERTAINTY_ASSIGNED_CONTEXT((#249)) GLOBAL_UNIT_ASSIGNED_CONTEXT
((#246,#247,#248)) REPRESENTATION_CONTEXT('Context #1',
  '3D Context with UNIT and UNCERTAINTY') );
#246 = ( LENGTH_UNIT() NAMED_UNIT(*) SI_UNIT(.MILLI.,.METRE.) );
#247 = ( NAMED_UNIT(*) PLANE_ANGLE_UNIT() SI_UNIT($,.RADIAN.) );
#248 = ( NAMED_UNIT(*) SI_UNIT($,.STERADIAN.) SOLID_ANGLE_UNIT() );
#249 = UNCERTAINTY_MEASURE_WITH_UNIT(LENGTH_MEASURE(1.E-07),#246,
  'distance_accuracy_value','confusion accuracy');
#250 = PRODUCT_RELATED_PRODUCT_CATEGORY('part',$,(#7));
#251 = MECHANICAL_DESIGN_GEOMETRIC_PRESENTATION_REPRESENTATION('',(#252)
  ,#245);
#252 = STYLED_ITEM('color',(#253),#15);
#253 = PRESENTATION_STYLE_ASSIGNMENT((#254,#260));
#254 = SURFACE_STYLE_USAGE(.BOTH.,#255);
#255 = SURFACE_SIDE_STYLE('',(#256));
#256 = SURFACE_STYLE_FILL_AREA(#257);
#257 = FILL_AREA_STYLE('',(#258));
#258 = FILL_AREA_STYLE_COLOUR('',#259);
#259 = COLOUR_RGB('',0.447058818107,0.474509808674,0.501960817233);
#260 = CURVE_STYLE('',#261,POSITIVE_LENGTH_MEASURE(0.1),#262);
#261 = DRAUGHTING_PRE_DEFINED_CURVE_FONT('continuous');
#262 = COLOUR_RGB('',9.803921802644E-02,9.803921802644E-02,
  9.803921802644E-02);
ENDSEC;
END-ISO-10303-21;
