ISO-10303-21;
HEADER;
FILE_DESCRIPTION(('FreeCAD Model'),'2;1');
FILE_NAME('Open CASCADE Shape Model','2026-07-07T14:58:28',(''),(''),
  'Open CASCADE STEP processor 7.8','FreeCAD','Unknown');
FILE_SCHEMA(('AUTOMOTIVE_DESIGN { 1 0 10303 214 1 1 1 1 }'));
ENDSEC;
DATA;
#1 = APPLICATION_PROTOCOL_DEFINITION('international standard',
  'automotive_design',2000,#2);
#2 = APPLICATION_CONTEXT(
  'core data for automotive mechanical design processes');
#3 = SHAPE_DEFINITION_REPRESENTATION(#4,#10);
#4 = PRODUCT_DEFINITION_SHAPE('','',#5);
#5 = PRODUCT_DEFINITION('design','',#6,#9);
#6 = PRODUCT_DEFINITION_FORMATION('','',#7);
#7 = PRODUCT('Pocket001','Pocket001','',(#8));
#8 = PRODUCT_CONTEXT('',#2,'mechanical');
#9 = PRODUCT_DEFINITION_CONTEXT('part definition',#2,'design');
#10 = ADVANCED_BREP_SHAPE_REPRESENTATION('',(#11,#15),#639);
#11 = AXIS2_PLACEMENT_3D('',#12,#13,#14);
#12 = CARTESIAN_POINT('',(0.,0.,0.));
#13 = DIRECTION('',(0.,0.,1.));
#14 = DIRECTION('',(1.,0.,-0.));
#15 = MANIFOLD_SOLID_BREP('',#16);
#16 = CLOSED_SHELL('',(#17,#57,#88,#130,#211,#292,#309,#326,#351,#368,
    #385,#428,#452,#477,#501,#528,#552,#577,#594,#614));
#17 = ADVANCED_FACE('',(#18),#52,.F.);
#18 = FACE_BOUND('',#19,.F.);
#19 = EDGE_LOOP('',(#20,#30,#38,#46));
#20 = ORIENTED_EDGE('',*,*,#21,.T.);
#21 = EDGE_CURVE('',#22,#24,#26,.T.);
#22 = VERTEX_POINT('',#23);
#23 = CARTESIAN_POINT('',(-11.63411848663,10.,-4.440892098501E-15));
#24 = VERTEX_POINT('',#25);
#25 = CARTESIAN_POINT('',(-11.63411848663,10.,145.));
#26 = LINE('',#27,#28);
#27 = CARTESIAN_POINT('',(-11.63411848663,10.,-4.440892098501E-15));
#28 = VECTOR('',#29,1.);
#29 = DIRECTION('',(0.,4.440892098501E-16,1.));
#30 = ORIENTED_EDGE('',*,*,#31,.T.);
#31 = EDGE_CURVE('',#24,#32,#34,.T.);
#32 = VERTEX_POINT('',#33);
#33 = CARTESIAN_POINT('',(-11.63411848663,6.439293542826E-14,145.));
#34 = LINE('',#35,#36);
#35 = CARTESIAN_POINT('',(-11.63411848663,10.,145.));
#36 = VECTOR('',#37,1.);
#37 = DIRECTION('',(0.,-1.,4.440892098501E-16));
#38 = ORIENTED_EDGE('',*,*,#39,.F.);
#39 = EDGE_CURVE('',#40,#32,#42,.T.);
#40 = VERTEX_POINT('',#41);
#41 = CARTESIAN_POINT('',(-11.63411848663,0.,0.));
#42 = LINE('',#43,#44);
#43 = CARTESIAN_POINT('',(-11.63411848663,0.,0.));
#44 = VECTOR('',#45,1.);
#45 = DIRECTION('',(0.,4.440892098501E-16,1.));
#46 = ORIENTED_EDGE('',*,*,#47,.F.);
#47 = EDGE_CURVE('',#22,#40,#48,.T.);
#48 = LINE('',#49,#50);
#49 = CARTESIAN_POINT('',(-11.63411848663,10.,-4.440892098501E-15));
#50 = VECTOR('',#51,1.);
#51 = DIRECTION('',(0.,-1.,4.440892098501E-16));
#52 = PLANE('',#53);
#53 = AXIS2_PLACEMENT_3D('',#54,#55,#56);
#54 = CARTESIAN_POINT('',(-11.63411848663,10.,-4.440892098501E-15));
#55 = DIRECTION('',(1.,0.,0.));
#56 = DIRECTION('',(0.,-1.,4.440892098501E-16));
#57 = ADVANCED_FACE('',(#58),#83,.F.);
#58 = FACE_BOUND('',#59,.F.);
#59 = EDGE_LOOP('',(#60,#70,#76,#77));
#60 = ORIENTED_EDGE('',*,*,#61,.T.);
#61 = EDGE_CURVE('',#62,#64,#66,.T.);
#62 = VERTEX_POINT('',#63);
#63 = CARTESIAN_POINT('',(-9.634118486635,10.,-4.440892098501E-15));
#64 = VERTEX_POINT('',#65);
#65 = CARTESIAN_POINT('',(-9.634118486635,10.,145.));
#66 = LINE('',#67,#68);
#67 = CARTESIAN_POINT('',(-9.634118486635,10.,-4.440892098501E-15));
#68 = VECTOR('',#69,1.);
#69 = DIRECTION('',(0.,4.440892098501E-16,1.));
#70 = ORIENTED_EDGE('',*,*,#71,.T.);
#71 = EDGE_CURVE('',#64,#24,#72,.T.);
#72 = LINE('',#73,#74);
#73 = CARTESIAN_POINT('',(-9.634118486635,10.,145.));
#74 = VECTOR('',#75,1.);
#75 = DIRECTION('',(-1.,0.,0.));
#76 = ORIENTED_EDGE('',*,*,#21,.F.);
#77 = ORIENTED_EDGE('',*,*,#78,.F.);
#78 = EDGE_CURVE('',#62,#22,#79,.T.);
#79 = LINE('',#80,#81);
#80 = CARTESIAN_POINT('',(-9.634118486635,10.,-4.440892098501E-15));
#81 = VECTOR('',#82,1.);
#82 = DIRECTION('',(-1.,0.,0.));
#83 = PLANE('',#84);
#84 = AXIS2_PLACEMENT_3D('',#85,#86,#87);
#85 = CARTESIAN_POINT('',(-9.634118486635,10.,-4.440892098501E-15));
#86 = DIRECTION('',(0.,-1.,4.440892098501E-16));
#87 = DIRECTION('',(-1.,0.,0.));
#88 = ADVANCED_FACE('',(#89,#114),#125,.F.);
#89 = FACE_BOUND('',#90,.F.);
#90 = EDGE_LOOP('',(#91,#92,#100,#108));
#91 = ORIENTED_EDGE('',*,*,#39,.T.);
#92 = ORIENTED_EDGE('',*,*,#93,.T.);
#93 = EDGE_CURVE('',#32,#94,#96,.T.);
#94 = VERTEX_POINT('',#95);
#95 = CARTESIAN_POINT('',(-3.034118486635,6.439293542826E-14,145.));
#96 = LINE('',#97,#98);
#97 = CARTESIAN_POINT('',(-11.63411848663,6.439293542826E-14,145.));
#98 = VECTOR('',#99,1.);
#99 = DIRECTION('',(1.,0.,0.));
#100 = ORIENTED_EDGE('',*,*,#101,.F.);
#101 = EDGE_CURVE('',#102,#94,#104,.T.);
#102 = VERTEX_POINT('',#103);
#103 = CARTESIAN_POINT('',(-3.034118486635,0.,0.));
#104 = LINE('',#105,#106);
#105 = CARTESIAN_POINT('',(-3.034118486635,0.,0.));
#106 = VECTOR('',#107,1.);
#107 = DIRECTION('',(0.,4.440892098501E-16,1.));
#108 = ORIENTED_EDGE('',*,*,#109,.F.);
#109 = EDGE_CURVE('',#40,#102,#110,.T.);
#110 = LINE('',#111,#112);
#111 = CARTESIAN_POINT('',(-11.63411848663,0.,0.));
#112 = VECTOR('',#113,1.);
#113 = DIRECTION('',(1.,0.,0.));
#114 = FACE_BOUND('',#115,.F.);
#115 = EDGE_LOOP('',(#116));
#116 = ORIENTED_EDGE('',*,*,#117,.T.);
#117 = EDGE_CURVE('',#118,#118,#120,.T.);
#118 = VERTEX_POINT('',#119);
#119 = CARTESIAN_POINT('',(-4.334118486635,6.732140502824E-15,
    30.318865459925));
#120 = CIRCLE('',#121,3.);
#121 = AXIS2_PLACEMENT_3D('',#122,#123,#124);
#122 = CARTESIAN_POINT('',(-7.334118486635,6.732140502824E-15,
    30.318865459925));
#123 = DIRECTION('',(0.,-1.,2.22044604925E-16));
#124 = DIRECTION('',(1.,0.,0.));
#125 = PLANE('',#126);
#126 = AXIS2_PLACEMENT_3D('',#127,#128,#129);
#127 = CARTESIAN_POINT('',(-11.63411848663,0.,0.));
#128 = DIRECTION('',(0.,1.,-4.440892098501E-16));
#129 = DIRECTION('',(1.,0.,0.));
#130 = ADVANCED_FACE('',(#131),#206,.T.);
#131 = FACE_BOUND('',#132,.F.);
#132 = EDGE_LOOP('',(#133,#134,#135,#143,#151,#159,#167,#175,#183,#191,
    #199,#205));
#133 = ORIENTED_EDGE('',*,*,#47,.T.);
#134 = ORIENTED_EDGE('',*,*,#109,.T.);
#135 = ORIENTED_EDGE('',*,*,#136,.T.);
#136 = EDGE_CURVE('',#102,#137,#139,.T.);
#137 = VERTEX_POINT('',#138);
#138 = CARTESIAN_POINT('',(-3.034118486635,10.,-4.440892098501E-15));
#139 = LINE('',#140,#141);
#140 = CARTESIAN_POINT('',(-3.034118486635,0.,0.));
#141 = VECTOR('',#142,1.);
#142 = DIRECTION('',(0.,1.,-4.440892098501E-16));
#143 = ORIENTED_EDGE('',*,*,#144,.T.);
#144 = EDGE_CURVE('',#137,#145,#147,.T.);
#145 = VERTEX_POINT('',#146);
#146 = CARTESIAN_POINT('',(-5.034118486635,10.,-4.440892098501E-15));
#147 = LINE('',#148,#149);
#148 = CARTESIAN_POINT('',(-3.034118486635,10.,-4.440892098501E-15));
#149 = VECTOR('',#150,1.);
#150 = DIRECTION('',(-1.,0.,0.));
#151 = ORIENTED_EDGE('',*,*,#152,.T.);
#152 = EDGE_CURVE('',#145,#153,#155,.T.);
#153 = VERTEX_POINT('',#154);
#154 = CARTESIAN_POINT('',(-5.034118486635,5.,-2.22044604925E-15));
#155 = LINE('',#156,#157);
#156 = CARTESIAN_POINT('',(-5.034118486635,10.,-4.440892098501E-15));
#157 = VECTOR('',#158,1.);
#158 = DIRECTION('',(0.,-1.,4.440892098501E-16));
#159 = ORIENTED_EDGE('',*,*,#160,.T.);
#160 = EDGE_CURVE('',#153,#161,#163,.T.);
#161 = VERTEX_POINT('',#162);
#162 = CARTESIAN_POINT('',(-6.834118486635,5.,-2.22044604925E-15));
#163 = LINE('',#164,#165);
#164 = CARTESIAN_POINT('',(-5.034118486635,5.,-2.22044604925E-15));
#165 = VECTOR('',#166,1.);
#166 = DIRECTION('',(-1.,0.,0.));
#167 = ORIENTED_EDGE('',*,*,#168,.T.);
#168 = EDGE_CURVE('',#161,#169,#171,.T.);
#169 = VERTEX_POINT('',#170);
#170 = CARTESIAN_POINT('',(-6.834118486635,10.,-4.440892098501E-15));
#171 = LINE('',#172,#173);
#172 = CARTESIAN_POINT('',(-6.834118486635,5.,-2.22044604925E-15));
#173 = VECTOR('',#174,1.);
#174 = DIRECTION('',(0.,1.,-4.440892098501E-16));
#175 = ORIENTED_EDGE('',*,*,#176,.T.);
#176 = EDGE_CURVE('',#169,#177,#179,.T.);
#177 = VERTEX_POINT('',#178);
#178 = CARTESIAN_POINT('',(-7.834118486635,10.,-4.440892098501E-15));
#179 = LINE('',#180,#181);
#180 = CARTESIAN_POINT('',(-6.834118486635,10.,-4.440892098501E-15));
#181 = VECTOR('',#182,1.);
#182 = DIRECTION('',(-1.,0.,0.));
#183 = ORIENTED_EDGE('',*,*,#184,.T.);
#184 = EDGE_CURVE('',#177,#185,#187,.T.);
#185 = VERTEX_POINT('',#186);
#186 = CARTESIAN_POINT('',(-7.834118486635,5.,-2.22044604925E-15));
#187 = LINE('',#188,#189);
#188 = CARTESIAN_POINT('',(-7.834118486635,10.,-4.440892098501E-15));
#189 = VECTOR('',#190,1.);
#190 = DIRECTION('',(0.,-1.,4.440892098501E-16));
#191 = ORIENTED_EDGE('',*,*,#192,.T.);
#192 = EDGE_CURVE('',#185,#193,#195,.T.);
#193 = VERTEX_POINT('',#194);
#194 = CARTESIAN_POINT('',(-9.634118486635,5.,-2.22044604925E-15));
#195 = LINE('',#196,#197);
#196 = CARTESIAN_POINT('',(-7.834118486635,5.,-2.22044604925E-15));
#197 = VECTOR('',#198,1.);
#198 = DIRECTION('',(-1.,0.,0.));
#199 = ORIENTED_EDGE('',*,*,#200,.T.);
#200 = EDGE_CURVE('',#193,#62,#201,.T.);
#201 = LINE('',#202,#203);
#202 = CARTESIAN_POINT('',(-9.634118486635,5.,-2.22044604925E-15));
#203 = VECTOR('',#204,1.);
#204 = DIRECTION('',(0.,1.,-4.440892098501E-16));
#205 = ORIENTED_EDGE('',*,*,#78,.T.);
#206 = PLANE('',#207);
#207 = AXIS2_PLACEMENT_3D('',#208,#209,#210);
#208 = CARTESIAN_POINT('',(-7.334118486635,5.559440559441,
    -2.46888756525E-15));
#209 = DIRECTION('',(0.,-2.22044604925E-16,-1.));
#210 = DIRECTION('',(0.,1.,-2.22044604925E-16));
#211 = ADVANCED_FACE('',(#212),#287,.F.);
#212 = FACE_BOUND('',#213,.T.);
#213 = EDGE_LOOP('',(#214,#215,#216,#224,#232,#240,#248,#256,#264,#272,
    #280,#286));
#214 = ORIENTED_EDGE('',*,*,#31,.T.);
#215 = ORIENTED_EDGE('',*,*,#93,.T.);
#216 = ORIENTED_EDGE('',*,*,#217,.T.);
#217 = EDGE_CURVE('',#94,#218,#220,.T.);
#218 = VERTEX_POINT('',#219);
#219 = CARTESIAN_POINT('',(-3.034118486635,10.,145.));
#220 = LINE('',#221,#222);
#221 = CARTESIAN_POINT('',(-3.034118486635,6.439293542826E-14,145.));
#222 = VECTOR('',#223,1.);
#223 = DIRECTION('',(0.,1.,-4.440892098501E-16));
#224 = ORIENTED_EDGE('',*,*,#225,.T.);
#225 = EDGE_CURVE('',#218,#226,#228,.T.);
#226 = VERTEX_POINT('',#227);
#227 = CARTESIAN_POINT('',(-5.034118486635,10.,145.));
#228 = LINE('',#229,#230);
#229 = CARTESIAN_POINT('',(-3.034118486635,10.,145.));
#230 = VECTOR('',#231,1.);
#231 = DIRECTION('',(-1.,0.,0.));
#232 = ORIENTED_EDGE('',*,*,#233,.T.);
#233 = EDGE_CURVE('',#226,#234,#236,.T.);
#234 = VERTEX_POINT('',#235);
#235 = CARTESIAN_POINT('',(-5.034118486635,5.,145.));
#236 = LINE('',#237,#238);
#237 = CARTESIAN_POINT('',(-5.034118486635,10.,145.));
#238 = VECTOR('',#239,1.);
#239 = DIRECTION('',(0.,-1.,4.440892098501E-16));
#240 = ORIENTED_EDGE('',*,*,#241,.T.);
#241 = EDGE_CURVE('',#234,#242,#244,.T.);
#242 = VERTEX_POINT('',#243);
#243 = CARTESIAN_POINT('',(-6.834118486635,5.,145.));
#244 = LINE('',#245,#246);
#245 = CARTESIAN_POINT('',(-5.034118486635,5.,145.));
#246 = VECTOR('',#247,1.);
#247 = DIRECTION('',(-1.,0.,0.));
#248 = ORIENTED_EDGE('',*,*,#249,.T.);
#249 = EDGE_CURVE('',#242,#250,#252,.T.);
#250 = VERTEX_POINT('',#251);
#251 = CARTESIAN_POINT('',(-6.834118486635,10.,145.));
#252 = LINE('',#253,#254);
#253 = CARTESIAN_POINT('',(-6.834118486635,5.,145.));
#254 = VECTOR('',#255,1.);
#255 = DIRECTION('',(0.,1.,-4.440892098501E-16));
#256 = ORIENTED_EDGE('',*,*,#257,.T.);
#257 = EDGE_CURVE('',#250,#258,#260,.T.);
#258 = VERTEX_POINT('',#259);
#259 = CARTESIAN_POINT('',(-7.834118486635,10.,145.));
#260 = LINE('',#261,#262);
#261 = CARTESIAN_POINT('',(-6.834118486635,10.,145.));
#262 = VECTOR('',#263,1.);
#263 = DIRECTION('',(-1.,0.,0.));
#264 = ORIENTED_EDGE('',*,*,#265,.T.);
#265 = EDGE_CURVE('',#258,#266,#268,.T.);
#266 = VERTEX_POINT('',#267);
#267 = CARTESIAN_POINT('',(-7.834118486635,5.,145.));
#268 = LINE('',#269,#270);
#269 = CARTESIAN_POINT('',(-7.834118486635,10.,145.));
#270 = VECTOR('',#271,1.);
#271 = DIRECTION('',(0.,-1.,4.440892098501E-16));
#272 = ORIENTED_EDGE('',*,*,#273,.T.);
#273 = EDGE_CURVE('',#266,#274,#276,.T.);
#274 = VERTEX_POINT('',#275);
#275 = CARTESIAN_POINT('',(-9.634118486635,5.,145.));
#276 = LINE('',#277,#278);
#277 = CARTESIAN_POINT('',(-7.834118486635,5.,145.));
#278 = VECTOR('',#279,1.);
#279 = DIRECTION('',(-1.,0.,0.));
#280 = ORIENTED_EDGE('',*,*,#281,.T.);
#281 = EDGE_CURVE('',#274,#64,#282,.T.);
#282 = LINE('',#283,#284);
#283 = CARTESIAN_POINT('',(-9.634118486635,5.,145.));
#284 = VECTOR('',#285,1.);
#285 = DIRECTION('',(0.,1.,-4.440892098501E-16));
#286 = ORIENTED_EDGE('',*,*,#71,.T.);
#287 = PLANE('',#288);
#288 = AXIS2_PLACEMENT_3D('',#289,#290,#291);
#289 = CARTESIAN_POINT('',(-7.334118486635,5.559440559441,145.));
#290 = DIRECTION('',(0.,-2.22044604925E-16,-1.));
#291 = DIRECTION('',(0.,1.,-2.22044604925E-16));
#292 = ADVANCED_FACE('',(#293),#304,.F.);
#293 = FACE_BOUND('',#294,.F.);
#294 = EDGE_LOOP('',(#295,#301,#302,#303));
#295 = ORIENTED_EDGE('',*,*,#296,.T.);
#296 = EDGE_CURVE('',#193,#274,#297,.T.);
#297 = LINE('',#298,#299);
#298 = CARTESIAN_POINT('',(-9.634118486635,5.,-2.22044604925E-15));
#299 = VECTOR('',#300,1.);
#300 = DIRECTION('',(0.,4.440892098501E-16,1.));
#301 = ORIENTED_EDGE('',*,*,#281,.T.);
#302 = ORIENTED_EDGE('',*,*,#61,.F.);
#303 = ORIENTED_EDGE('',*,*,#200,.F.);
#304 = PLANE('',#305);
#305 = AXIS2_PLACEMENT_3D('',#306,#307,#308);
#306 = CARTESIAN_POINT('',(-9.634118486635,5.,-2.22044604925E-15));
#307 = DIRECTION('',(-1.,0.,0.));
#308 = DIRECTION('',(0.,1.,-4.440892098501E-16));
#309 = ADVANCED_FACE('',(#310),#321,.F.);
#310 = FACE_BOUND('',#311,.F.);
#311 = EDGE_LOOP('',(#312,#313,#314,#320));
#312 = ORIENTED_EDGE('',*,*,#101,.T.);
#313 = ORIENTED_EDGE('',*,*,#217,.T.);
#314 = ORIENTED_EDGE('',*,*,#315,.F.);
#315 = EDGE_CURVE('',#137,#218,#316,.T.);
#316 = LINE('',#317,#318);
#317 = CARTESIAN_POINT('',(-3.034118486635,10.,-4.440892098501E-15));
#318 = VECTOR('',#319,1.);
#319 = DIRECTION('',(0.,4.440892098501E-16,1.));
#320 = ORIENTED_EDGE('',*,*,#136,.F.);
#321 = PLANE('',#322);
#322 = AXIS2_PLACEMENT_3D('',#323,#324,#325);
#323 = CARTESIAN_POINT('',(-3.034118486635,0.,0.));
#324 = DIRECTION('',(-1.,0.,0.));
#325 = DIRECTION('',(0.,1.,-4.440892098501E-16));
#326 = ADVANCED_FACE('',(#327),#346,.F.);
#327 = FACE_BOUND('',#328,.F.);
#328 = EDGE_LOOP('',(#329,#337,#344,#345));
#329 = ORIENTED_EDGE('',*,*,#330,.T.);
#330 = EDGE_CURVE('',#118,#331,#333,.T.);
#331 = VERTEX_POINT('',#332);
#332 = CARTESIAN_POINT('',(-4.334118486635,3.,30.318865459925));
#333 = LINE('',#334,#335);
#334 = CARTESIAN_POINT('',(-4.334118486635,6.732140502824E-15,
    30.318865459925));
#335 = VECTOR('',#336,1.);
#336 = DIRECTION('',(0.,1.,-2.22044604925E-16));
#337 = ORIENTED_EDGE('',*,*,#338,.T.);
#338 = EDGE_CURVE('',#331,#331,#339,.T.);
#339 = CIRCLE('',#340,3.);
#340 = AXIS2_PLACEMENT_3D('',#341,#342,#343);
#341 = CARTESIAN_POINT('',(-7.334118486635,3.,30.318865459925));
#342 = DIRECTION('',(0.,-1.,2.22044604925E-16));
#343 = DIRECTION('',(1.,0.,0.));
#344 = ORIENTED_EDGE('',*,*,#330,.F.);
#345 = ORIENTED_EDGE('',*,*,#117,.F.);
#346 = CYLINDRICAL_SURFACE('',#347,3.);
#347 = AXIS2_PLACEMENT_3D('',#348,#349,#350);
#348 = CARTESIAN_POINT('',(-7.334118486635,6.732140502824E-15,
    30.318865459925));
#349 = DIRECTION('',(0.,-1.,2.22044604925E-16));
#350 = DIRECTION('',(1.,0.,0.));
#351 = ADVANCED_FACE('',(#352),#363,.F.);
#352 = FACE_BOUND('',#353,.F.);
#353 = EDGE_LOOP('',(#354,#355,#356,#362));
#354 = ORIENTED_EDGE('',*,*,#315,.T.);
#355 = ORIENTED_EDGE('',*,*,#225,.T.);
#356 = ORIENTED_EDGE('',*,*,#357,.F.);
#357 = EDGE_CURVE('',#145,#226,#358,.T.);
#358 = LINE('',#359,#360);
#359 = CARTESIAN_POINT('',(-5.034118486635,10.,-4.440892098501E-15));
#360 = VECTOR('',#361,1.);
#361 = DIRECTION('',(0.,4.440892098501E-16,1.));
#362 = ORIENTED_EDGE('',*,*,#144,.F.);
#363 = PLANE('',#364);
#364 = AXIS2_PLACEMENT_3D('',#365,#366,#367);
#365 = CARTESIAN_POINT('',(-3.034118486635,10.,-4.440892098501E-15));
#366 = DIRECTION('',(0.,-1.,4.440892098501E-16));
#367 = DIRECTION('',(-1.,0.,0.));
#368 = ADVANCED_FACE('',(#369),#380,.F.);
#369 = FACE_BOUND('',#370,.F.);
#370 = EDGE_LOOP('',(#371,#372,#373,#379));
#371 = ORIENTED_EDGE('',*,*,#357,.T.);
#372 = ORIENTED_EDGE('',*,*,#233,.T.);
#373 = ORIENTED_EDGE('',*,*,#374,.F.);
#374 = EDGE_CURVE('',#153,#234,#375,.T.);
#375 = LINE('',#376,#377);
#376 = CARTESIAN_POINT('',(-5.034118486635,5.,-2.22044604925E-15));
#377 = VECTOR('',#378,1.);
#378 = DIRECTION('',(0.,4.440892098501E-16,1.));
#379 = ORIENTED_EDGE('',*,*,#152,.F.);
#380 = PLANE('',#381);
#381 = AXIS2_PLACEMENT_3D('',#382,#383,#384);
#382 = CARTESIAN_POINT('',(-5.034118486635,10.,-4.440892098501E-15));
#383 = DIRECTION('',(1.,0.,0.));
#384 = DIRECTION('',(0.,-1.,4.440892098501E-16));
#385 = ADVANCED_FACE('',(#386),#423,.F.);
#386 = FACE_BOUND('',#387,.F.);
#387 = EDGE_LOOP('',(#388,#389,#390,#391,#399,#408,#417));
#388 = ORIENTED_EDGE('',*,*,#160,.F.);
#389 = ORIENTED_EDGE('',*,*,#374,.T.);
#390 = ORIENTED_EDGE('',*,*,#241,.T.);
#391 = ORIENTED_EDGE('',*,*,#392,.F.);
#392 = EDGE_CURVE('',#393,#242,#395,.T.);
#393 = VERTEX_POINT('',#394);
#394 = CARTESIAN_POINT('',(-6.834118486635,5.,31.733079022298));
#395 = LINE('',#396,#397);
#396 = CARTESIAN_POINT('',(-6.834118486635,5.,-2.22044604925E-15));
#397 = VECTOR('',#398,1.);
#398 = DIRECTION('',(0.,4.440892098501E-16,1.));
#399 = ORIENTED_EDGE('',*,*,#400,.F.);
#400 = EDGE_CURVE('',#401,#393,#403,.T.);
#401 = VERTEX_POINT('',#402);
#402 = CARTESIAN_POINT('',(-5.834118486635,5.,30.318865459925));
#403 = CIRCLE('',#404,1.5);
#404 = AXIS2_PLACEMENT_3D('',#405,#406,#407);
#405 = CARTESIAN_POINT('',(-7.334118486635,5.,30.318865459925));
#406 = DIRECTION('',(0.,-1.,2.22044604925E-16));
#407 = DIRECTION('',(1.,0.,0.));
#408 = ORIENTED_EDGE('',*,*,#409,.F.);
#409 = EDGE_CURVE('',#410,#401,#412,.T.);
#410 = VERTEX_POINT('',#411);
#411 = CARTESIAN_POINT('',(-6.834118486635,5.,28.904651897552));
#412 = CIRCLE('',#413,1.5);
#413 = AXIS2_PLACEMENT_3D('',#414,#415,#416);
#414 = CARTESIAN_POINT('',(-7.334118486635,5.,30.318865459925));
#415 = DIRECTION('',(0.,-1.,2.22044604925E-16));
#416 = DIRECTION('',(1.,0.,0.));
#417 = ORIENTED_EDGE('',*,*,#418,.F.);
#418 = EDGE_CURVE('',#161,#410,#419,.T.);
#419 = LINE('',#420,#421);
#420 = CARTESIAN_POINT('',(-6.834118486635,5.,-2.22044604925E-15));
#421 = VECTOR('',#422,1.);
#422 = DIRECTION('',(0.,4.440892098501E-16,1.));
#423 = PLANE('',#424);
#424 = AXIS2_PLACEMENT_3D('',#425,#426,#427);
#425 = CARTESIAN_POINT('',(-5.034118486635,5.,-2.22044604925E-15));
#426 = DIRECTION('',(0.,-1.,4.440892098501E-16));
#427 = DIRECTION('',(-1.,0.,0.));
#428 = ADVANCED_FACE('',(#429),#447,.F.);
#429 = FACE_BOUND('',#430,.F.);
#430 = EDGE_LOOP('',(#431,#432,#433,#441));
#431 = ORIENTED_EDGE('',*,*,#168,.F.);
#432 = ORIENTED_EDGE('',*,*,#418,.T.);
#433 = ORIENTED_EDGE('',*,*,#434,.F.);
#434 = EDGE_CURVE('',#435,#410,#437,.T.);
#435 = VERTEX_POINT('',#436);
#436 = CARTESIAN_POINT('',(-6.834118486635,10.,28.904651897552));
#437 = LINE('',#438,#439);
#438 = CARTESIAN_POINT('',(-6.834118486635,3.,28.904651897552));
#439 = VECTOR('',#440,1.);
#440 = DIRECTION('',(0.,-1.,2.22044604925E-16));
#441 = ORIENTED_EDGE('',*,*,#442,.F.);
#442 = EDGE_CURVE('',#169,#435,#443,.T.);
#443 = LINE('',#444,#445);
#444 = CARTESIAN_POINT('',(-6.834118486635,10.,-4.440892098501E-15));
#445 = VECTOR('',#446,1.);
#446 = DIRECTION('',(0.,4.440892098501E-16,1.));
#447 = PLANE('',#448);
#448 = AXIS2_PLACEMENT_3D('',#449,#450,#451);
#449 = CARTESIAN_POINT('',(-6.834118486635,5.,-2.22044604925E-15));
#450 = DIRECTION('',(-1.,0.,0.));
#451 = DIRECTION('',(0.,1.,-4.440892098501E-16));
#452 = ADVANCED_FACE('',(#453),#472,.F.);
#453 = FACE_BOUND('',#454,.F.);
#454 = EDGE_LOOP('',(#455,#456,#457,#466));
#455 = ORIENTED_EDGE('',*,*,#176,.F.);
#456 = ORIENTED_EDGE('',*,*,#442,.T.);
#457 = ORIENTED_EDGE('',*,*,#458,.F.);
#458 = EDGE_CURVE('',#459,#435,#461,.T.);
#459 = VERTEX_POINT('',#460);
#460 = CARTESIAN_POINT('',(-7.834118486635,10.,28.904651897552));
#461 = CIRCLE('',#462,1.5);
#462 = AXIS2_PLACEMENT_3D('',#463,#464,#465);
#463 = CARTESIAN_POINT('',(-7.334118486635,10.,30.318865459925));
#464 = DIRECTION('',(0.,-1.,2.22044604925E-16));
#465 = DIRECTION('',(1.,0.,0.));
#466 = ORIENTED_EDGE('',*,*,#467,.F.);
#467 = EDGE_CURVE('',#177,#459,#468,.T.);
#468 = LINE('',#469,#470);
#469 = CARTESIAN_POINT('',(-7.834118486635,10.,-4.440892098501E-15));
#470 = VECTOR('',#471,1.);
#471 = DIRECTION('',(0.,4.440892098501E-16,1.));
#472 = PLANE('',#473);
#473 = AXIS2_PLACEMENT_3D('',#474,#475,#476);
#474 = CARTESIAN_POINT('',(-6.834118486635,10.,-4.440892098501E-15));
#475 = DIRECTION('',(0.,-1.,4.440892098501E-16));
#476 = DIRECTION('',(-1.,0.,0.));
#477 = ADVANCED_FACE('',(#478),#496,.F.);
#478 = FACE_BOUND('',#479,.F.);
#479 = EDGE_LOOP('',(#480,#481,#482,#490));
#480 = ORIENTED_EDGE('',*,*,#184,.F.);
#481 = ORIENTED_EDGE('',*,*,#467,.T.);
#482 = ORIENTED_EDGE('',*,*,#483,.T.);
#483 = EDGE_CURVE('',#459,#484,#486,.T.);
#484 = VERTEX_POINT('',#485);
#485 = CARTESIAN_POINT('',(-7.834118486635,5.,28.904651897552));
#486 = LINE('',#487,#488);
#487 = CARTESIAN_POINT('',(-7.834118486635,3.,28.904651897552));
#488 = VECTOR('',#489,1.);
#489 = DIRECTION('',(0.,-1.,2.22044604925E-16));
#490 = ORIENTED_EDGE('',*,*,#491,.F.);
#491 = EDGE_CURVE('',#185,#484,#492,.T.);
#492 = LINE('',#493,#494);
#493 = CARTESIAN_POINT('',(-7.834118486635,5.,-2.22044604925E-15));
#494 = VECTOR('',#495,1.);
#495 = DIRECTION('',(0.,4.440892098501E-16,1.));
#496 = PLANE('',#497);
#497 = AXIS2_PLACEMENT_3D('',#498,#499,#500);
#498 = CARTESIAN_POINT('',(-7.834118486635,10.,-4.440892098501E-15));
#499 = DIRECTION('',(1.,0.,0.));
#500 = DIRECTION('',(0.,-1.,4.440892098501E-16));
#501 = ADVANCED_FACE('',(#502),#523,.F.);
#502 = FACE_BOUND('',#503,.F.);
#503 = EDGE_LOOP('',(#504,#505,#506,#515,#521,#522));
#504 = ORIENTED_EDGE('',*,*,#192,.F.);
#505 = ORIENTED_EDGE('',*,*,#491,.T.);
#506 = ORIENTED_EDGE('',*,*,#507,.F.);
#507 = EDGE_CURVE('',#508,#484,#510,.T.);
#508 = VERTEX_POINT('',#509);
#509 = CARTESIAN_POINT('',(-7.834118486635,5.,31.733079022298));
#510 = CIRCLE('',#511,1.5);
#511 = AXIS2_PLACEMENT_3D('',#512,#513,#514);
#512 = CARTESIAN_POINT('',(-7.334118486635,5.,30.318865459925));
#513 = DIRECTION('',(0.,-1.,2.22044604925E-16));
#514 = DIRECTION('',(1.,0.,0.));
#515 = ORIENTED_EDGE('',*,*,#516,.T.);
#516 = EDGE_CURVE('',#508,#266,#517,.T.);
#517 = LINE('',#518,#519);
#518 = CARTESIAN_POINT('',(-7.834118486635,5.,-2.22044604925E-15));
#519 = VECTOR('',#520,1.);
#520 = DIRECTION('',(0.,4.440892098501E-16,1.));
#521 = ORIENTED_EDGE('',*,*,#273,.T.);
#522 = ORIENTED_EDGE('',*,*,#296,.F.);
#523 = PLANE('',#524);
#524 = AXIS2_PLACEMENT_3D('',#525,#526,#527);
#525 = CARTESIAN_POINT('',(-7.834118486635,5.,-2.22044604925E-15));
#526 = DIRECTION('',(0.,-1.,4.440892098501E-16));
#527 = DIRECTION('',(-1.,0.,0.));
#528 = ADVANCED_FACE('',(#529),#547,.F.);
#529 = FACE_BOUND('',#530,.F.);
#530 = EDGE_LOOP('',(#531,#539,#540,#541));
#531 = ORIENTED_EDGE('',*,*,#532,.T.);
#532 = EDGE_CURVE('',#533,#393,#535,.T.);
#533 = VERTEX_POINT('',#534);
#534 = CARTESIAN_POINT('',(-6.834118486635,10.,31.733079022298));
#535 = LINE('',#536,#537);
#536 = CARTESIAN_POINT('',(-6.834118486635,3.,31.733079022298));
#537 = VECTOR('',#538,1.);
#538 = DIRECTION('',(0.,-1.,2.22044604925E-16));
#539 = ORIENTED_EDGE('',*,*,#392,.T.);
#540 = ORIENTED_EDGE('',*,*,#249,.T.);
#541 = ORIENTED_EDGE('',*,*,#542,.F.);
#542 = EDGE_CURVE('',#533,#250,#543,.T.);
#543 = LINE('',#544,#545);
#544 = CARTESIAN_POINT('',(-6.834118486635,10.,-4.440892098501E-15));
#545 = VECTOR('',#546,1.);
#546 = DIRECTION('',(0.,4.440892098501E-16,1.));
#547 = PLANE('',#548);
#548 = AXIS2_PLACEMENT_3D('',#549,#550,#551);
#549 = CARTESIAN_POINT('',(-6.834118486635,5.,-2.22044604925E-15));
#550 = DIRECTION('',(-1.,0.,0.));
#551 = DIRECTION('',(0.,1.,-4.440892098501E-16));
#552 = ADVANCED_FACE('',(#553),#572,.F.);
#553 = FACE_BOUND('',#554,.F.);
#554 = EDGE_LOOP('',(#555,#564,#565,#566));
#555 = ORIENTED_EDGE('',*,*,#556,.F.);
#556 = EDGE_CURVE('',#533,#557,#559,.T.);
#557 = VERTEX_POINT('',#558);
#558 = CARTESIAN_POINT('',(-7.834118486635,10.,31.733079022298));
#559 = CIRCLE('',#560,1.5);
#560 = AXIS2_PLACEMENT_3D('',#561,#562,#563);
#561 = CARTESIAN_POINT('',(-7.334118486635,10.,30.318865459925));
#562 = DIRECTION('',(0.,-1.,2.22044604925E-16));
#563 = DIRECTION('',(1.,0.,0.));
#564 = ORIENTED_EDGE('',*,*,#542,.T.);
#565 = ORIENTED_EDGE('',*,*,#257,.T.);
#566 = ORIENTED_EDGE('',*,*,#567,.F.);
#567 = EDGE_CURVE('',#557,#258,#568,.T.);
#568 = LINE('',#569,#570);
#569 = CARTESIAN_POINT('',(-7.834118486635,10.,-4.440892098501E-15));
#570 = VECTOR('',#571,1.);
#571 = DIRECTION('',(0.,4.440892098501E-16,1.));
#572 = PLANE('',#573);
#573 = AXIS2_PLACEMENT_3D('',#574,#575,#576);
#574 = CARTESIAN_POINT('',(-6.834118486635,10.,-4.440892098501E-15));
#575 = DIRECTION('',(0.,-1.,4.440892098501E-16));
#576 = DIRECTION('',(-1.,0.,0.));
#577 = ADVANCED_FACE('',(#578),#589,.F.);
#578 = FACE_BOUND('',#579,.F.);
#579 = EDGE_LOOP('',(#580,#586,#587,#588));
#580 = ORIENTED_EDGE('',*,*,#581,.F.);
#581 = EDGE_CURVE('',#557,#508,#582,.T.);
#582 = LINE('',#583,#584);
#583 = CARTESIAN_POINT('',(-7.834118486635,3.,31.733079022298));
#584 = VECTOR('',#585,1.);
#585 = DIRECTION('',(0.,-1.,2.22044604925E-16));
#586 = ORIENTED_EDGE('',*,*,#567,.T.);
#587 = ORIENTED_EDGE('',*,*,#265,.T.);
#588 = ORIENTED_EDGE('',*,*,#516,.F.);
#589 = PLANE('',#590);
#590 = AXIS2_PLACEMENT_3D('',#591,#592,#593);
#591 = CARTESIAN_POINT('',(-7.834118486635,10.,-4.440892098501E-15));
#592 = DIRECTION('',(1.,0.,0.));
#593 = DIRECTION('',(0.,-1.,4.440892098501E-16));
#594 = ADVANCED_FACE('',(#595,#598),#609,.F.);
#595 = FACE_BOUND('',#596,.F.);
#596 = EDGE_LOOP('',(#597));
#597 = ORIENTED_EDGE('',*,*,#338,.F.);
#598 = FACE_BOUND('',#599,.F.);
#599 = EDGE_LOOP('',(#600));
#600 = ORIENTED_EDGE('',*,*,#601,.T.);
#601 = EDGE_CURVE('',#602,#602,#604,.T.);
#602 = VERTEX_POINT('',#603);
#603 = CARTESIAN_POINT('',(-5.834118486635,3.,30.318865459925));
#604 = CIRCLE('',#605,1.5);
#605 = AXIS2_PLACEMENT_3D('',#606,#607,#608);
#606 = CARTESIAN_POINT('',(-7.334118486635,3.,30.318865459925));
#607 = DIRECTION('',(0.,-1.,2.22044604925E-16));
#608 = DIRECTION('',(1.,0.,0.));
#609 = PLANE('',#610);
#610 = AXIS2_PLACEMENT_3D('',#611,#612,#613);
#611 = CARTESIAN_POINT('',(-7.334118486635,3.,30.318865459925));
#612 = DIRECTION('',(0.,1.,-2.22044604925E-16));
#613 = DIRECTION('',(1.,0.,0.));
#614 = ADVANCED_FACE('',(#615),#634,.F.);
#615 = FACE_BOUND('',#616,.F.);
#616 = EDGE_LOOP('',(#617,#618,#624,#625,#626,#627,#628,#629,#630,#631,
    #632,#633));
#617 = ORIENTED_EDGE('',*,*,#601,.F.);
#618 = ORIENTED_EDGE('',*,*,#619,.T.);
#619 = EDGE_CURVE('',#602,#401,#620,.T.);
#620 = LINE('',#621,#622);
#621 = CARTESIAN_POINT('',(-5.834118486635,3.,30.318865459925));
#622 = VECTOR('',#623,1.);
#623 = DIRECTION('',(0.,1.,-2.22044604925E-16));
#624 = ORIENTED_EDGE('',*,*,#400,.T.);
#625 = ORIENTED_EDGE('',*,*,#532,.F.);
#626 = ORIENTED_EDGE('',*,*,#556,.T.);
#627 = ORIENTED_EDGE('',*,*,#581,.T.);
#628 = ORIENTED_EDGE('',*,*,#507,.T.);
#629 = ORIENTED_EDGE('',*,*,#483,.F.);
#630 = ORIENTED_EDGE('',*,*,#458,.T.);
#631 = ORIENTED_EDGE('',*,*,#434,.T.);
#632 = ORIENTED_EDGE('',*,*,#409,.T.);
#633 = ORIENTED_EDGE('',*,*,#619,.F.);
#634 = CYLINDRICAL_SURFACE('',#635,1.5);
#635 = AXIS2_PLACEMENT_3D('',#636,#637,#638);
#636 = CARTESIAN_POINT('',(-7.334118486635,3.,30.318865459925));
#637 = DIRECTION('',(0.,-1.,2.22044604925E-16));
#638 = DIRECTION('',(1.,0.,0.));
#639 = ( GEOMETRIC_REPRESENTATION_CONTEXT(3) 
GLOBAL_UNCERTAINTY_ASSIGNED_CONTEXT((#643)) GLOBAL_UNIT_ASSIGNED_CONTEXT
((#640,#641,#642)) REPRESENTATION_CONTEXT('Context #1',
  '3D Context with UNIT and UNCERTAINTY') );
#640 = ( LENGTH_UNIT() NAMED_UNIT(*) SI_UNIT(.MILLI.,.METRE.) );
#641 = ( NAMED_UNIT(*) PLANE_ANGLE_UNIT() SI_UNIT($,.RADIAN.) );
#642 = ( NAMED_UNIT(*) SI_UNIT($,.STERADIAN.) SOLID_ANGLE_UNIT() );
#643 = UNCERTAINTY_MEASURE_WITH_UNIT(LENGTH_MEASURE(1.E-07),#640,
  'distance_accuracy_value','confusion accuracy');
#644 = PRODUCT_RELATED_PRODUCT_CATEGORY('part',$,(#7));
#645 = MECHANICAL_DESIGN_GEOMETRIC_PRESENTATION_REPRESENTATION('',(#646)
  ,#639);
#646 = STYLED_ITEM('color',(#647),#15);
#647 = PRESENTATION_STYLE_ASSIGNMENT((#648,#654));
#648 = SURFACE_STYLE_USAGE(.BOTH.,#649);
#649 = SURFACE_SIDE_STYLE('',(#650));
#650 = SURFACE_STYLE_FILL_AREA(#651);
#651 = FILL_AREA_STYLE('',(#652));
#652 = FILL_AREA_STYLE_COLOUR('',#653);
#653 = COLOUR_RGB('',0.447059003357,0.474510015008,0.501960993452);
#654 = CURVE_STYLE('',#655,POSITIVE_LENGTH_MEASURE(0.1),#656);
#655 = DRAUGHTING_PRE_DEFINED_CURVE_FONT('continuous');
#656 = COLOUR_RGB('',9.803921802644E-02,9.803921802644E-02,
  9.803921802644E-02);
ENDSEC;
END-ISO-10303-21;
