ISO-10303-21;
HEADER;
FILE_DESCRIPTION(('FreeCAD Model'),'2;1');
FILE_NAME('Open CASCADE Shape Model','2026-02-23T17:43:01',('Author'),(
    ''),'Open CASCADE STEP processor 7.8','FreeCAD','Unknown');
FILE_SCHEMA(('AUTOMOTIVE_DESIGN { 1 0 10303 214 1 1 1 1 }'));
ENDSEC;
DATA;
#1 = APPLICATION_PROTOCOL_DEFINITION('international standard',
  'automotive_design',2000,#2);
#2 = APPLICATION_CONTEXT(
  'core data for automotive mechanical design processes');
#3 = SHAPE_DEFINITION_REPRESENTATION(#4,#10);
#4 = PRODUCT_DEFINITION_SHAPE('','',#5);
#5 = PRODUCT_DEFINITION('design','',#6,#9);
#6 = PRODUCT_DEFINITION_FORMATION('','',#7);
#7 = PRODUCT('HVcablePassage','HVcablePassage','',(#8));
#8 = PRODUCT_CONTEXT('',#2,'mechanical');
#9 = PRODUCT_DEFINITION_CONTEXT('part definition',#2,'design');
#10 = ADVANCED_BREP_SHAPE_REPRESENTATION('',(#11,#15),#1699);
#11 = AXIS2_PLACEMENT_3D('',#12,#13,#14);
#12 = CARTESIAN_POINT('',(0.,0.,0.));
#13 = DIRECTION('',(0.,0.,1.));
#14 = DIRECTION('',(1.,0.,-0.));
#15 = MANIFOLD_SOLID_BREP('',#16);
#16 = CLOSED_SHELL('',(#17,#310,#341,#365,#389,#413,#437,#461,#485,#513,
    #538,#563,#588,#613,#638,#663,#688,#713,#738,#763,#788,#813,#844,
    #868,#903,#920,#945,#970,#995,#1020,#1045,#1182,#1199,#1281,#1312,
    #1337,#1362,#1386,#1410,#1435,#1460,#1477,#1509,#1533,#1558,#1582,
    #1607,#1631,#1656,#1673));
#17 = ADVANCED_FACE('',(#18,#84,#95,#106,#117,#128,#139,#150,#161,#172,
    #183,#194,#205,#216,#250,#261,#272,#283,#294),#305,.F.);
#18 = FACE_BOUND('',#19,.F.);
#19 = EDGE_LOOP('',(#20,#30,#38,#46,#54,#62,#70,#78));
#20 = ORIENTED_EDGE('',*,*,#21,.T.);
#21 = EDGE_CURVE('',#22,#24,#26,.T.);
#22 = VERTEX_POINT('',#23);
#23 = CARTESIAN_POINT('',(95.,100.,0.));
#24 = VERTEX_POINT('',#25);
#25 = CARTESIAN_POINT('',(-95.,100.,0.));
#26 = LINE('',#27,#28);
#27 = CARTESIAN_POINT('',(100.,100.,0.));
#28 = VECTOR('',#29,1.);
#29 = DIRECTION('',(-1.,0.,0.));
#30 = ORIENTED_EDGE('',*,*,#31,.T.);
#31 = EDGE_CURVE('',#24,#32,#34,.T.);
#32 = VERTEX_POINT('',#33);
#33 = CARTESIAN_POINT('',(-100.,95.,0.));
#34 = LINE('',#35,#36);
#35 = CARTESIAN_POINT('',(-97.5,97.5,0.));
#36 = VECTOR('',#37,1.);
#37 = DIRECTION('',(-0.707106781187,-0.707106781187,0.));
#38 = ORIENTED_EDGE('',*,*,#39,.T.);
#39 = EDGE_CURVE('',#32,#40,#42,.T.);
#40 = VERTEX_POINT('',#41);
#41 = CARTESIAN_POINT('',(-100.,-95.,0.));
#42 = LINE('',#43,#44);
#43 = CARTESIAN_POINT('',(-100.,100.,0.));
#44 = VECTOR('',#45,1.);
#45 = DIRECTION('',(0.,-1.,0.));
#46 = ORIENTED_EDGE('',*,*,#47,.F.);
#47 = EDGE_CURVE('',#48,#40,#50,.T.);
#48 = VERTEX_POINT('',#49);
#49 = CARTESIAN_POINT('',(-95.,-100.,0.));
#50 = LINE('',#51,#52);
#51 = CARTESIAN_POINT('',(-97.5,-97.5,0.));
#52 = VECTOR('',#53,1.);
#53 = DIRECTION('',(-0.707106781187,0.707106781187,0.));
#54 = ORIENTED_EDGE('',*,*,#55,.T.);
#55 = EDGE_CURVE('',#48,#56,#58,.T.);
#56 = VERTEX_POINT('',#57);
#57 = CARTESIAN_POINT('',(95.,-100.,0.));
#58 = LINE('',#59,#60);
#59 = CARTESIAN_POINT('',(-100.,-100.,0.));
#60 = VECTOR('',#61,1.);
#61 = DIRECTION('',(1.,0.,0.));
#62 = ORIENTED_EDGE('',*,*,#63,.T.);
#63 = EDGE_CURVE('',#56,#64,#66,.T.);
#64 = VERTEX_POINT('',#65);
#65 = CARTESIAN_POINT('',(100.,-95.,0.));
#66 = LINE('',#67,#68);
#67 = CARTESIAN_POINT('',(97.5,-97.5,0.));
#68 = VECTOR('',#69,1.);
#69 = DIRECTION('',(0.707106781187,0.707106781187,0.));
#70 = ORIENTED_EDGE('',*,*,#71,.T.);
#71 = EDGE_CURVE('',#64,#72,#74,.T.);
#72 = VERTEX_POINT('',#73);
#73 = CARTESIAN_POINT('',(100.,95.,0.));
#74 = LINE('',#75,#76);
#75 = CARTESIAN_POINT('',(100.,-100.,0.));
#76 = VECTOR('',#77,1.);
#77 = DIRECTION('',(0.,1.,0.));
#78 = ORIENTED_EDGE('',*,*,#79,.T.);
#79 = EDGE_CURVE('',#72,#22,#80,.T.);
#80 = LINE('',#81,#82);
#81 = CARTESIAN_POINT('',(97.5,97.5,0.));
#82 = VECTOR('',#83,1.);
#83 = DIRECTION('',(-0.707106781187,0.707106781187,0.));
#84 = FACE_BOUND('',#85,.F.);
#85 = EDGE_LOOP('',(#86));
#86 = ORIENTED_EDGE('',*,*,#87,.T.);
#87 = EDGE_CURVE('',#88,#88,#90,.T.);
#88 = VERTEX_POINT('',#89);
#89 = CARTESIAN_POINT('',(-92.75,-90.,0.));
#90 = CIRCLE('',#91,2.75);
#91 = AXIS2_PLACEMENT_3D('',#92,#93,#94);
#92 = CARTESIAN_POINT('',(-90.,-90.,0.));
#93 = DIRECTION('',(0.,0.,-1.));
#94 = DIRECTION('',(-1.,0.,0.));
#95 = FACE_BOUND('',#96,.F.);
#96 = EDGE_LOOP('',(#97));
#97 = ORIENTED_EDGE('',*,*,#98,.T.);
#98 = EDGE_CURVE('',#99,#99,#101,.T.);
#99 = VERTEX_POINT('',#100);
#100 = CARTESIAN_POINT('',(-57.75,-90.,0.));
#101 = CIRCLE('',#102,2.75);
#102 = AXIS2_PLACEMENT_3D('',#103,#104,#105);
#103 = CARTESIAN_POINT('',(-55.,-90.,0.));
#104 = DIRECTION('',(0.,0.,-1.));
#105 = DIRECTION('',(-1.,0.,0.));
#106 = FACE_BOUND('',#107,.F.);
#107 = EDGE_LOOP('',(#108));
#108 = ORIENTED_EDGE('',*,*,#109,.T.);
#109 = EDGE_CURVE('',#110,#110,#112,.T.);
#110 = VERTEX_POINT('',#111);
#111 = CARTESIAN_POINT('',(-13.25,-90.,0.));
#112 = CIRCLE('',#113,2.75);
#113 = AXIS2_PLACEMENT_3D('',#114,#115,#116);
#114 = CARTESIAN_POINT('',(-10.5,-90.,0.));
#115 = DIRECTION('',(0.,0.,-1.));
#116 = DIRECTION('',(-1.,0.,0.));
#117 = FACE_BOUND('',#118,.F.);
#118 = EDGE_LOOP('',(#119));
#119 = ORIENTED_EDGE('',*,*,#120,.T.);
#120 = EDGE_CURVE('',#121,#121,#123,.T.);
#121 = VERTEX_POINT('',#122);
#122 = CARTESIAN_POINT('',(-92.75,-45.,0.));
#123 = CIRCLE('',#124,2.75);
#124 = AXIS2_PLACEMENT_3D('',#125,#126,#127);
#125 = CARTESIAN_POINT('',(-90.,-45.,0.));
#126 = DIRECTION('',(0.,0.,-1.));
#127 = DIRECTION('',(-1.,0.,0.));
#128 = FACE_BOUND('',#129,.F.);
#129 = EDGE_LOOP('',(#130));
#130 = ORIENTED_EDGE('',*,*,#131,.T.);
#131 = EDGE_CURVE('',#132,#132,#134,.T.);
#132 = VERTEX_POINT('',#133);
#133 = CARTESIAN_POINT('',(7.75,-90.,0.));
#134 = CIRCLE('',#135,2.75);
#135 = AXIS2_PLACEMENT_3D('',#136,#137,#138);
#136 = CARTESIAN_POINT('',(10.5,-90.,0.));
#137 = DIRECTION('',(0.,0.,-1.));
#138 = DIRECTION('',(-1.,0.,0.));
#139 = FACE_BOUND('',#140,.F.);
#140 = EDGE_LOOP('',(#141));
#141 = ORIENTED_EDGE('',*,*,#142,.T.);
#142 = EDGE_CURVE('',#143,#143,#145,.T.);
#143 = VERTEX_POINT('',#144);
#144 = CARTESIAN_POINT('',(52.25,-90.,0.));
#145 = CIRCLE('',#146,2.75);
#146 = AXIS2_PLACEMENT_3D('',#147,#148,#149);
#147 = CARTESIAN_POINT('',(55.,-90.,0.));
#148 = DIRECTION('',(0.,0.,-1.));
#149 = DIRECTION('',(-1.,0.,0.));
#150 = FACE_BOUND('',#151,.F.);
#151 = EDGE_LOOP('',(#152));
#152 = ORIENTED_EDGE('',*,*,#153,.T.);
#153 = EDGE_CURVE('',#154,#154,#156,.T.);
#154 = VERTEX_POINT('',#155);
#155 = CARTESIAN_POINT('',(87.25,-90.,0.));
#156 = CIRCLE('',#157,2.75);
#157 = AXIS2_PLACEMENT_3D('',#158,#159,#160);
#158 = CARTESIAN_POINT('',(90.,-90.,0.));
#159 = DIRECTION('',(0.,0.,-1.));
#160 = DIRECTION('',(-1.,0.,0.));
#161 = FACE_BOUND('',#162,.F.);
#162 = EDGE_LOOP('',(#163));
#163 = ORIENTED_EDGE('',*,*,#164,.T.);
#164 = EDGE_CURVE('',#165,#165,#167,.T.);
#165 = VERTEX_POINT('',#166);
#166 = CARTESIAN_POINT('',(87.25,-45.,0.));
#167 = CIRCLE('',#168,2.75);
#168 = AXIS2_PLACEMENT_3D('',#169,#170,#171);
#169 = CARTESIAN_POINT('',(90.,-45.,0.));
#170 = DIRECTION('',(0.,0.,-1.));
#171 = DIRECTION('',(-1.,0.,0.));
#172 = FACE_BOUND('',#173,.F.);
#173 = EDGE_LOOP('',(#174));
#174 = ORIENTED_EDGE('',*,*,#175,.T.);
#175 = EDGE_CURVE('',#176,#176,#178,.T.);
#176 = VERTEX_POINT('',#177);
#177 = CARTESIAN_POINT('',(-92.75,0.,0.));
#178 = CIRCLE('',#179,2.75);
#179 = AXIS2_PLACEMENT_3D('',#180,#181,#182);
#180 = CARTESIAN_POINT('',(-90.,0.,0.));
#181 = DIRECTION('',(0.,0.,-1.));
#182 = DIRECTION('',(-1.,0.,0.));
#183 = FACE_BOUND('',#184,.F.);
#184 = EDGE_LOOP('',(#185));
#185 = ORIENTED_EDGE('',*,*,#186,.T.);
#186 = EDGE_CURVE('',#187,#187,#189,.T.);
#187 = VERTEX_POINT('',#188);
#188 = CARTESIAN_POINT('',(-92.75,45.,0.));
#189 = CIRCLE('',#190,2.75);
#190 = AXIS2_PLACEMENT_3D('',#191,#192,#193);
#191 = CARTESIAN_POINT('',(-90.,45.,0.));
#192 = DIRECTION('',(0.,0.,-1.));
#193 = DIRECTION('',(-1.,0.,0.));
#194 = FACE_BOUND('',#195,.F.);
#195 = EDGE_LOOP('',(#196));
#196 = ORIENTED_EDGE('',*,*,#197,.T.);
#197 = EDGE_CURVE('',#198,#198,#200,.T.);
#198 = VERTEX_POINT('',#199);
#199 = CARTESIAN_POINT('',(-92.75,90.,0.));
#200 = CIRCLE('',#201,2.75);
#201 = AXIS2_PLACEMENT_3D('',#202,#203,#204);
#202 = CARTESIAN_POINT('',(-90.,90.,0.));
#203 = DIRECTION('',(0.,0.,-1.));
#204 = DIRECTION('',(-1.,0.,0.));
#205 = FACE_BOUND('',#206,.F.);
#206 = EDGE_LOOP('',(#207));
#207 = ORIENTED_EDGE('',*,*,#208,.T.);
#208 = EDGE_CURVE('',#209,#209,#211,.T.);
#209 = VERTEX_POINT('',#210);
#210 = CARTESIAN_POINT('',(-47.75,90.,0.));
#211 = CIRCLE('',#212,2.75);
#212 = AXIS2_PLACEMENT_3D('',#213,#214,#215);
#213 = CARTESIAN_POINT('',(-45.,90.,0.));
#214 = DIRECTION('',(0.,0.,-1.));
#215 = DIRECTION('',(-1.,0.,0.));
#216 = FACE_BOUND('',#217,.F.);
#217 = EDGE_LOOP('',(#218,#228,#236,#244));
#218 = ORIENTED_EDGE('',*,*,#219,.F.);
#219 = EDGE_CURVE('',#220,#222,#224,.T.);
#220 = VERTEX_POINT('',#221);
#221 = CARTESIAN_POINT('',(-62.5,62.5,0.));
#222 = VERTEX_POINT('',#223);
#223 = CARTESIAN_POINT('',(-62.5,-62.5,0.));
#224 = LINE('',#225,#226);
#225 = CARTESIAN_POINT('',(-62.5,62.5,0.));
#226 = VECTOR('',#227,1.);
#227 = DIRECTION('',(0.,-1.,0.));
#228 = ORIENTED_EDGE('',*,*,#229,.F.);
#229 = EDGE_CURVE('',#230,#220,#232,.T.);
#230 = VERTEX_POINT('',#231);
#231 = CARTESIAN_POINT('',(62.5,62.5,0.));
#232 = LINE('',#233,#234);
#233 = CARTESIAN_POINT('',(62.5,62.5,0.));
#234 = VECTOR('',#235,1.);
#235 = DIRECTION('',(-1.,0.,0.));
#236 = ORIENTED_EDGE('',*,*,#237,.F.);
#237 = EDGE_CURVE('',#238,#230,#240,.T.);
#238 = VERTEX_POINT('',#239);
#239 = CARTESIAN_POINT('',(62.5,-62.5,0.));
#240 = LINE('',#241,#242);
#241 = CARTESIAN_POINT('',(62.5,-62.5,0.));
#242 = VECTOR('',#243,1.);
#243 = DIRECTION('',(0.,1.,0.));
#244 = ORIENTED_EDGE('',*,*,#245,.F.);
#245 = EDGE_CURVE('',#222,#238,#246,.T.);
#246 = LINE('',#247,#248);
#247 = CARTESIAN_POINT('',(-62.5,-62.5,0.));
#248 = VECTOR('',#249,1.);
#249 = DIRECTION('',(1.,0.,0.));
#250 = FACE_BOUND('',#251,.F.);
#251 = EDGE_LOOP('',(#252));
#252 = ORIENTED_EDGE('',*,*,#253,.T.);
#253 = EDGE_CURVE('',#254,#254,#256,.T.);
#254 = VERTEX_POINT('',#255);
#255 = CARTESIAN_POINT('',(87.25,0.,0.));
#256 = CIRCLE('',#257,2.75);
#257 = AXIS2_PLACEMENT_3D('',#258,#259,#260);
#258 = CARTESIAN_POINT('',(90.,0.,0.));
#259 = DIRECTION('',(0.,0.,-1.));
#260 = DIRECTION('',(-1.,0.,0.));
#261 = FACE_BOUND('',#262,.F.);
#262 = EDGE_LOOP('',(#263));
#263 = ORIENTED_EDGE('',*,*,#264,.T.);
#264 = EDGE_CURVE('',#265,#265,#267,.T.);
#265 = VERTEX_POINT('',#266);
#266 = CARTESIAN_POINT('',(87.25,45.,0.));
#267 = CIRCLE('',#268,2.75);
#268 = AXIS2_PLACEMENT_3D('',#269,#270,#271);
#269 = CARTESIAN_POINT('',(90.,45.,0.));
#270 = DIRECTION('',(0.,0.,-1.));
#271 = DIRECTION('',(-1.,0.,0.));
#272 = FACE_BOUND('',#273,.F.);
#273 = EDGE_LOOP('',(#274));
#274 = ORIENTED_EDGE('',*,*,#275,.T.);
#275 = EDGE_CURVE('',#276,#276,#278,.T.);
#276 = VERTEX_POINT('',#277);
#277 = CARTESIAN_POINT('',(-2.75,90.,0.));
#278 = CIRCLE('',#279,2.75);
#279 = AXIS2_PLACEMENT_3D('',#280,#281,#282);
#280 = CARTESIAN_POINT('',(0.,90.,0.));
#281 = DIRECTION('',(0.,0.,-1.));
#282 = DIRECTION('',(-1.,0.,0.));
#283 = FACE_BOUND('',#284,.F.);
#284 = EDGE_LOOP('',(#285));
#285 = ORIENTED_EDGE('',*,*,#286,.T.);
#286 = EDGE_CURVE('',#287,#287,#289,.T.);
#287 = VERTEX_POINT('',#288);
#288 = CARTESIAN_POINT('',(42.25,90.,0.));
#289 = CIRCLE('',#290,2.75);
#290 = AXIS2_PLACEMENT_3D('',#291,#292,#293);
#291 = CARTESIAN_POINT('',(45.,90.,0.));
#292 = DIRECTION('',(0.,0.,-1.));
#293 = DIRECTION('',(-1.,0.,0.));
#294 = FACE_BOUND('',#295,.F.);
#295 = EDGE_LOOP('',(#296));
#296 = ORIENTED_EDGE('',*,*,#297,.T.);
#297 = EDGE_CURVE('',#298,#298,#300,.T.);
#298 = VERTEX_POINT('',#299);
#299 = CARTESIAN_POINT('',(87.25,90.,0.));
#300 = CIRCLE('',#301,2.75);
#301 = AXIS2_PLACEMENT_3D('',#302,#303,#304);
#302 = CARTESIAN_POINT('',(90.,90.,0.));
#303 = DIRECTION('',(0.,0.,-1.));
#304 = DIRECTION('',(-1.,0.,0.));
#305 = PLANE('',#306);
#306 = AXIS2_PLACEMENT_3D('',#307,#308,#309);
#307 = CARTESIAN_POINT('',(0.,0.,0.));
#308 = DIRECTION('',(0.,0.,1.));
#309 = DIRECTION('',(1.,0.,0.));
#310 = ADVANCED_FACE('',(#311),#336,.F.);
#311 = FACE_BOUND('',#312,.F.);
#312 = EDGE_LOOP('',(#313,#314,#322,#330));
#313 = ORIENTED_EDGE('',*,*,#21,.F.);
#314 = ORIENTED_EDGE('',*,*,#315,.T.);
#315 = EDGE_CURVE('',#22,#316,#318,.T.);
#316 = VERTEX_POINT('',#317);
#317 = CARTESIAN_POINT('',(95.,100.,25.));
#318 = LINE('',#319,#320);
#319 = CARTESIAN_POINT('',(95.,100.,0.));
#320 = VECTOR('',#321,1.);
#321 = DIRECTION('',(0.,0.,1.));
#322 = ORIENTED_EDGE('',*,*,#323,.T.);
#323 = EDGE_CURVE('',#316,#324,#326,.T.);
#324 = VERTEX_POINT('',#325);
#325 = CARTESIAN_POINT('',(-95.,100.,25.));
#326 = LINE('',#327,#328);
#327 = CARTESIAN_POINT('',(100.,100.,25.));
#328 = VECTOR('',#329,1.);
#329 = DIRECTION('',(-1.,0.,0.));
#330 = ORIENTED_EDGE('',*,*,#331,.F.);
#331 = EDGE_CURVE('',#24,#324,#332,.T.);
#332 = LINE('',#333,#334);
#333 = CARTESIAN_POINT('',(-95.,100.,0.));
#334 = VECTOR('',#335,1.);
#335 = DIRECTION('',(0.,0.,1.));
#336 = PLANE('',#337);
#337 = AXIS2_PLACEMENT_3D('',#338,#339,#340);
#338 = CARTESIAN_POINT('',(100.,100.,0.));
#339 = DIRECTION('',(0.,-1.,0.));
#340 = DIRECTION('',(-1.,0.,0.));
#341 = ADVANCED_FACE('',(#342),#360,.T.);
#342 = FACE_BOUND('',#343,.F.);
#343 = EDGE_LOOP('',(#344,#345,#346,#354));
#344 = ORIENTED_EDGE('',*,*,#31,.F.);
#345 = ORIENTED_EDGE('',*,*,#331,.T.);
#346 = ORIENTED_EDGE('',*,*,#347,.T.);
#347 = EDGE_CURVE('',#324,#348,#350,.T.);
#348 = VERTEX_POINT('',#349);
#349 = CARTESIAN_POINT('',(-100.,95.,25.));
#350 = LINE('',#351,#352);
#351 = CARTESIAN_POINT('',(-97.5,97.5,25.));
#352 = VECTOR('',#353,1.);
#353 = DIRECTION('',(-0.707106781187,-0.707106781187,0.));
#354 = ORIENTED_EDGE('',*,*,#355,.F.);
#355 = EDGE_CURVE('',#32,#348,#356,.T.);
#356 = LINE('',#357,#358);
#357 = CARTESIAN_POINT('',(-100.,95.,0.));
#358 = VECTOR('',#359,1.);
#359 = DIRECTION('',(0.,0.,1.));
#360 = PLANE('',#361);
#361 = AXIS2_PLACEMENT_3D('',#362,#363,#364);
#362 = CARTESIAN_POINT('',(-97.5,97.5,0.));
#363 = DIRECTION('',(-0.707106781187,0.707106781187,-1.E-17));
#364 = DIRECTION('',(7.071067811865E-18,-7.071067811865E-18,-1.));
#365 = ADVANCED_FACE('',(#366),#384,.T.);
#366 = FACE_BOUND('',#367,.F.);
#367 = EDGE_LOOP('',(#368,#369,#377,#383));
#368 = ORIENTED_EDGE('',*,*,#79,.F.);
#369 = ORIENTED_EDGE('',*,*,#370,.T.);
#370 = EDGE_CURVE('',#72,#371,#373,.T.);
#371 = VERTEX_POINT('',#372);
#372 = CARTESIAN_POINT('',(100.,95.,25.));
#373 = LINE('',#374,#375);
#374 = CARTESIAN_POINT('',(100.,95.,0.));
#375 = VECTOR('',#376,1.);
#376 = DIRECTION('',(0.,0.,1.));
#377 = ORIENTED_EDGE('',*,*,#378,.T.);
#378 = EDGE_CURVE('',#371,#316,#379,.T.);
#379 = LINE('',#380,#381);
#380 = CARTESIAN_POINT('',(97.5,97.5,25.));
#381 = VECTOR('',#382,1.);
#382 = DIRECTION('',(-0.707106781187,0.707106781187,0.));
#383 = ORIENTED_EDGE('',*,*,#315,.F.);
#384 = PLANE('',#385);
#385 = AXIS2_PLACEMENT_3D('',#386,#387,#388);
#386 = CARTESIAN_POINT('',(97.5,97.5,0.));
#387 = DIRECTION('',(0.707106781187,0.707106781187,1.E-17));
#388 = DIRECTION('',(7.071067811865E-18,7.071067811865E-18,-1.));
#389 = ADVANCED_FACE('',(#390),#408,.F.);
#390 = FACE_BOUND('',#391,.F.);
#391 = EDGE_LOOP('',(#392,#393,#394,#402));
#392 = ORIENTED_EDGE('',*,*,#39,.F.);
#393 = ORIENTED_EDGE('',*,*,#355,.T.);
#394 = ORIENTED_EDGE('',*,*,#395,.T.);
#395 = EDGE_CURVE('',#348,#396,#398,.T.);
#396 = VERTEX_POINT('',#397);
#397 = CARTESIAN_POINT('',(-100.,-95.,25.));
#398 = LINE('',#399,#400);
#399 = CARTESIAN_POINT('',(-100.,100.,25.));
#400 = VECTOR('',#401,1.);
#401 = DIRECTION('',(0.,-1.,0.));
#402 = ORIENTED_EDGE('',*,*,#403,.F.);
#403 = EDGE_CURVE('',#40,#396,#404,.T.);
#404 = LINE('',#405,#406);
#405 = CARTESIAN_POINT('',(-100.,-95.,0.));
#406 = VECTOR('',#407,1.);
#407 = DIRECTION('',(0.,0.,1.));
#408 = PLANE('',#409);
#409 = AXIS2_PLACEMENT_3D('',#410,#411,#412);
#410 = CARTESIAN_POINT('',(-100.,100.,0.));
#411 = DIRECTION('',(1.,0.,0.));
#412 = DIRECTION('',(0.,-1.,0.));
#413 = ADVANCED_FACE('',(#414),#432,.F.);
#414 = FACE_BOUND('',#415,.F.);
#415 = EDGE_LOOP('',(#416,#417,#425,#431));
#416 = ORIENTED_EDGE('',*,*,#71,.F.);
#417 = ORIENTED_EDGE('',*,*,#418,.T.);
#418 = EDGE_CURVE('',#64,#419,#421,.T.);
#419 = VERTEX_POINT('',#420);
#420 = CARTESIAN_POINT('',(100.,-95.,25.));
#421 = LINE('',#422,#423);
#422 = CARTESIAN_POINT('',(100.,-95.,0.));
#423 = VECTOR('',#424,1.);
#424 = DIRECTION('',(0.,0.,1.));
#425 = ORIENTED_EDGE('',*,*,#426,.T.);
#426 = EDGE_CURVE('',#419,#371,#427,.T.);
#427 = LINE('',#428,#429);
#428 = CARTESIAN_POINT('',(100.,-100.,25.));
#429 = VECTOR('',#430,1.);
#430 = DIRECTION('',(0.,1.,0.));
#431 = ORIENTED_EDGE('',*,*,#370,.F.);
#432 = PLANE('',#433);
#433 = AXIS2_PLACEMENT_3D('',#434,#435,#436);
#434 = CARTESIAN_POINT('',(100.,-100.,0.));
#435 = DIRECTION('',(-1.,0.,0.));
#436 = DIRECTION('',(0.,1.,0.));
#437 = ADVANCED_FACE('',(#438),#456,.T.);
#438 = FACE_BOUND('',#439,.T.);
#439 = EDGE_LOOP('',(#440,#441,#449,#455));
#440 = ORIENTED_EDGE('',*,*,#47,.F.);
#441 = ORIENTED_EDGE('',*,*,#442,.T.);
#442 = EDGE_CURVE('',#48,#443,#445,.T.);
#443 = VERTEX_POINT('',#444);
#444 = CARTESIAN_POINT('',(-95.,-100.,25.));
#445 = LINE('',#446,#447);
#446 = CARTESIAN_POINT('',(-95.,-100.,0.));
#447 = VECTOR('',#448,1.);
#448 = DIRECTION('',(0.,0.,1.));
#449 = ORIENTED_EDGE('',*,*,#450,.T.);
#450 = EDGE_CURVE('',#443,#396,#451,.T.);
#451 = LINE('',#452,#453);
#452 = CARTESIAN_POINT('',(-97.5,-97.5,25.));
#453 = VECTOR('',#454,1.);
#454 = DIRECTION('',(-0.707106781187,0.707106781187,0.));
#455 = ORIENTED_EDGE('',*,*,#403,.F.);
#456 = PLANE('',#457);
#457 = AXIS2_PLACEMENT_3D('',#458,#459,#460);
#458 = CARTESIAN_POINT('',(-97.5,-97.5,0.));
#459 = DIRECTION('',(-0.707106781187,-0.707106781187,1.E-17));
#460 = DIRECTION('',(7.071067811865E-18,7.071067811865E-18,1.));
#461 = ADVANCED_FACE('',(#462),#480,.T.);
#462 = FACE_BOUND('',#463,.F.);
#463 = EDGE_LOOP('',(#464,#465,#473,#479));
#464 = ORIENTED_EDGE('',*,*,#63,.F.);
#465 = ORIENTED_EDGE('',*,*,#466,.T.);
#466 = EDGE_CURVE('',#56,#467,#469,.T.);
#467 = VERTEX_POINT('',#468);
#468 = CARTESIAN_POINT('',(95.,-100.,25.));
#469 = LINE('',#470,#471);
#470 = CARTESIAN_POINT('',(95.,-100.,0.));
#471 = VECTOR('',#472,1.);
#472 = DIRECTION('',(0.,0.,1.));
#473 = ORIENTED_EDGE('',*,*,#474,.T.);
#474 = EDGE_CURVE('',#467,#419,#475,.T.);
#475 = LINE('',#476,#477);
#476 = CARTESIAN_POINT('',(97.5,-97.5,25.));
#477 = VECTOR('',#478,1.);
#478 = DIRECTION('',(0.707106781187,0.707106781187,0.));
#479 = ORIENTED_EDGE('',*,*,#418,.F.);
#480 = PLANE('',#481);
#481 = AXIS2_PLACEMENT_3D('',#482,#483,#484);
#482 = CARTESIAN_POINT('',(97.5,-97.5,0.));
#483 = DIRECTION('',(0.707106781187,-0.707106781187,-1.E-17));
#484 = DIRECTION('',(-7.071067811865E-18,7.071067811865E-18,-1.));
#485 = ADVANCED_FACE('',(#486,#497),#508,.F.);
#486 = FACE_BOUND('',#487,.F.);
#487 = EDGE_LOOP('',(#488,#489,#490,#496));
#488 = ORIENTED_EDGE('',*,*,#55,.F.);
#489 = ORIENTED_EDGE('',*,*,#442,.T.);
#490 = ORIENTED_EDGE('',*,*,#491,.T.);
#491 = EDGE_CURVE('',#443,#467,#492,.T.);
#492 = LINE('',#493,#494);
#493 = CARTESIAN_POINT('',(-100.,-100.,25.));
#494 = VECTOR('',#495,1.);
#495 = DIRECTION('',(1.,0.,0.));
#496 = ORIENTED_EDGE('',*,*,#466,.F.);
#497 = FACE_BOUND('',#498,.F.);
#498 = EDGE_LOOP('',(#499));
#499 = ORIENTED_EDGE('',*,*,#500,.T.);
#500 = EDGE_CURVE('',#501,#501,#503,.T.);
#501 = VERTEX_POINT('',#502);
#502 = CARTESIAN_POINT('',(-34.5,-100.,12.5));
#503 = CIRCLE('',#504,2.5);
#504 = AXIS2_PLACEMENT_3D('',#505,#506,#507);
#505 = CARTESIAN_POINT('',(-37.,-100.,12.5));
#506 = DIRECTION('',(0.,-1.,0.));
#507 = DIRECTION('',(1.,0.,0.));
#508 = PLANE('',#509);
#509 = AXIS2_PLACEMENT_3D('',#510,#511,#512);
#510 = CARTESIAN_POINT('',(-100.,-100.,0.));
#511 = DIRECTION('',(0.,1.,0.));
#512 = DIRECTION('',(1.,0.,0.));
#513 = ADVANCED_FACE('',(#514),#533,.F.);
#514 = FACE_BOUND('',#515,.T.);
#515 = EDGE_LOOP('',(#516,#524,#525,#526));
#516 = ORIENTED_EDGE('',*,*,#517,.F.);
#517 = EDGE_CURVE('',#88,#518,#520,.T.);
#518 = VERTEX_POINT('',#519);
#519 = CARTESIAN_POINT('',(-92.75,-90.,25.));
#520 = LINE('',#521,#522);
#521 = CARTESIAN_POINT('',(-92.75,-90.,0.));
#522 = VECTOR('',#523,1.);
#523 = DIRECTION('',(6.E-17,0.,1.));
#524 = ORIENTED_EDGE('',*,*,#87,.T.);
#525 = ORIENTED_EDGE('',*,*,#517,.T.);
#526 = ORIENTED_EDGE('',*,*,#527,.T.);
#527 = EDGE_CURVE('',#518,#518,#528,.T.);
#528 = CIRCLE('',#529,2.75);
#529 = AXIS2_PLACEMENT_3D('',#530,#531,#532);
#530 = CARTESIAN_POINT('',(-90.,-90.,25.));
#531 = DIRECTION('',(0.,0.,1.));
#532 = DIRECTION('',(-1.,0.,0.));
#533 = CYLINDRICAL_SURFACE('',#534,2.75);
#534 = AXIS2_PLACEMENT_3D('',#535,#536,#537);
#535 = CARTESIAN_POINT('',(-90.,-90.,0.));
#536 = DIRECTION('',(0.,0.,1.));
#537 = DIRECTION('',(-1.,0.,0.));
#538 = ADVANCED_FACE('',(#539),#558,.F.);
#539 = FACE_BOUND('',#540,.T.);
#540 = EDGE_LOOP('',(#541,#549,#550,#551));
#541 = ORIENTED_EDGE('',*,*,#542,.F.);
#542 = EDGE_CURVE('',#99,#543,#545,.T.);
#543 = VERTEX_POINT('',#544);
#544 = CARTESIAN_POINT('',(-57.75,-90.,25.));
#545 = LINE('',#546,#547);
#546 = CARTESIAN_POINT('',(-57.75,-90.,0.));
#547 = VECTOR('',#548,1.);
#548 = DIRECTION('',(6.E-17,0.,1.));
#549 = ORIENTED_EDGE('',*,*,#98,.T.);
#550 = ORIENTED_EDGE('',*,*,#542,.T.);
#551 = ORIENTED_EDGE('',*,*,#552,.T.);
#552 = EDGE_CURVE('',#543,#543,#553,.T.);
#553 = CIRCLE('',#554,2.75);
#554 = AXIS2_PLACEMENT_3D('',#555,#556,#557);
#555 = CARTESIAN_POINT('',(-55.,-90.,25.));
#556 = DIRECTION('',(0.,0.,1.));
#557 = DIRECTION('',(-1.,0.,0.));
#558 = CYLINDRICAL_SURFACE('',#559,2.75);
#559 = AXIS2_PLACEMENT_3D('',#560,#561,#562);
#560 = CARTESIAN_POINT('',(-55.,-90.,0.));
#561 = DIRECTION('',(0.,0.,1.));
#562 = DIRECTION('',(-1.,0.,0.));
#563 = ADVANCED_FACE('',(#564),#583,.F.);
#564 = FACE_BOUND('',#565,.T.);
#565 = EDGE_LOOP('',(#566,#574,#575,#576));
#566 = ORIENTED_EDGE('',*,*,#567,.F.);
#567 = EDGE_CURVE('',#110,#568,#570,.T.);
#568 = VERTEX_POINT('',#569);
#569 = CARTESIAN_POINT('',(-13.25,-90.,25.));
#570 = LINE('',#571,#572);
#571 = CARTESIAN_POINT('',(-13.25,-90.,0.));
#572 = VECTOR('',#573,1.);
#573 = DIRECTION('',(6.E-17,0.,1.));
#574 = ORIENTED_EDGE('',*,*,#109,.T.);
#575 = ORIENTED_EDGE('',*,*,#567,.T.);
#576 = ORIENTED_EDGE('',*,*,#577,.T.);
#577 = EDGE_CURVE('',#568,#568,#578,.T.);
#578 = CIRCLE('',#579,2.75);
#579 = AXIS2_PLACEMENT_3D('',#580,#581,#582);
#580 = CARTESIAN_POINT('',(-10.5,-90.,25.));
#581 = DIRECTION('',(0.,0.,1.));
#582 = DIRECTION('',(-1.,0.,0.));
#583 = CYLINDRICAL_SURFACE('',#584,2.75);
#584 = AXIS2_PLACEMENT_3D('',#585,#586,#587);
#585 = CARTESIAN_POINT('',(-10.5,-90.,0.));
#586 = DIRECTION('',(0.,0.,1.));
#587 = DIRECTION('',(-1.,0.,0.));
#588 = ADVANCED_FACE('',(#589),#608,.F.);
#589 = FACE_BOUND('',#590,.T.);
#590 = EDGE_LOOP('',(#591,#599,#600,#601));
#591 = ORIENTED_EDGE('',*,*,#592,.F.);
#592 = EDGE_CURVE('',#121,#593,#595,.T.);
#593 = VERTEX_POINT('',#594);
#594 = CARTESIAN_POINT('',(-92.75,-45.,25.));
#595 = LINE('',#596,#597);
#596 = CARTESIAN_POINT('',(-92.75,-45.,0.));
#597 = VECTOR('',#598,1.);
#598 = DIRECTION('',(6.E-17,0.,1.));
#599 = ORIENTED_EDGE('',*,*,#120,.T.);
#600 = ORIENTED_EDGE('',*,*,#592,.T.);
#601 = ORIENTED_EDGE('',*,*,#602,.T.);
#602 = EDGE_CURVE('',#593,#593,#603,.T.);
#603 = CIRCLE('',#604,2.75);
#604 = AXIS2_PLACEMENT_3D('',#605,#606,#607);
#605 = CARTESIAN_POINT('',(-90.,-45.,25.));
#606 = DIRECTION('',(0.,0.,1.));
#607 = DIRECTION('',(-1.,0.,0.));
#608 = CYLINDRICAL_SURFACE('',#609,2.75);
#609 = AXIS2_PLACEMENT_3D('',#610,#611,#612);
#610 = CARTESIAN_POINT('',(-90.,-45.,0.));
#611 = DIRECTION('',(0.,0.,1.));
#612 = DIRECTION('',(-1.,0.,0.));
#613 = ADVANCED_FACE('',(#614),#633,.F.);
#614 = FACE_BOUND('',#615,.T.);
#615 = EDGE_LOOP('',(#616,#624,#625,#626));
#616 = ORIENTED_EDGE('',*,*,#617,.F.);
#617 = EDGE_CURVE('',#132,#618,#620,.T.);
#618 = VERTEX_POINT('',#619);
#619 = CARTESIAN_POINT('',(7.75,-90.,25.));
#620 = LINE('',#621,#622);
#621 = CARTESIAN_POINT('',(7.75,-90.,0.));
#622 = VECTOR('',#623,1.);
#623 = DIRECTION('',(6.E-17,0.,1.));
#624 = ORIENTED_EDGE('',*,*,#131,.T.);
#625 = ORIENTED_EDGE('',*,*,#617,.T.);
#626 = ORIENTED_EDGE('',*,*,#627,.T.);
#627 = EDGE_CURVE('',#618,#618,#628,.T.);
#628 = CIRCLE('',#629,2.75);
#629 = AXIS2_PLACEMENT_3D('',#630,#631,#632);
#630 = CARTESIAN_POINT('',(10.5,-90.,25.));
#631 = DIRECTION('',(0.,0.,1.));
#632 = DIRECTION('',(-1.,0.,0.));
#633 = CYLINDRICAL_SURFACE('',#634,2.75);
#634 = AXIS2_PLACEMENT_3D('',#635,#636,#637);
#635 = CARTESIAN_POINT('',(10.5,-90.,0.));
#636 = DIRECTION('',(0.,0.,1.));
#637 = DIRECTION('',(-1.,0.,0.));
#638 = ADVANCED_FACE('',(#639),#658,.F.);
#639 = FACE_BOUND('',#640,.T.);
#640 = EDGE_LOOP('',(#641,#649,#650,#651));
#641 = ORIENTED_EDGE('',*,*,#642,.F.);
#642 = EDGE_CURVE('',#143,#643,#645,.T.);
#643 = VERTEX_POINT('',#644);
#644 = CARTESIAN_POINT('',(52.25,-90.,25.));
#645 = LINE('',#646,#647);
#646 = CARTESIAN_POINT('',(52.25,-90.,0.));
#647 = VECTOR('',#648,1.);
#648 = DIRECTION('',(6.E-17,0.,1.));
#649 = ORIENTED_EDGE('',*,*,#142,.T.);
#650 = ORIENTED_EDGE('',*,*,#642,.T.);
#651 = ORIENTED_EDGE('',*,*,#652,.T.);
#652 = EDGE_CURVE('',#643,#643,#653,.T.);
#653 = CIRCLE('',#654,2.75);
#654 = AXIS2_PLACEMENT_3D('',#655,#656,#657);
#655 = CARTESIAN_POINT('',(55.,-90.,25.));
#656 = DIRECTION('',(0.,0.,1.));
#657 = DIRECTION('',(-1.,0.,0.));
#658 = CYLINDRICAL_SURFACE('',#659,2.75);
#659 = AXIS2_PLACEMENT_3D('',#660,#661,#662);
#660 = CARTESIAN_POINT('',(55.,-90.,0.));
#661 = DIRECTION('',(0.,0.,1.));
#662 = DIRECTION('',(-1.,0.,0.));
#663 = ADVANCED_FACE('',(#664),#683,.F.);
#664 = FACE_BOUND('',#665,.T.);
#665 = EDGE_LOOP('',(#666,#674,#675,#676));
#666 = ORIENTED_EDGE('',*,*,#667,.F.);
#667 = EDGE_CURVE('',#154,#668,#670,.T.);
#668 = VERTEX_POINT('',#669);
#669 = CARTESIAN_POINT('',(87.25,-90.,25.));
#670 = LINE('',#671,#672);
#671 = CARTESIAN_POINT('',(87.25,-90.,0.));
#672 = VECTOR('',#673,1.);
#673 = DIRECTION('',(6.E-17,0.,1.));
#674 = ORIENTED_EDGE('',*,*,#153,.T.);
#675 = ORIENTED_EDGE('',*,*,#667,.T.);
#676 = ORIENTED_EDGE('',*,*,#677,.T.);
#677 = EDGE_CURVE('',#668,#668,#678,.T.);
#678 = CIRCLE('',#679,2.75);
#679 = AXIS2_PLACEMENT_3D('',#680,#681,#682);
#680 = CARTESIAN_POINT('',(90.,-90.,25.));
#681 = DIRECTION('',(0.,0.,1.));
#682 = DIRECTION('',(-1.,0.,0.));
#683 = CYLINDRICAL_SURFACE('',#684,2.75);
#684 = AXIS2_PLACEMENT_3D('',#685,#686,#687);
#685 = CARTESIAN_POINT('',(90.,-90.,0.));
#686 = DIRECTION('',(0.,0.,1.));
#687 = DIRECTION('',(-1.,0.,0.));
#688 = ADVANCED_FACE('',(#689),#708,.F.);
#689 = FACE_BOUND('',#690,.T.);
#690 = EDGE_LOOP('',(#691,#699,#700,#701));
#691 = ORIENTED_EDGE('',*,*,#692,.F.);
#692 = EDGE_CURVE('',#165,#693,#695,.T.);
#693 = VERTEX_POINT('',#694);
#694 = CARTESIAN_POINT('',(87.25,-45.,25.));
#695 = LINE('',#696,#697);
#696 = CARTESIAN_POINT('',(87.25,-45.,0.));
#697 = VECTOR('',#698,1.);
#698 = DIRECTION('',(6.E-17,0.,1.));
#699 = ORIENTED_EDGE('',*,*,#164,.T.);
#700 = ORIENTED_EDGE('',*,*,#692,.T.);
#701 = ORIENTED_EDGE('',*,*,#702,.T.);
#702 = EDGE_CURVE('',#693,#693,#703,.T.);
#703 = CIRCLE('',#704,2.75);
#704 = AXIS2_PLACEMENT_3D('',#705,#706,#707);
#705 = CARTESIAN_POINT('',(90.,-45.,25.));
#706 = DIRECTION('',(0.,0.,1.));
#707 = DIRECTION('',(-1.,0.,0.));
#708 = CYLINDRICAL_SURFACE('',#709,2.75);
#709 = AXIS2_PLACEMENT_3D('',#710,#711,#712);
#710 = CARTESIAN_POINT('',(90.,-45.,0.));
#711 = DIRECTION('',(0.,0.,1.));
#712 = DIRECTION('',(-1.,0.,0.));
#713 = ADVANCED_FACE('',(#714),#733,.F.);
#714 = FACE_BOUND('',#715,.T.);
#715 = EDGE_LOOP('',(#716,#724,#725,#726));
#716 = ORIENTED_EDGE('',*,*,#717,.F.);
#717 = EDGE_CURVE('',#176,#718,#720,.T.);
#718 = VERTEX_POINT('',#719);
#719 = CARTESIAN_POINT('',(-92.75,0.,25.));
#720 = LINE('',#721,#722);
#721 = CARTESIAN_POINT('',(-92.75,0.,0.));
#722 = VECTOR('',#723,1.);
#723 = DIRECTION('',(6.E-17,0.,1.));
#724 = ORIENTED_EDGE('',*,*,#175,.T.);
#725 = ORIENTED_EDGE('',*,*,#717,.T.);
#726 = ORIENTED_EDGE('',*,*,#727,.T.);
#727 = EDGE_CURVE('',#718,#718,#728,.T.);
#728 = CIRCLE('',#729,2.75);
#729 = AXIS2_PLACEMENT_3D('',#730,#731,#732);
#730 = CARTESIAN_POINT('',(-90.,0.,25.));
#731 = DIRECTION('',(0.,0.,1.));
#732 = DIRECTION('',(-1.,0.,0.));
#733 = CYLINDRICAL_SURFACE('',#734,2.75);
#734 = AXIS2_PLACEMENT_3D('',#735,#736,#737);
#735 = CARTESIAN_POINT('',(-90.,0.,0.));
#736 = DIRECTION('',(0.,0.,1.));
#737 = DIRECTION('',(-1.,0.,0.));
#738 = ADVANCED_FACE('',(#739),#758,.F.);
#739 = FACE_BOUND('',#740,.T.);
#740 = EDGE_LOOP('',(#741,#749,#750,#751));
#741 = ORIENTED_EDGE('',*,*,#742,.F.);
#742 = EDGE_CURVE('',#187,#743,#745,.T.);
#743 = VERTEX_POINT('',#744);
#744 = CARTESIAN_POINT('',(-92.75,45.,25.));
#745 = LINE('',#746,#747);
#746 = CARTESIAN_POINT('',(-92.75,45.,0.));
#747 = VECTOR('',#748,1.);
#748 = DIRECTION('',(6.E-17,0.,1.));
#749 = ORIENTED_EDGE('',*,*,#186,.T.);
#750 = ORIENTED_EDGE('',*,*,#742,.T.);
#751 = ORIENTED_EDGE('',*,*,#752,.T.);
#752 = EDGE_CURVE('',#743,#743,#753,.T.);
#753 = CIRCLE('',#754,2.75);
#754 = AXIS2_PLACEMENT_3D('',#755,#756,#757);
#755 = CARTESIAN_POINT('',(-90.,45.,25.));
#756 = DIRECTION('',(0.,0.,1.));
#757 = DIRECTION('',(-1.,0.,0.));
#758 = CYLINDRICAL_SURFACE('',#759,2.75);
#759 = AXIS2_PLACEMENT_3D('',#760,#761,#762);
#760 = CARTESIAN_POINT('',(-90.,45.,0.));
#761 = DIRECTION('',(0.,0.,1.));
#762 = DIRECTION('',(-1.,0.,0.));
#763 = ADVANCED_FACE('',(#764),#783,.F.);
#764 = FACE_BOUND('',#765,.T.);
#765 = EDGE_LOOP('',(#766,#774,#775,#776));
#766 = ORIENTED_EDGE('',*,*,#767,.F.);
#767 = EDGE_CURVE('',#198,#768,#770,.T.);
#768 = VERTEX_POINT('',#769);
#769 = CARTESIAN_POINT('',(-92.75,90.,25.));
#770 = LINE('',#771,#772);
#771 = CARTESIAN_POINT('',(-92.75,90.,0.));
#772 = VECTOR('',#773,1.);
#773 = DIRECTION('',(6.E-17,0.,1.));
#774 = ORIENTED_EDGE('',*,*,#197,.T.);
#775 = ORIENTED_EDGE('',*,*,#767,.T.);
#776 = ORIENTED_EDGE('',*,*,#777,.T.);
#777 = EDGE_CURVE('',#768,#768,#778,.T.);
#778 = CIRCLE('',#779,2.75);
#779 = AXIS2_PLACEMENT_3D('',#780,#781,#782);
#780 = CARTESIAN_POINT('',(-90.,90.,25.));
#781 = DIRECTION('',(0.,0.,1.));
#782 = DIRECTION('',(-1.,0.,0.));
#783 = CYLINDRICAL_SURFACE('',#784,2.75);
#784 = AXIS2_PLACEMENT_3D('',#785,#786,#787);
#785 = CARTESIAN_POINT('',(-90.,90.,0.));
#786 = DIRECTION('',(0.,0.,1.));
#787 = DIRECTION('',(-1.,0.,0.));
#788 = ADVANCED_FACE('',(#789),#808,.F.);
#789 = FACE_BOUND('',#790,.T.);
#790 = EDGE_LOOP('',(#791,#799,#800,#801));
#791 = ORIENTED_EDGE('',*,*,#792,.F.);
#792 = EDGE_CURVE('',#209,#793,#795,.T.);
#793 = VERTEX_POINT('',#794);
#794 = CARTESIAN_POINT('',(-47.75,90.,25.));
#795 = LINE('',#796,#797);
#796 = CARTESIAN_POINT('',(-47.75,90.,0.));
#797 = VECTOR('',#798,1.);
#798 = DIRECTION('',(6.E-17,0.,1.));
#799 = ORIENTED_EDGE('',*,*,#208,.T.);
#800 = ORIENTED_EDGE('',*,*,#792,.T.);
#801 = ORIENTED_EDGE('',*,*,#802,.T.);
#802 = EDGE_CURVE('',#793,#793,#803,.T.);
#803 = CIRCLE('',#804,2.75);
#804 = AXIS2_PLACEMENT_3D('',#805,#806,#807);
#805 = CARTESIAN_POINT('',(-45.,90.,25.));
#806 = DIRECTION('',(0.,0.,1.));
#807 = DIRECTION('',(-1.,0.,0.));
#808 = CYLINDRICAL_SURFACE('',#809,2.75);
#809 = AXIS2_PLACEMENT_3D('',#810,#811,#812);
#810 = CARTESIAN_POINT('',(-45.,90.,0.));
#811 = DIRECTION('',(0.,0.,1.));
#812 = DIRECTION('',(-1.,0.,0.));
#813 = ADVANCED_FACE('',(#814),#839,.T.);
#814 = FACE_BOUND('',#815,.T.);
#815 = EDGE_LOOP('',(#816,#824,#832,#838));
#816 = ORIENTED_EDGE('',*,*,#817,.T.);
#817 = EDGE_CURVE('',#220,#818,#820,.T.);
#818 = VERTEX_POINT('',#819);
#819 = CARTESIAN_POINT('',(-62.5,62.5,25.));
#820 = LINE('',#821,#822);
#821 = CARTESIAN_POINT('',(-62.5,62.5,0.));
#822 = VECTOR('',#823,1.);
#823 = DIRECTION('',(0.,0.,1.));
#824 = ORIENTED_EDGE('',*,*,#825,.T.);
#825 = EDGE_CURVE('',#818,#826,#828,.T.);
#826 = VERTEX_POINT('',#827);
#827 = CARTESIAN_POINT('',(-62.5,-62.5,25.));
#828 = LINE('',#829,#830);
#829 = CARTESIAN_POINT('',(-62.5,62.5,25.));
#830 = VECTOR('',#831,1.);
#831 = DIRECTION('',(0.,-1.,0.));
#832 = ORIENTED_EDGE('',*,*,#833,.F.);
#833 = EDGE_CURVE('',#222,#826,#834,.T.);
#834 = LINE('',#835,#836);
#835 = CARTESIAN_POINT('',(-62.5,-62.5,0.));
#836 = VECTOR('',#837,1.);
#837 = DIRECTION('',(0.,0.,1.));
#838 = ORIENTED_EDGE('',*,*,#219,.F.);
#839 = PLANE('',#840);
#840 = AXIS2_PLACEMENT_3D('',#841,#842,#843);
#841 = CARTESIAN_POINT('',(-62.5,62.5,0.));
#842 = DIRECTION('',(1.,0.,0.));
#843 = DIRECTION('',(0.,-1.,0.));
#844 = ADVANCED_FACE('',(#845),#863,.T.);
#845 = FACE_BOUND('',#846,.T.);
#846 = EDGE_LOOP('',(#847,#855,#861,#862));
#847 = ORIENTED_EDGE('',*,*,#848,.T.);
#848 = EDGE_CURVE('',#230,#849,#851,.T.);
#849 = VERTEX_POINT('',#850);
#850 = CARTESIAN_POINT('',(62.5,62.5,25.));
#851 = LINE('',#852,#853);
#852 = CARTESIAN_POINT('',(62.5,62.5,0.));
#853 = VECTOR('',#854,1.);
#854 = DIRECTION('',(0.,0.,1.));
#855 = ORIENTED_EDGE('',*,*,#856,.T.);
#856 = EDGE_CURVE('',#849,#818,#857,.T.);
#857 = LINE('',#858,#859);
#858 = CARTESIAN_POINT('',(62.5,62.5,25.));
#859 = VECTOR('',#860,1.);
#860 = DIRECTION('',(-1.,0.,0.));
#861 = ORIENTED_EDGE('',*,*,#817,.F.);
#862 = ORIENTED_EDGE('',*,*,#229,.F.);
#863 = PLANE('',#864);
#864 = AXIS2_PLACEMENT_3D('',#865,#866,#867);
#865 = CARTESIAN_POINT('',(62.5,62.5,0.));
#866 = DIRECTION('',(0.,-1.,0.));
#867 = DIRECTION('',(-1.,0.,0.));
#868 = ADVANCED_FACE('',(#869,#887),#898,.T.);
#869 = FACE_BOUND('',#870,.T.);
#870 = EDGE_LOOP('',(#871,#872,#880,#886));
#871 = ORIENTED_EDGE('',*,*,#833,.T.);
#872 = ORIENTED_EDGE('',*,*,#873,.T.);
#873 = EDGE_CURVE('',#826,#874,#876,.T.);
#874 = VERTEX_POINT('',#875);
#875 = CARTESIAN_POINT('',(62.5,-62.5,25.));
#876 = LINE('',#877,#878);
#877 = CARTESIAN_POINT('',(-62.5,-62.5,25.));
#878 = VECTOR('',#879,1.);
#879 = DIRECTION('',(1.,0.,0.));
#880 = ORIENTED_EDGE('',*,*,#881,.F.);
#881 = EDGE_CURVE('',#238,#874,#882,.T.);
#882 = LINE('',#883,#884);
#883 = CARTESIAN_POINT('',(62.5,-62.5,0.));
#884 = VECTOR('',#885,1.);
#885 = DIRECTION('',(0.,0.,1.));
#886 = ORIENTED_EDGE('',*,*,#245,.F.);
#887 = FACE_BOUND('',#888,.T.);
#888 = EDGE_LOOP('',(#889));
#889 = ORIENTED_EDGE('',*,*,#890,.T.);
#890 = EDGE_CURVE('',#891,#891,#893,.T.);
#891 = VERTEX_POINT('',#892);
#892 = CARTESIAN_POINT('',(-34.5,-62.5,12.5));
#893 = CIRCLE('',#894,2.5);
#894 = AXIS2_PLACEMENT_3D('',#895,#896,#897);
#895 = CARTESIAN_POINT('',(-37.,-62.5,12.5));
#896 = DIRECTION('',(0.,-1.,2.2E-16));
#897 = DIRECTION('',(1.,0.,0.));
#898 = PLANE('',#899);
#899 = AXIS2_PLACEMENT_3D('',#900,#901,#902);
#900 = CARTESIAN_POINT('',(-62.5,-62.5,0.));
#901 = DIRECTION('',(0.,1.,0.));
#902 = DIRECTION('',(1.,0.,0.));
#903 = ADVANCED_FACE('',(#904),#915,.T.);
#904 = FACE_BOUND('',#905,.T.);
#905 = EDGE_LOOP('',(#906,#907,#913,#914));
#906 = ORIENTED_EDGE('',*,*,#881,.T.);
#907 = ORIENTED_EDGE('',*,*,#908,.T.);
#908 = EDGE_CURVE('',#874,#849,#909,.T.);
#909 = LINE('',#910,#911);
#910 = CARTESIAN_POINT('',(62.5,-62.5,25.));
#911 = VECTOR('',#912,1.);
#912 = DIRECTION('',(0.,1.,0.));
#913 = ORIENTED_EDGE('',*,*,#848,.F.);
#914 = ORIENTED_EDGE('',*,*,#237,.F.);
#915 = PLANE('',#916);
#916 = AXIS2_PLACEMENT_3D('',#917,#918,#919);
#917 = CARTESIAN_POINT('',(62.5,-62.5,0.));
#918 = DIRECTION('',(-1.,0.,0.));
#919 = DIRECTION('',(0.,1.,0.));
#920 = ADVANCED_FACE('',(#921),#940,.F.);
#921 = FACE_BOUND('',#922,.T.);
#922 = EDGE_LOOP('',(#923,#931,#932,#933));
#923 = ORIENTED_EDGE('',*,*,#924,.F.);
#924 = EDGE_CURVE('',#254,#925,#927,.T.);
#925 = VERTEX_POINT('',#926);
#926 = CARTESIAN_POINT('',(87.25,0.,25.));
#927 = LINE('',#928,#929);
#928 = CARTESIAN_POINT('',(87.25,0.,0.));
#929 = VECTOR('',#930,1.);
#930 = DIRECTION('',(6.E-17,0.,1.));
#931 = ORIENTED_EDGE('',*,*,#253,.T.);
#932 = ORIENTED_EDGE('',*,*,#924,.T.);
#933 = ORIENTED_EDGE('',*,*,#934,.T.);
#934 = EDGE_CURVE('',#925,#925,#935,.T.);
#935 = CIRCLE('',#936,2.75);
#936 = AXIS2_PLACEMENT_3D('',#937,#938,#939);
#937 = CARTESIAN_POINT('',(90.,0.,25.));
#938 = DIRECTION('',(0.,0.,1.));
#939 = DIRECTION('',(-1.,0.,0.));
#940 = CYLINDRICAL_SURFACE('',#941,2.75);
#941 = AXIS2_PLACEMENT_3D('',#942,#943,#944);
#942 = CARTESIAN_POINT('',(90.,0.,0.));
#943 = DIRECTION('',(0.,0.,1.));
#944 = DIRECTION('',(-1.,0.,0.));
#945 = ADVANCED_FACE('',(#946),#965,.F.);
#946 = FACE_BOUND('',#947,.T.);
#947 = EDGE_LOOP('',(#948,#956,#957,#958));
#948 = ORIENTED_EDGE('',*,*,#949,.F.);
#949 = EDGE_CURVE('',#265,#950,#952,.T.);
#950 = VERTEX_POINT('',#951);
#951 = CARTESIAN_POINT('',(87.25,45.,25.));
#952 = LINE('',#953,#954);
#953 = CARTESIAN_POINT('',(87.25,45.,0.));
#954 = VECTOR('',#955,1.);
#955 = DIRECTION('',(6.E-17,0.,1.));
#956 = ORIENTED_EDGE('',*,*,#264,.T.);
#957 = ORIENTED_EDGE('',*,*,#949,.T.);
#958 = ORIENTED_EDGE('',*,*,#959,.T.);
#959 = EDGE_CURVE('',#950,#950,#960,.T.);
#960 = CIRCLE('',#961,2.75);
#961 = AXIS2_PLACEMENT_3D('',#962,#963,#964);
#962 = CARTESIAN_POINT('',(90.,45.,25.));
#963 = DIRECTION('',(0.,0.,1.));
#964 = DIRECTION('',(-1.,0.,0.));
#965 = CYLINDRICAL_SURFACE('',#966,2.75);
#966 = AXIS2_PLACEMENT_3D('',#967,#968,#969);
#967 = CARTESIAN_POINT('',(90.,45.,0.));
#968 = DIRECTION('',(0.,0.,1.));
#969 = DIRECTION('',(-1.,0.,0.));
#970 = ADVANCED_FACE('',(#971),#990,.F.);
#971 = FACE_BOUND('',#972,.T.);
#972 = EDGE_LOOP('',(#973,#981,#982,#983));
#973 = ORIENTED_EDGE('',*,*,#974,.F.);
#974 = EDGE_CURVE('',#276,#975,#977,.T.);
#975 = VERTEX_POINT('',#976);
#976 = CARTESIAN_POINT('',(-2.75,90.,25.));
#977 = LINE('',#978,#979);
#978 = CARTESIAN_POINT('',(-2.75,90.,0.));
#979 = VECTOR('',#980,1.);
#980 = DIRECTION('',(6.E-17,0.,1.));
#981 = ORIENTED_EDGE('',*,*,#275,.T.);
#982 = ORIENTED_EDGE('',*,*,#974,.T.);
#983 = ORIENTED_EDGE('',*,*,#984,.T.);
#984 = EDGE_CURVE('',#975,#975,#985,.T.);
#985 = CIRCLE('',#986,2.75);
#986 = AXIS2_PLACEMENT_3D('',#987,#988,#989);
#987 = CARTESIAN_POINT('',(0.,90.,25.));
#988 = DIRECTION('',(0.,0.,1.));
#989 = DIRECTION('',(-1.,0.,0.));
#990 = CYLINDRICAL_SURFACE('',#991,2.75);
#991 = AXIS2_PLACEMENT_3D('',#992,#993,#994);
#992 = CARTESIAN_POINT('',(0.,90.,0.));
#993 = DIRECTION('',(0.,0.,1.));
#994 = DIRECTION('',(-1.,0.,0.));
#995 = ADVANCED_FACE('',(#996),#1015,.F.);
#996 = FACE_BOUND('',#997,.T.);
#997 = EDGE_LOOP('',(#998,#1006,#1007,#1008));
#998 = ORIENTED_EDGE('',*,*,#999,.F.);
#999 = EDGE_CURVE('',#287,#1000,#1002,.T.);
#1000 = VERTEX_POINT('',#1001);
#1001 = CARTESIAN_POINT('',(42.25,90.,25.));
#1002 = LINE('',#1003,#1004);
#1003 = CARTESIAN_POINT('',(42.25,90.,0.));
#1004 = VECTOR('',#1005,1.);
#1005 = DIRECTION('',(6.E-17,0.,1.));
#1006 = ORIENTED_EDGE('',*,*,#286,.T.);
#1007 = ORIENTED_EDGE('',*,*,#999,.T.);
#1008 = ORIENTED_EDGE('',*,*,#1009,.T.);
#1009 = EDGE_CURVE('',#1000,#1000,#1010,.T.);
#1010 = CIRCLE('',#1011,2.75);
#1011 = AXIS2_PLACEMENT_3D('',#1012,#1013,#1014);
#1012 = CARTESIAN_POINT('',(45.,90.,25.));
#1013 = DIRECTION('',(0.,0.,1.));
#1014 = DIRECTION('',(-1.,0.,0.));
#1015 = CYLINDRICAL_SURFACE('',#1016,2.75);
#1016 = AXIS2_PLACEMENT_3D('',#1017,#1018,#1019);
#1017 = CARTESIAN_POINT('',(45.,90.,0.));
#1018 = DIRECTION('',(0.,0.,1.));
#1019 = DIRECTION('',(-1.,0.,0.));
#1020 = ADVANCED_FACE('',(#1021),#1040,.F.);
#1021 = FACE_BOUND('',#1022,.T.);
#1022 = EDGE_LOOP('',(#1023,#1031,#1032,#1033));
#1023 = ORIENTED_EDGE('',*,*,#1024,.F.);
#1024 = EDGE_CURVE('',#298,#1025,#1027,.T.);
#1025 = VERTEX_POINT('',#1026);
#1026 = CARTESIAN_POINT('',(87.25,90.,25.));
#1027 = LINE('',#1028,#1029);
#1028 = CARTESIAN_POINT('',(87.25,90.,0.));
#1029 = VECTOR('',#1030,1.);
#1030 = DIRECTION('',(6.E-17,0.,1.));
#1031 = ORIENTED_EDGE('',*,*,#297,.T.);
#1032 = ORIENTED_EDGE('',*,*,#1024,.T.);
#1033 = ORIENTED_EDGE('',*,*,#1034,.T.);
#1034 = EDGE_CURVE('',#1025,#1025,#1035,.T.);
#1035 = CIRCLE('',#1036,2.75);
#1036 = AXIS2_PLACEMENT_3D('',#1037,#1038,#1039);
#1037 = CARTESIAN_POINT('',(90.,90.,25.));
#1038 = DIRECTION('',(0.,0.,1.));
#1039 = DIRECTION('',(-1.,0.,0.));
#1040 = CYLINDRICAL_SURFACE('',#1041,2.75);
#1041 = AXIS2_PLACEMENT_3D('',#1042,#1043,#1044);
#1042 = CARTESIAN_POINT('',(90.,90.,0.));
#1043 = DIRECTION('',(0.,0.,1.));
#1044 = DIRECTION('',(-1.,0.,0.));
#1045 = ADVANCED_FACE('',(#1046,#1056,#1059,#1062,#1065,#1068,#1071,
    #1074,#1077,#1080,#1083,#1086,#1089,#1092,#1162,#1165,#1168,#1171,
    #1174),#1177,.T.);
#1046 = FACE_BOUND('',#1047,.T.);
#1047 = EDGE_LOOP('',(#1048,#1049,#1050,#1051,#1052,#1053,#1054,#1055));
#1048 = ORIENTED_EDGE('',*,*,#323,.T.);
#1049 = ORIENTED_EDGE('',*,*,#347,.T.);
#1050 = ORIENTED_EDGE('',*,*,#395,.T.);
#1051 = ORIENTED_EDGE('',*,*,#450,.F.);
#1052 = ORIENTED_EDGE('',*,*,#491,.T.);
#1053 = ORIENTED_EDGE('',*,*,#474,.T.);
#1054 = ORIENTED_EDGE('',*,*,#426,.T.);
#1055 = ORIENTED_EDGE('',*,*,#378,.T.);
#1056 = FACE_BOUND('',#1057,.T.);
#1057 = EDGE_LOOP('',(#1058));
#1058 = ORIENTED_EDGE('',*,*,#527,.F.);
#1059 = FACE_BOUND('',#1060,.T.);
#1060 = EDGE_LOOP('',(#1061));
#1061 = ORIENTED_EDGE('',*,*,#552,.F.);
#1062 = FACE_BOUND('',#1063,.T.);
#1063 = EDGE_LOOP('',(#1064));
#1064 = ORIENTED_EDGE('',*,*,#577,.F.);
#1065 = FACE_BOUND('',#1066,.T.);
#1066 = EDGE_LOOP('',(#1067));
#1067 = ORIENTED_EDGE('',*,*,#602,.F.);
#1068 = FACE_BOUND('',#1069,.T.);
#1069 = EDGE_LOOP('',(#1070));
#1070 = ORIENTED_EDGE('',*,*,#627,.F.);
#1071 = FACE_BOUND('',#1072,.T.);
#1072 = EDGE_LOOP('',(#1073));
#1073 = ORIENTED_EDGE('',*,*,#652,.F.);
#1074 = FACE_BOUND('',#1075,.T.);
#1075 = EDGE_LOOP('',(#1076));
#1076 = ORIENTED_EDGE('',*,*,#677,.F.);
#1077 = FACE_BOUND('',#1078,.T.);
#1078 = EDGE_LOOP('',(#1079));
#1079 = ORIENTED_EDGE('',*,*,#702,.F.);
#1080 = FACE_BOUND('',#1081,.T.);
#1081 = EDGE_LOOP('',(#1082));
#1082 = ORIENTED_EDGE('',*,*,#727,.F.);
#1083 = FACE_BOUND('',#1084,.T.);
#1084 = EDGE_LOOP('',(#1085));
#1085 = ORIENTED_EDGE('',*,*,#752,.F.);
#1086 = FACE_BOUND('',#1087,.T.);
#1087 = EDGE_LOOP('',(#1088));
#1088 = ORIENTED_EDGE('',*,*,#777,.F.);
#1089 = FACE_BOUND('',#1090,.T.);
#1090 = EDGE_LOOP('',(#1091));
#1091 = ORIENTED_EDGE('',*,*,#802,.F.);
#1092 = FACE_BOUND('',#1093,.T.);
#1093 = EDGE_LOOP('',(#1094,#1104,#1113,#1121,#1130,#1138,#1147,#1155));
#1094 = ORIENTED_EDGE('',*,*,#1095,.F.);
#1095 = EDGE_CURVE('',#1096,#1098,#1100,.T.);
#1096 = VERTEX_POINT('',#1097);
#1097 = CARTESIAN_POINT('',(-77.5,51.999807105919,25.));
#1098 = VERTEX_POINT('',#1099);
#1099 = CARTESIAN_POINT('',(-77.5,-51.99980710591,25.));
#1100 = LINE('',#1101,#1102);
#1101 = CARTESIAN_POINT('',(-77.5,51.999807105919,25.));
#1102 = VECTOR('',#1103,1.);
#1103 = DIRECTION('',(0.,-1.,0.));
#1104 = ORIENTED_EDGE('',*,*,#1105,.F.);
#1105 = EDGE_CURVE('',#1106,#1096,#1108,.T.);
#1106 = VERTEX_POINT('',#1107);
#1107 = CARTESIAN_POINT('',(-51.99980710591,77.5,25.));
#1108 = CIRCLE('',#1109,25.500192894081);
#1109 = AXIS2_PLACEMENT_3D('',#1110,#1111,#1112);
#1110 = CARTESIAN_POINT('',(-51.99980710591,51.999807105919,25.));
#1111 = DIRECTION('',(0.,0.,1.));
#1112 = DIRECTION('',(1.,0.,0.));
#1113 = ORIENTED_EDGE('',*,*,#1114,.F.);
#1114 = EDGE_CURVE('',#1115,#1106,#1117,.T.);
#1115 = VERTEX_POINT('',#1116);
#1116 = CARTESIAN_POINT('',(51.999807105919,77.5,25.));
#1117 = LINE('',#1118,#1119);
#1118 = CARTESIAN_POINT('',(51.999807105919,77.5,25.));
#1119 = VECTOR('',#1120,1.);
#1120 = DIRECTION('',(-1.,0.,0.));
#1121 = ORIENTED_EDGE('',*,*,#1122,.F.);
#1122 = EDGE_CURVE('',#1123,#1115,#1125,.T.);
#1123 = VERTEX_POINT('',#1124);
#1124 = CARTESIAN_POINT('',(77.5,51.999807105919,25.));
#1125 = CIRCLE('',#1126,25.500192894081);
#1126 = AXIS2_PLACEMENT_3D('',#1127,#1128,#1129);
#1127 = CARTESIAN_POINT('',(51.999807105919,51.999807105919,25.));
#1128 = DIRECTION('',(0.,0.,1.));
#1129 = DIRECTION('',(1.,0.,0.));
#1130 = ORIENTED_EDGE('',*,*,#1131,.F.);
#1131 = EDGE_CURVE('',#1132,#1123,#1134,.T.);
#1132 = VERTEX_POINT('',#1133);
#1133 = CARTESIAN_POINT('',(77.5,-51.99980710591,25.));
#1134 = LINE('',#1135,#1136);
#1135 = CARTESIAN_POINT('',(77.5,-51.99980710591,25.));
#1136 = VECTOR('',#1137,1.);
#1137 = DIRECTION('',(0.,1.,0.));
#1138 = ORIENTED_EDGE('',*,*,#1139,.F.);
#1139 = EDGE_CURVE('',#1140,#1132,#1142,.T.);
#1140 = VERTEX_POINT('',#1141);
#1141 = CARTESIAN_POINT('',(51.999807105919,-77.5,25.));
#1142 = CIRCLE('',#1143,25.500192894081);
#1143 = AXIS2_PLACEMENT_3D('',#1144,#1145,#1146);
#1144 = CARTESIAN_POINT('',(51.999807105919,-51.99980710591,25.));
#1145 = DIRECTION('',(0.,0.,1.));
#1146 = DIRECTION('',(1.,0.,0.));
#1147 = ORIENTED_EDGE('',*,*,#1148,.F.);
#1148 = EDGE_CURVE('',#1149,#1140,#1151,.T.);
#1149 = VERTEX_POINT('',#1150);
#1150 = CARTESIAN_POINT('',(-51.99980710591,-77.5,25.));
#1151 = LINE('',#1152,#1153);
#1152 = CARTESIAN_POINT('',(-51.99980710591,-77.5,25.));
#1153 = VECTOR('',#1154,1.);
#1154 = DIRECTION('',(1.,0.,0.));
#1155 = ORIENTED_EDGE('',*,*,#1156,.F.);
#1156 = EDGE_CURVE('',#1098,#1149,#1157,.T.);
#1157 = CIRCLE('',#1158,25.500192894081);
#1158 = AXIS2_PLACEMENT_3D('',#1159,#1160,#1161);
#1159 = CARTESIAN_POINT('',(-51.99980710591,-51.99980710591,25.));
#1160 = DIRECTION('',(0.,0.,1.));
#1161 = DIRECTION('',(1.,0.,0.));
#1162 = FACE_BOUND('',#1163,.T.);
#1163 = EDGE_LOOP('',(#1164));
#1164 = ORIENTED_EDGE('',*,*,#934,.F.);
#1165 = FACE_BOUND('',#1166,.T.);
#1166 = EDGE_LOOP('',(#1167));
#1167 = ORIENTED_EDGE('',*,*,#959,.F.);
#1168 = FACE_BOUND('',#1169,.T.);
#1169 = EDGE_LOOP('',(#1170));
#1170 = ORIENTED_EDGE('',*,*,#984,.F.);
#1171 = FACE_BOUND('',#1172,.T.);
#1172 = EDGE_LOOP('',(#1173));
#1173 = ORIENTED_EDGE('',*,*,#1009,.F.);
#1174 = FACE_BOUND('',#1175,.T.);
#1175 = EDGE_LOOP('',(#1176));
#1176 = ORIENTED_EDGE('',*,*,#1034,.F.);
#1177 = PLANE('',#1178);
#1178 = AXIS2_PLACEMENT_3D('',#1179,#1180,#1181);
#1179 = CARTESIAN_POINT('',(0.,0.,25.));
#1180 = DIRECTION('',(0.,0.,1.));
#1181 = DIRECTION('',(1.,0.,0.));
#1182 = ADVANCED_FACE('',(#1183),#1194,.F.);
#1183 = FACE_BOUND('',#1184,.F.);
#1184 = EDGE_LOOP('',(#1185,#1186,#1192,#1193));
#1185 = ORIENTED_EDGE('',*,*,#500,.F.);
#1186 = ORIENTED_EDGE('',*,*,#1187,.T.);
#1187 = EDGE_CURVE('',#501,#891,#1188,.T.);
#1188 = LINE('',#1189,#1190);
#1189 = CARTESIAN_POINT('',(-34.5,-100.,12.5));
#1190 = VECTOR('',#1191,1.);
#1191 = DIRECTION('',(0.,1.,-2.2E-16));
#1192 = ORIENTED_EDGE('',*,*,#890,.T.);
#1193 = ORIENTED_EDGE('',*,*,#1187,.F.);
#1194 = CYLINDRICAL_SURFACE('',#1195,2.5);
#1195 = AXIS2_PLACEMENT_3D('',#1196,#1197,#1198);
#1196 = CARTESIAN_POINT('',(-37.,-100.,12.5));
#1197 = DIRECTION('',(0.,-1.,2.2E-16));
#1198 = DIRECTION('',(1.,0.,0.));
#1199 = ADVANCED_FACE('',(#1200,#1270),#1276,.T.);
#1200 = FACE_BOUND('',#1201,.T.);
#1201 = EDGE_LOOP('',(#1202,#1213,#1221,#1230,#1238,#1247,#1255,#1264));
#1202 = ORIENTED_EDGE('',*,*,#1203,.T.);
#1203 = EDGE_CURVE('',#1204,#1206,#1208,.T.);
#1204 = VERTEX_POINT('',#1205);
#1205 = CARTESIAN_POINT('',(-51.99980710591,72.5,25.));
#1206 = VERTEX_POINT('',#1207);
#1207 = CARTESIAN_POINT('',(-72.5,51.999807105919,25.));
#1208 = CIRCLE('',#1209,20.500192894081);
#1209 = AXIS2_PLACEMENT_3D('',#1210,#1211,#1212);
#1210 = CARTESIAN_POINT('',(-51.99980710591,51.999807105919,25.));
#1211 = DIRECTION('',(0.,0.,1.));
#1212 = DIRECTION('',(1.,0.,0.));
#1213 = ORIENTED_EDGE('',*,*,#1214,.T.);
#1214 = EDGE_CURVE('',#1206,#1215,#1217,.T.);
#1215 = VERTEX_POINT('',#1216);
#1216 = CARTESIAN_POINT('',(-72.5,-51.99980710591,25.));
#1217 = LINE('',#1218,#1219);
#1218 = CARTESIAN_POINT('',(-72.5,51.999807105919,25.));
#1219 = VECTOR('',#1220,1.);
#1220 = DIRECTION('',(0.,-1.,0.));
#1221 = ORIENTED_EDGE('',*,*,#1222,.T.);
#1222 = EDGE_CURVE('',#1215,#1223,#1225,.T.);
#1223 = VERTEX_POINT('',#1224);
#1224 = CARTESIAN_POINT('',(-51.99980710591,-72.5,25.));
#1225 = CIRCLE('',#1226,20.500192894081);
#1226 = AXIS2_PLACEMENT_3D('',#1227,#1228,#1229);
#1227 = CARTESIAN_POINT('',(-51.99980710591,-51.99980710591,25.));
#1228 = DIRECTION('',(0.,0.,1.));
#1229 = DIRECTION('',(1.,0.,0.));
#1230 = ORIENTED_EDGE('',*,*,#1231,.T.);
#1231 = EDGE_CURVE('',#1223,#1232,#1234,.T.);
#1232 = VERTEX_POINT('',#1233);
#1233 = CARTESIAN_POINT('',(51.999807105919,-72.5,25.));
#1234 = LINE('',#1235,#1236);
#1235 = CARTESIAN_POINT('',(-51.99980710591,-72.5,25.));
#1236 = VECTOR('',#1237,1.);
#1237 = DIRECTION('',(1.,0.,0.));
#1238 = ORIENTED_EDGE('',*,*,#1239,.T.);
#1239 = EDGE_CURVE('',#1232,#1240,#1242,.T.);
#1240 = VERTEX_POINT('',#1241);
#1241 = CARTESIAN_POINT('',(72.5,-51.99980710591,25.));
#1242 = CIRCLE('',#1243,20.500192894081);
#1243 = AXIS2_PLACEMENT_3D('',#1244,#1245,#1246);
#1244 = CARTESIAN_POINT('',(51.999807105919,-51.99980710591,25.));
#1245 = DIRECTION('',(0.,0.,1.));
#1246 = DIRECTION('',(1.,0.,0.));
#1247 = ORIENTED_EDGE('',*,*,#1248,.T.);
#1248 = EDGE_CURVE('',#1240,#1249,#1251,.T.);
#1249 = VERTEX_POINT('',#1250);
#1250 = CARTESIAN_POINT('',(72.5,51.999807105919,25.));
#1251 = LINE('',#1252,#1253);
#1252 = CARTESIAN_POINT('',(72.5,-51.99980710591,25.));
#1253 = VECTOR('',#1254,1.);
#1254 = DIRECTION('',(0.,1.,0.));
#1255 = ORIENTED_EDGE('',*,*,#1256,.T.);
#1256 = EDGE_CURVE('',#1249,#1257,#1259,.T.);
#1257 = VERTEX_POINT('',#1258);
#1258 = CARTESIAN_POINT('',(51.999807105919,72.5,25.));
#1259 = CIRCLE('',#1260,20.500192894081);
#1260 = AXIS2_PLACEMENT_3D('',#1261,#1262,#1263);
#1261 = CARTESIAN_POINT('',(51.999807105919,51.999807105919,25.));
#1262 = DIRECTION('',(0.,0.,1.));
#1263 = DIRECTION('',(1.,0.,0.));
#1264 = ORIENTED_EDGE('',*,*,#1265,.T.);
#1265 = EDGE_CURVE('',#1257,#1204,#1266,.T.);
#1266 = LINE('',#1267,#1268);
#1267 = CARTESIAN_POINT('',(51.999807105919,72.5,25.));
#1268 = VECTOR('',#1269,1.);
#1269 = DIRECTION('',(-1.,0.,0.));
#1270 = FACE_BOUND('',#1271,.T.);
#1271 = EDGE_LOOP('',(#1272,#1273,#1274,#1275));
#1272 = ORIENTED_EDGE('',*,*,#825,.F.);
#1273 = ORIENTED_EDGE('',*,*,#856,.F.);
#1274 = ORIENTED_EDGE('',*,*,#908,.F.);
#1275 = ORIENTED_EDGE('',*,*,#873,.F.);
#1276 = PLANE('',#1277);
#1277 = AXIS2_PLACEMENT_3D('',#1278,#1279,#1280);
#1278 = CARTESIAN_POINT('',(0.,0.,25.));
#1279 = DIRECTION('',(0.,0.,1.));
#1280 = DIRECTION('',(1.,0.,0.));
#1281 = ADVANCED_FACE('',(#1282),#1307,.F.);
#1282 = FACE_BOUND('',#1283,.F.);
#1283 = EDGE_LOOP('',(#1284,#1292,#1300,#1306));
#1284 = ORIENTED_EDGE('',*,*,#1285,.T.);
#1285 = EDGE_CURVE('',#1096,#1286,#1288,.T.);
#1286 = VERTEX_POINT('',#1287);
#1287 = CARTESIAN_POINT('',(-77.5,51.999807105919,21.5));
#1288 = LINE('',#1289,#1290);
#1289 = CARTESIAN_POINT('',(-77.5,51.999807105919,25.));
#1290 = VECTOR('',#1291,1.);
#1291 = DIRECTION('',(-0.,-0.,-1.));
#1292 = ORIENTED_EDGE('',*,*,#1293,.T.);
#1293 = EDGE_CURVE('',#1286,#1294,#1296,.T.);
#1294 = VERTEX_POINT('',#1295);
#1295 = CARTESIAN_POINT('',(-77.5,-51.99980710591,21.5));
#1296 = LINE('',#1297,#1298);
#1297 = CARTESIAN_POINT('',(-77.5,51.999807105919,21.5));
#1298 = VECTOR('',#1299,1.);
#1299 = DIRECTION('',(0.,-1.,0.));
#1300 = ORIENTED_EDGE('',*,*,#1301,.F.);
#1301 = EDGE_CURVE('',#1098,#1294,#1302,.T.);
#1302 = LINE('',#1303,#1304);
#1303 = CARTESIAN_POINT('',(-77.5,-51.99980710591,25.));
#1304 = VECTOR('',#1305,1.);
#1305 = DIRECTION('',(-0.,-0.,-1.));
#1306 = ORIENTED_EDGE('',*,*,#1095,.F.);
#1307 = PLANE('',#1308);
#1308 = AXIS2_PLACEMENT_3D('',#1309,#1310,#1311);
#1309 = CARTESIAN_POINT('',(-77.5,51.999807105919,25.));
#1310 = DIRECTION('',(-1.,0.,0.));
#1311 = DIRECTION('',(0.,-1.,0.));
#1312 = ADVANCED_FACE('',(#1313),#1332,.F.);
#1313 = FACE_BOUND('',#1314,.F.);
#1314 = EDGE_LOOP('',(#1315,#1323,#1330,#1331));
#1315 = ORIENTED_EDGE('',*,*,#1316,.T.);
#1316 = EDGE_CURVE('',#1106,#1317,#1319,.T.);
#1317 = VERTEX_POINT('',#1318);
#1318 = CARTESIAN_POINT('',(-51.99980710591,77.5,21.5));
#1319 = LINE('',#1320,#1321);
#1320 = CARTESIAN_POINT('',(-51.99980710591,77.5,25.));
#1321 = VECTOR('',#1322,1.);
#1322 = DIRECTION('',(-0.,-0.,-1.));
#1323 = ORIENTED_EDGE('',*,*,#1324,.T.);
#1324 = EDGE_CURVE('',#1317,#1286,#1325,.T.);
#1325 = CIRCLE('',#1326,25.500192894081);
#1326 = AXIS2_PLACEMENT_3D('',#1327,#1328,#1329);
#1327 = CARTESIAN_POINT('',(-51.99980710591,51.999807105919,21.5));
#1328 = DIRECTION('',(0.,0.,1.));
#1329 = DIRECTION('',(1.,0.,0.));
#1330 = ORIENTED_EDGE('',*,*,#1285,.F.);
#1331 = ORIENTED_EDGE('',*,*,#1105,.F.);
#1332 = CYLINDRICAL_SURFACE('',#1333,25.500192894081);
#1333 = AXIS2_PLACEMENT_3D('',#1334,#1335,#1336);
#1334 = CARTESIAN_POINT('',(-51.99980710591,51.999807105919,25.));
#1335 = DIRECTION('',(0.,0.,1.));
#1336 = DIRECTION('',(1.,0.,0.));
#1337 = ADVANCED_FACE('',(#1338),#1357,.F.);
#1338 = FACE_BOUND('',#1339,.F.);
#1339 = EDGE_LOOP('',(#1340,#1341,#1350,#1356));
#1340 = ORIENTED_EDGE('',*,*,#1301,.T.);
#1341 = ORIENTED_EDGE('',*,*,#1342,.T.);
#1342 = EDGE_CURVE('',#1294,#1343,#1345,.T.);
#1343 = VERTEX_POINT('',#1344);
#1344 = CARTESIAN_POINT('',(-51.99980710591,-77.5,21.5));
#1345 = CIRCLE('',#1346,25.500192894081);
#1346 = AXIS2_PLACEMENT_3D('',#1347,#1348,#1349);
#1347 = CARTESIAN_POINT('',(-51.99980710591,-51.99980710591,21.5));
#1348 = DIRECTION('',(0.,0.,1.));
#1349 = DIRECTION('',(1.,0.,0.));
#1350 = ORIENTED_EDGE('',*,*,#1351,.F.);
#1351 = EDGE_CURVE('',#1149,#1343,#1352,.T.);
#1352 = LINE('',#1353,#1354);
#1353 = CARTESIAN_POINT('',(-51.99980710591,-77.5,25.));
#1354 = VECTOR('',#1355,1.);
#1355 = DIRECTION('',(-0.,-0.,-1.));
#1356 = ORIENTED_EDGE('',*,*,#1156,.F.);
#1357 = CYLINDRICAL_SURFACE('',#1358,25.500192894081);
#1358 = AXIS2_PLACEMENT_3D('',#1359,#1360,#1361);
#1359 = CARTESIAN_POINT('',(-51.99980710591,-51.99980710591,25.));
#1360 = DIRECTION('',(0.,0.,1.));
#1361 = DIRECTION('',(1.,0.,0.));
#1362 = ADVANCED_FACE('',(#1363),#1381,.F.);
#1363 = FACE_BOUND('',#1364,.F.);
#1364 = EDGE_LOOP('',(#1365,#1373,#1379,#1380));
#1365 = ORIENTED_EDGE('',*,*,#1366,.T.);
#1366 = EDGE_CURVE('',#1115,#1367,#1369,.T.);
#1367 = VERTEX_POINT('',#1368);
#1368 = CARTESIAN_POINT('',(51.999807105919,77.5,21.5));
#1369 = LINE('',#1370,#1371);
#1370 = CARTESIAN_POINT('',(51.999807105919,77.5,25.));
#1371 = VECTOR('',#1372,1.);
#1372 = DIRECTION('',(-0.,-0.,-1.));
#1373 = ORIENTED_EDGE('',*,*,#1374,.T.);
#1374 = EDGE_CURVE('',#1367,#1317,#1375,.T.);
#1375 = LINE('',#1376,#1377);
#1376 = CARTESIAN_POINT('',(51.999807105919,77.5,21.5));
#1377 = VECTOR('',#1378,1.);
#1378 = DIRECTION('',(-1.,0.,0.));
#1379 = ORIENTED_EDGE('',*,*,#1316,.F.);
#1380 = ORIENTED_EDGE('',*,*,#1114,.F.);
#1381 = PLANE('',#1382);
#1382 = AXIS2_PLACEMENT_3D('',#1383,#1384,#1385);
#1383 = CARTESIAN_POINT('',(51.999807105919,77.5,25.));
#1384 = DIRECTION('',(0.,1.,0.));
#1385 = DIRECTION('',(-1.,0.,0.));
#1386 = ADVANCED_FACE('',(#1387),#1405,.F.);
#1387 = FACE_BOUND('',#1388,.F.);
#1388 = EDGE_LOOP('',(#1389,#1390,#1398,#1404));
#1389 = ORIENTED_EDGE('',*,*,#1351,.T.);
#1390 = ORIENTED_EDGE('',*,*,#1391,.T.);
#1391 = EDGE_CURVE('',#1343,#1392,#1394,.T.);
#1392 = VERTEX_POINT('',#1393);
#1393 = CARTESIAN_POINT('',(51.999807105919,-77.5,21.5));
#1394 = LINE('',#1395,#1396);
#1395 = CARTESIAN_POINT('',(-51.99980710591,-77.5,21.5));
#1396 = VECTOR('',#1397,1.);
#1397 = DIRECTION('',(1.,0.,0.));
#1398 = ORIENTED_EDGE('',*,*,#1399,.F.);
#1399 = EDGE_CURVE('',#1140,#1392,#1400,.T.);
#1400 = LINE('',#1401,#1402);
#1401 = CARTESIAN_POINT('',(51.999807105919,-77.5,25.));
#1402 = VECTOR('',#1403,1.);
#1403 = DIRECTION('',(-0.,-0.,-1.));
#1404 = ORIENTED_EDGE('',*,*,#1148,.F.);
#1405 = PLANE('',#1406);
#1406 = AXIS2_PLACEMENT_3D('',#1407,#1408,#1409);
#1407 = CARTESIAN_POINT('',(-51.99980710591,-77.5,25.));
#1408 = DIRECTION('',(0.,-1.,0.));
#1409 = DIRECTION('',(1.,0.,0.));
#1410 = ADVANCED_FACE('',(#1411),#1430,.F.);
#1411 = FACE_BOUND('',#1412,.F.);
#1412 = EDGE_LOOP('',(#1413,#1421,#1428,#1429));
#1413 = ORIENTED_EDGE('',*,*,#1414,.T.);
#1414 = EDGE_CURVE('',#1123,#1415,#1417,.T.);
#1415 = VERTEX_POINT('',#1416);
#1416 = CARTESIAN_POINT('',(77.5,51.999807105919,21.5));
#1417 = LINE('',#1418,#1419);
#1418 = CARTESIAN_POINT('',(77.5,51.999807105919,25.));
#1419 = VECTOR('',#1420,1.);
#1420 = DIRECTION('',(-0.,-0.,-1.));
#1421 = ORIENTED_EDGE('',*,*,#1422,.T.);
#1422 = EDGE_CURVE('',#1415,#1367,#1423,.T.);
#1423 = CIRCLE('',#1424,25.500192894081);
#1424 = AXIS2_PLACEMENT_3D('',#1425,#1426,#1427);
#1425 = CARTESIAN_POINT('',(51.999807105919,51.999807105919,21.5));
#1426 = DIRECTION('',(0.,0.,1.));
#1427 = DIRECTION('',(1.,0.,0.));
#1428 = ORIENTED_EDGE('',*,*,#1366,.F.);
#1429 = ORIENTED_EDGE('',*,*,#1122,.F.);
#1430 = CYLINDRICAL_SURFACE('',#1431,25.500192894081);
#1431 = AXIS2_PLACEMENT_3D('',#1432,#1433,#1434);
#1432 = CARTESIAN_POINT('',(51.999807105919,51.999807105919,25.));
#1433 = DIRECTION('',(0.,0.,1.));
#1434 = DIRECTION('',(1.,0.,0.));
#1435 = ADVANCED_FACE('',(#1436),#1455,.F.);
#1436 = FACE_BOUND('',#1437,.F.);
#1437 = EDGE_LOOP('',(#1438,#1439,#1448,#1454));
#1438 = ORIENTED_EDGE('',*,*,#1399,.T.);
#1439 = ORIENTED_EDGE('',*,*,#1440,.T.);
#1440 = EDGE_CURVE('',#1392,#1441,#1443,.T.);
#1441 = VERTEX_POINT('',#1442);
#1442 = CARTESIAN_POINT('',(77.5,-51.99980710591,21.5));
#1443 = CIRCLE('',#1444,25.500192894081);
#1444 = AXIS2_PLACEMENT_3D('',#1445,#1446,#1447);
#1445 = CARTESIAN_POINT('',(51.999807105919,-51.99980710591,21.5));
#1446 = DIRECTION('',(0.,0.,1.));
#1447 = DIRECTION('',(1.,0.,0.));
#1448 = ORIENTED_EDGE('',*,*,#1449,.F.);
#1449 = EDGE_CURVE('',#1132,#1441,#1450,.T.);
#1450 = LINE('',#1451,#1452);
#1451 = CARTESIAN_POINT('',(77.5,-51.99980710591,25.));
#1452 = VECTOR('',#1453,1.);
#1453 = DIRECTION('',(-0.,-0.,-1.));
#1454 = ORIENTED_EDGE('',*,*,#1139,.F.);
#1455 = CYLINDRICAL_SURFACE('',#1456,25.500192894081);
#1456 = AXIS2_PLACEMENT_3D('',#1457,#1458,#1459);
#1457 = CARTESIAN_POINT('',(51.999807105919,-51.99980710591,25.));
#1458 = DIRECTION('',(0.,0.,1.));
#1459 = DIRECTION('',(1.,0.,0.));
#1460 = ADVANCED_FACE('',(#1461),#1472,.F.);
#1461 = FACE_BOUND('',#1462,.F.);
#1462 = EDGE_LOOP('',(#1463,#1464,#1470,#1471));
#1463 = ORIENTED_EDGE('',*,*,#1449,.T.);
#1464 = ORIENTED_EDGE('',*,*,#1465,.T.);
#1465 = EDGE_CURVE('',#1441,#1415,#1466,.T.);
#1466 = LINE('',#1467,#1468);
#1467 = CARTESIAN_POINT('',(77.5,-51.99980710591,21.5));
#1468 = VECTOR('',#1469,1.);
#1469 = DIRECTION('',(0.,1.,0.));
#1470 = ORIENTED_EDGE('',*,*,#1414,.F.);
#1471 = ORIENTED_EDGE('',*,*,#1131,.F.);
#1472 = PLANE('',#1473);
#1473 = AXIS2_PLACEMENT_3D('',#1474,#1475,#1476);
#1474 = CARTESIAN_POINT('',(77.5,-51.99980710591,25.));
#1475 = DIRECTION('',(1.,0.,0.));
#1476 = DIRECTION('',(0.,1.,0.));
#1477 = ADVANCED_FACE('',(#1478),#1504,.T.);
#1478 = FACE_BOUND('',#1479,.T.);
#1479 = EDGE_LOOP('',(#1480,#1488,#1497,#1503));
#1480 = ORIENTED_EDGE('',*,*,#1481,.T.);
#1481 = EDGE_CURVE('',#1204,#1482,#1484,.T.);
#1482 = VERTEX_POINT('',#1483);
#1483 = CARTESIAN_POINT('',(-51.99980710591,72.5,21.5));
#1484 = LINE('',#1485,#1486);
#1485 = CARTESIAN_POINT('',(-51.99980710591,72.5,25.));
#1486 = VECTOR('',#1487,1.);
#1487 = DIRECTION('',(-0.,-0.,-1.));
#1488 = ORIENTED_EDGE('',*,*,#1489,.T.);
#1489 = EDGE_CURVE('',#1482,#1490,#1492,.T.);
#1490 = VERTEX_POINT('',#1491);
#1491 = CARTESIAN_POINT('',(-72.5,51.999807105919,21.5));
#1492 = CIRCLE('',#1493,20.500192894081);
#1493 = AXIS2_PLACEMENT_3D('',#1494,#1495,#1496);
#1494 = CARTESIAN_POINT('',(-51.99980710591,51.999807105919,21.5));
#1495 = DIRECTION('',(0.,0.,1.));
#1496 = DIRECTION('',(1.,0.,0.));
#1497 = ORIENTED_EDGE('',*,*,#1498,.F.);
#1498 = EDGE_CURVE('',#1206,#1490,#1499,.T.);
#1499 = LINE('',#1500,#1501);
#1500 = CARTESIAN_POINT('',(-72.5,51.999807105919,25.));
#1501 = VECTOR('',#1502,1.);
#1502 = DIRECTION('',(-0.,-0.,-1.));
#1503 = ORIENTED_EDGE('',*,*,#1203,.F.);
#1504 = CYLINDRICAL_SURFACE('',#1505,20.500192894081);
#1505 = AXIS2_PLACEMENT_3D('',#1506,#1507,#1508);
#1506 = CARTESIAN_POINT('',(-51.99980710591,51.999807105919,25.));
#1507 = DIRECTION('',(0.,0.,1.));
#1508 = DIRECTION('',(1.,0.,0.));
#1509 = ADVANCED_FACE('',(#1510),#1528,.T.);
#1510 = FACE_BOUND('',#1511,.T.);
#1511 = EDGE_LOOP('',(#1512,#1520,#1526,#1527));
#1512 = ORIENTED_EDGE('',*,*,#1513,.T.);
#1513 = EDGE_CURVE('',#1257,#1514,#1516,.T.);
#1514 = VERTEX_POINT('',#1515);
#1515 = CARTESIAN_POINT('',(51.999807105919,72.5,21.5));
#1516 = LINE('',#1517,#1518);
#1517 = CARTESIAN_POINT('',(51.999807105919,72.5,25.));
#1518 = VECTOR('',#1519,1.);
#1519 = DIRECTION('',(-0.,-0.,-1.));
#1520 = ORIENTED_EDGE('',*,*,#1521,.T.);
#1521 = EDGE_CURVE('',#1514,#1482,#1522,.T.);
#1522 = LINE('',#1523,#1524);
#1523 = CARTESIAN_POINT('',(51.999807105919,72.5,21.5));
#1524 = VECTOR('',#1525,1.);
#1525 = DIRECTION('',(-1.,0.,0.));
#1526 = ORIENTED_EDGE('',*,*,#1481,.F.);
#1527 = ORIENTED_EDGE('',*,*,#1265,.F.);
#1528 = PLANE('',#1529);
#1529 = AXIS2_PLACEMENT_3D('',#1530,#1531,#1532);
#1530 = CARTESIAN_POINT('',(51.999807105919,72.5,25.));
#1531 = DIRECTION('',(0.,1.,0.));
#1532 = DIRECTION('',(-1.,0.,0.));
#1533 = ADVANCED_FACE('',(#1534),#1553,.T.);
#1534 = FACE_BOUND('',#1535,.T.);
#1535 = EDGE_LOOP('',(#1536,#1544,#1551,#1552));
#1536 = ORIENTED_EDGE('',*,*,#1537,.T.);
#1537 = EDGE_CURVE('',#1249,#1538,#1540,.T.);
#1538 = VERTEX_POINT('',#1539);
#1539 = CARTESIAN_POINT('',(72.5,51.999807105919,21.5));
#1540 = LINE('',#1541,#1542);
#1541 = CARTESIAN_POINT('',(72.5,51.999807105919,25.));
#1542 = VECTOR('',#1543,1.);
#1543 = DIRECTION('',(-0.,-0.,-1.));
#1544 = ORIENTED_EDGE('',*,*,#1545,.T.);
#1545 = EDGE_CURVE('',#1538,#1514,#1546,.T.);
#1546 = CIRCLE('',#1547,20.500192894081);
#1547 = AXIS2_PLACEMENT_3D('',#1548,#1549,#1550);
#1548 = CARTESIAN_POINT('',(51.999807105919,51.999807105919,21.5));
#1549 = DIRECTION('',(0.,0.,1.));
#1550 = DIRECTION('',(1.,0.,0.));
#1551 = ORIENTED_EDGE('',*,*,#1513,.F.);
#1552 = ORIENTED_EDGE('',*,*,#1256,.F.);
#1553 = CYLINDRICAL_SURFACE('',#1554,20.500192894081);
#1554 = AXIS2_PLACEMENT_3D('',#1555,#1556,#1557);
#1555 = CARTESIAN_POINT('',(51.999807105919,51.999807105919,25.));
#1556 = DIRECTION('',(0.,0.,1.));
#1557 = DIRECTION('',(1.,0.,0.));
#1558 = ADVANCED_FACE('',(#1559),#1577,.T.);
#1559 = FACE_BOUND('',#1560,.T.);
#1560 = EDGE_LOOP('',(#1561,#1569,#1575,#1576));
#1561 = ORIENTED_EDGE('',*,*,#1562,.T.);
#1562 = EDGE_CURVE('',#1240,#1563,#1565,.T.);
#1563 = VERTEX_POINT('',#1564);
#1564 = CARTESIAN_POINT('',(72.5,-51.99980710591,21.5));
#1565 = LINE('',#1566,#1567);
#1566 = CARTESIAN_POINT('',(72.5,-51.99980710591,25.));
#1567 = VECTOR('',#1568,1.);
#1568 = DIRECTION('',(-0.,-0.,-1.));
#1569 = ORIENTED_EDGE('',*,*,#1570,.T.);
#1570 = EDGE_CURVE('',#1563,#1538,#1571,.T.);
#1571 = LINE('',#1572,#1573);
#1572 = CARTESIAN_POINT('',(72.5,-51.99980710591,21.5));
#1573 = VECTOR('',#1574,1.);
#1574 = DIRECTION('',(0.,1.,0.));
#1575 = ORIENTED_EDGE('',*,*,#1537,.F.);
#1576 = ORIENTED_EDGE('',*,*,#1248,.F.);
#1577 = PLANE('',#1578);
#1578 = AXIS2_PLACEMENT_3D('',#1579,#1580,#1581);
#1579 = CARTESIAN_POINT('',(72.5,-51.99980710591,25.));
#1580 = DIRECTION('',(1.,0.,0.));
#1581 = DIRECTION('',(0.,1.,0.));
#1582 = ADVANCED_FACE('',(#1583),#1602,.T.);
#1583 = FACE_BOUND('',#1584,.T.);
#1584 = EDGE_LOOP('',(#1585,#1593,#1600,#1601));
#1585 = ORIENTED_EDGE('',*,*,#1586,.T.);
#1586 = EDGE_CURVE('',#1232,#1587,#1589,.T.);
#1587 = VERTEX_POINT('',#1588);
#1588 = CARTESIAN_POINT('',(51.999807105919,-72.5,21.5));
#1589 = LINE('',#1590,#1591);
#1590 = CARTESIAN_POINT('',(51.999807105919,-72.5,25.));
#1591 = VECTOR('',#1592,1.);
#1592 = DIRECTION('',(-0.,-0.,-1.));
#1593 = ORIENTED_EDGE('',*,*,#1594,.T.);
#1594 = EDGE_CURVE('',#1587,#1563,#1595,.T.);
#1595 = CIRCLE('',#1596,20.500192894081);
#1596 = AXIS2_PLACEMENT_3D('',#1597,#1598,#1599);
#1597 = CARTESIAN_POINT('',(51.999807105919,-51.99980710591,21.5));
#1598 = DIRECTION('',(0.,0.,1.));
#1599 = DIRECTION('',(1.,0.,0.));
#1600 = ORIENTED_EDGE('',*,*,#1562,.F.);
#1601 = ORIENTED_EDGE('',*,*,#1239,.F.);
#1602 = CYLINDRICAL_SURFACE('',#1603,20.500192894081);
#1603 = AXIS2_PLACEMENT_3D('',#1604,#1605,#1606);
#1604 = CARTESIAN_POINT('',(51.999807105919,-51.99980710591,25.));
#1605 = DIRECTION('',(0.,0.,1.));
#1606 = DIRECTION('',(1.,0.,0.));
#1607 = ADVANCED_FACE('',(#1608),#1626,.T.);
#1608 = FACE_BOUND('',#1609,.T.);
#1609 = EDGE_LOOP('',(#1610,#1618,#1624,#1625));
#1610 = ORIENTED_EDGE('',*,*,#1611,.T.);
#1611 = EDGE_CURVE('',#1223,#1612,#1614,.T.);
#1612 = VERTEX_POINT('',#1613);
#1613 = CARTESIAN_POINT('',(-51.99980710591,-72.5,21.5));
#1614 = LINE('',#1615,#1616);
#1615 = CARTESIAN_POINT('',(-51.99980710591,-72.5,25.));
#1616 = VECTOR('',#1617,1.);
#1617 = DIRECTION('',(-0.,-0.,-1.));
#1618 = ORIENTED_EDGE('',*,*,#1619,.T.);
#1619 = EDGE_CURVE('',#1612,#1587,#1620,.T.);
#1620 = LINE('',#1621,#1622);
#1621 = CARTESIAN_POINT('',(-51.99980710591,-72.5,21.5));
#1622 = VECTOR('',#1623,1.);
#1623 = DIRECTION('',(1.,0.,0.));
#1624 = ORIENTED_EDGE('',*,*,#1586,.F.);
#1625 = ORIENTED_EDGE('',*,*,#1231,.F.);
#1626 = PLANE('',#1627);
#1627 = AXIS2_PLACEMENT_3D('',#1628,#1629,#1630);
#1628 = CARTESIAN_POINT('',(-51.99980710591,-72.5,25.));
#1629 = DIRECTION('',(0.,-1.,0.));
#1630 = DIRECTION('',(1.,0.,0.));
#1631 = ADVANCED_FACE('',(#1632),#1651,.T.);
#1632 = FACE_BOUND('',#1633,.T.);
#1633 = EDGE_LOOP('',(#1634,#1642,#1649,#1650));
#1634 = ORIENTED_EDGE('',*,*,#1635,.T.);
#1635 = EDGE_CURVE('',#1215,#1636,#1638,.T.);
#1636 = VERTEX_POINT('',#1637);
#1637 = CARTESIAN_POINT('',(-72.5,-51.99980710591,21.5));
#1638 = LINE('',#1639,#1640);
#1639 = CARTESIAN_POINT('',(-72.5,-51.99980710591,25.));
#1640 = VECTOR('',#1641,1.);
#1641 = DIRECTION('',(-0.,-0.,-1.));
#1642 = ORIENTED_EDGE('',*,*,#1643,.T.);
#1643 = EDGE_CURVE('',#1636,#1612,#1644,.T.);
#1644 = CIRCLE('',#1645,20.500192894081);
#1645 = AXIS2_PLACEMENT_3D('',#1646,#1647,#1648);
#1646 = CARTESIAN_POINT('',(-51.99980710591,-51.99980710591,21.5));
#1647 = DIRECTION('',(0.,0.,1.));
#1648 = DIRECTION('',(1.,0.,0.));
#1649 = ORIENTED_EDGE('',*,*,#1611,.F.);
#1650 = ORIENTED_EDGE('',*,*,#1222,.F.);
#1651 = CYLINDRICAL_SURFACE('',#1652,20.500192894081);
#1652 = AXIS2_PLACEMENT_3D('',#1653,#1654,#1655);
#1653 = CARTESIAN_POINT('',(-51.99980710591,-51.99980710591,25.));
#1654 = DIRECTION('',(0.,0.,1.));
#1655 = DIRECTION('',(1.,0.,0.));
#1656 = ADVANCED_FACE('',(#1657),#1668,.T.);
#1657 = FACE_BOUND('',#1658,.T.);
#1658 = EDGE_LOOP('',(#1659,#1660,#1666,#1667));
#1659 = ORIENTED_EDGE('',*,*,#1498,.T.);
#1660 = ORIENTED_EDGE('',*,*,#1661,.T.);
#1661 = EDGE_CURVE('',#1490,#1636,#1662,.T.);
#1662 = LINE('',#1663,#1664);
#1663 = CARTESIAN_POINT('',(-72.5,51.999807105919,21.5));
#1664 = VECTOR('',#1665,1.);
#1665 = DIRECTION('',(0.,-1.,0.));
#1666 = ORIENTED_EDGE('',*,*,#1635,.F.);
#1667 = ORIENTED_EDGE('',*,*,#1214,.F.);
#1668 = PLANE('',#1669);
#1669 = AXIS2_PLACEMENT_3D('',#1670,#1671,#1672);
#1670 = CARTESIAN_POINT('',(-72.5,51.999807105919,25.));
#1671 = DIRECTION('',(-1.,0.,0.));
#1672 = DIRECTION('',(0.,-1.,0.));
#1673 = ADVANCED_FACE('',(#1674,#1684),#1694,.T.);
#1674 = FACE_BOUND('',#1675,.T.);
#1675 = EDGE_LOOP('',(#1676,#1677,#1678,#1679,#1680,#1681,#1682,#1683));
#1676 = ORIENTED_EDGE('',*,*,#1293,.T.);
#1677 = ORIENTED_EDGE('',*,*,#1342,.T.);
#1678 = ORIENTED_EDGE('',*,*,#1391,.T.);
#1679 = ORIENTED_EDGE('',*,*,#1440,.T.);
#1680 = ORIENTED_EDGE('',*,*,#1465,.T.);
#1681 = ORIENTED_EDGE('',*,*,#1422,.T.);
#1682 = ORIENTED_EDGE('',*,*,#1374,.T.);
#1683 = ORIENTED_EDGE('',*,*,#1324,.T.);
#1684 = FACE_BOUND('',#1685,.F.);
#1685 = EDGE_LOOP('',(#1686,#1687,#1688,#1689,#1690,#1691,#1692,#1693));
#1686 = ORIENTED_EDGE('',*,*,#1661,.T.);
#1687 = ORIENTED_EDGE('',*,*,#1643,.T.);
#1688 = ORIENTED_EDGE('',*,*,#1619,.T.);
#1689 = ORIENTED_EDGE('',*,*,#1594,.T.);
#1690 = ORIENTED_EDGE('',*,*,#1570,.T.);
#1691 = ORIENTED_EDGE('',*,*,#1545,.T.);
#1692 = ORIENTED_EDGE('',*,*,#1521,.T.);
#1693 = ORIENTED_EDGE('',*,*,#1489,.T.);
#1694 = PLANE('',#1695);
#1695 = AXIS2_PLACEMENT_3D('',#1696,#1697,#1698);
#1696 = CARTESIAN_POINT('',(2.7E-15,-4.48E-15,21.5));
#1697 = DIRECTION('',(0.,0.,1.));
#1698 = DIRECTION('',(1.,0.,0.));
#1699 = ( GEOMETRIC_REPRESENTATION_CONTEXT(3) 
GLOBAL_UNCERTAINTY_ASSIGNED_CONTEXT((#1703)) 
GLOBAL_UNIT_ASSIGNED_CONTEXT((#1700,#1701,#1702)) REPRESENTATION_CONTEXT
('Context #1','3D Context with UNIT and UNCERTAINTY') );
#1700 = ( LENGTH_UNIT() NAMED_UNIT(*) SI_UNIT(.MILLI.,.METRE.) );
#1701 = ( NAMED_UNIT(*) PLANE_ANGLE_UNIT() SI_UNIT($,.RADIAN.) );
#1702 = ( NAMED_UNIT(*) SI_UNIT($,.STERADIAN.) SOLID_ANGLE_UNIT() );
#1703 = UNCERTAINTY_MEASURE_WITH_UNIT(LENGTH_MEASURE(1.E-07),#1700,
  'distance_accuracy_value','confusion accuracy');
#1704 = PRODUCT_RELATED_PRODUCT_CATEGORY('part',$,(#7));
#1705 = MECHANICAL_DESIGN_GEOMETRIC_PRESENTATION_REPRESENTATION('',(
    #1706),#1699);
#1706 = STYLED_ITEM('color',(#1707),#15);
#1707 = PRESENTATION_STYLE_ASSIGNMENT((#1708,#1716));
#1708 = SURFACE_STYLE_USAGE(.BOTH.,#1709);
#1709 = SURFACE_SIDE_STYLE('',(#1710,#1714));
#1710 = SURFACE_STYLE_FILL_AREA(#1711);
#1711 = FILL_AREA_STYLE('',(#1712));
#1712 = FILL_AREA_STYLE_COLOUR('',#1713);
#1713 = COLOUR_RGB('',0.447058818107,0.474509808674,0.501960817233);
#1714 = SURFACE_STYLE_RENDERING_WITH_PROPERTIES(.NORMAL_SHADING.,#1713,(
    #1715));
#1715 = SURFACE_STYLE_TRANSPARENT(0.699999988079);
#1716 = CURVE_STYLE('',#1717,POSITIVE_LENGTH_MEASURE(0.1),#1718);
#1717 = DRAUGHTING_PRE_DEFINED_CURVE_FONT('continuous');
#1718 = COLOUR_RGB('',9.803921802644E-02,9.803921802644E-02,
  9.803921802644E-02);
ENDSEC;
END-ISO-10303-21;
