ISO-10303-21;
HEADER;
FILE_DESCRIPTION(('FreeCAD Model'),'2;1');
FILE_NAME('Open CASCADE Shape Model','2026-05-27T16:59:57',(''),(''),
  'Open CASCADE STEP processor 7.8','FreeCAD','Unknown');
FILE_SCHEMA(('AUTOMOTIVE_DESIGN { 1 0 10303 214 1 1 1 1 }'));
ENDSEC;
DATA;
#1 = APPLICATION_PROTOCOL_DEFINITION('international standard',
  'automotive_design',2000,#2);
#2 = APPLICATION_CONTEXT(
  'core data for automotive mechanical design processes');
#3 = SHAPE_DEFINITION_REPRESENTATION(#4,#10);
#4 = PRODUCT_DEFINITION_SHAPE('','',#5);
#5 = PRODUCT_DEFINITION('design','',#6,#9);
#6 = PRODUCT_DEFINITION_FORMATION('','',#7);
#7 = PRODUCT('Fusion','Fusion','',(#8));
#8 = PRODUCT_CONTEXT('',#2,'mechanical');
#9 = PRODUCT_DEFINITION_CONTEXT('part definition',#2,'design');
#10 = ADVANCED_BREP_SHAPE_REPRESENTATION('',(#11,#15),#1514);
#11 = AXIS2_PLACEMENT_3D('',#12,#13,#14);
#12 = CARTESIAN_POINT('',(0.,0.,0.));
#13 = DIRECTION('',(0.,0.,1.));
#14 = DIRECTION('',(1.,0.,-0.));
#15 = MANIFOLD_SOLID_BREP('',#16);
#16 = CLOSED_SHELL('',(#17,#220,#246,#397,#424,#444,#475,#497,#528,#559,
    #590,#599,#624,#656,#680,#706,#739,#763,#788,#805,#822,#831,#860,
    #885,#962,#1001,#1025,#1065,#1082,#1129,#1153,#1185,#1202,#1220,
    #1238,#1262,#1280,#1298,#1409,#1434,#1460,#1480,#1505));
#17 = ADVANCED_FACE('',(#18,#45),#215,.T.);
#18 = FACE_BOUND('',#19,.F.);
#19 = EDGE_LOOP('',(#20,#29,#37,#44));
#20 = ORIENTED_EDGE('',*,*,#21,.F.);
#21 = EDGE_CURVE('',#22,#22,#24,.T.);
#22 = VERTEX_POINT('',#23);
#23 = CARTESIAN_POINT('',(14.,0.,6.));
#24 = CIRCLE('',#25,14.);
#25 = AXIS2_PLACEMENT_3D('',#26,#27,#28);
#26 = CARTESIAN_POINT('',(0.,0.,6.));
#27 = DIRECTION('',(0.,0.,1.));
#28 = DIRECTION('',(1.,0.,0.));
#29 = ORIENTED_EDGE('',*,*,#30,.F.);
#30 = EDGE_CURVE('',#31,#22,#33,.T.);
#31 = VERTEX_POINT('',#32);
#32 = CARTESIAN_POINT('',(14.,0.,17.45352091053));
#33 = LINE('',#34,#35);
#34 = CARTESIAN_POINT('',(14.,0.,17.45352091053));
#35 = VECTOR('',#36,1.);
#36 = DIRECTION('',(0.,0.,-1.));
#37 = ORIENTED_EDGE('',*,*,#38,.T.);
#38 = EDGE_CURVE('',#31,#31,#39,.T.);
#39 = CIRCLE('',#40,14.);
#40 = AXIS2_PLACEMENT_3D('',#41,#42,#43);
#41 = CARTESIAN_POINT('',(0.,0.,17.45352091053));
#42 = DIRECTION('',(0.,0.,1.));
#43 = DIRECTION('',(1.,0.,0.));
#44 = ORIENTED_EDGE('',*,*,#30,.T.);
#45 = FACE_BOUND('',#46,.F.);
#46 = EDGE_LOOP('',(#47,#105,#161));
#47 = ORIENTED_EDGE('',*,*,#48,.T.);
#48 = EDGE_CURVE('',#49,#51,#53,.T.);
#49 = VERTEX_POINT('',#50);
#50 = CARTESIAN_POINT('',(0.,14.,10.5));
#51 = VERTEX_POINT('',#52);
#52 = CARTESIAN_POINT('',(-2.,13.856406460551,12.5));
#53 = B_SPLINE_CURVE_WITH_KNOTS('',8,(#54,#55,#56,#57,#58,#59,#60,#61,
    #62,#63,#64,#65,#66,#67,#68,#69,#70,#71,#72,#73,#74,#75,#76,#77,#78,
    #79,#80,#81,#82,#83,#84,#85,#86,#87,#88,#89,#90,#91,#92,#93,#94,#95,
    #96,#97,#98,#99,#100,#101,#102,#103,#104),.UNSPECIFIED.,.T.,.F.,(9,7
    ,7,7,7,7,7,9),(0.,0.153872311945,0.286411889099,0.411834107951,
    0.568498764436,0.70704019428,0.828361317433,1.),.UNSPECIFIED.);
#54 = CARTESIAN_POINT('',(-2.,13.856406460551,12.5));
#55 = CARTESIAN_POINT('',(-2.,13.856406460551,12.708936226943));
#56 = CARTESIAN_POINT('',(-1.975054492482,13.860006868168,
    12.917677366928));
#57 = CARTESIAN_POINT('',(-1.925246070145,13.867196724019,13.12458836709
    ));
#58 = CARTESIAN_POINT('',(-1.850003965933,13.877799391413,
    13.327795814811));
#59 = CARTESIAN_POINT('',(-1.748388333352,13.891443638203,
    13.524846773281));
#60 = CARTESIAN_POINT('',(-1.619281097695,13.907456044382,
    13.712508941203));
#61 = CARTESIAN_POINT('',(-1.461624440489,13.924756052841,
    13.886511559206));
#62 = CARTESIAN_POINT('',(-1.113966058316,13.956546099609,
    14.174119585559));
#63 = CARTESIAN_POINT('',(-0.92552573607,13.971637770908,14.297679615046
    ));
#64 = CARTESIAN_POINT('',(-0.712326333185,13.985579921323,
    14.401168175279));
#65 = CARTESIAN_POINT('',(-0.479540297705,13.996539979365,
    14.476729933458));
#66 = CARTESIAN_POINT('',(-0.234200044613,14.002851057478,
    14.519173590127));
#67 = CARTESIAN_POINT('',(1.572888180703E-02,14.003756206603,
    14.526015730657));
#68 = CARTESIAN_POINT('',(0.262079993777,13.999526778915,14.497581037507
    ));
#69 = CARTESIAN_POINT('',(0.720043986831,13.983246356463,14.379995869471
    ));
#70 = CARTESIAN_POINT('',(0.92628208148,13.971859606222,14.295865291723)
  );
#71 = CARTESIAN_POINT('',(1.113986447153,13.95811510935,14.189681024731)
  );
#72 = CARTESIAN_POINT('',(1.281980293089,13.9431966156,14.065725116016)
  );
#73 = CARTESIAN_POINT('',(1.429718702594,13.928166424186,13.927824588418
    ));
#74 = CARTESIAN_POINT('',(1.557128221646,13.913882445324,13.779443737735
    ));
#75 = CARTESIAN_POINT('',(1.664532732207,13.900978832454,13.623725415535
    ));
#76 = CARTESIAN_POINT('',(1.862634705877,13.875982465053,13.263379263157
    ));
#77 = CARTESIAN_POINT('',(1.943652597644,13.864747897837,13.054143998794
    ));
#78 = CARTESIAN_POINT('',(1.996860063743,13.856939912929,12.839311199771
    ));
#79 = CARTESIAN_POINT('',(2.023090346602,13.852986074741,12.621474076486
    ));
#80 = CARTESIAN_POINT('',(2.022759233534,13.853058303008,12.402822858443
    ));
#81 = CARTESIAN_POINT('',(1.995832474881,13.8571225595,12.185418386671)
  );
#82 = CARTESIAN_POINT('',(1.941789291276,13.864931973021,11.971456128088
    ));
#83 = CARTESIAN_POINT('',(1.786829885764,13.885698491161,11.580073346197
    ));
#84 = CARTESIAN_POINT('',(1.691687998815,13.89800502909,11.400349575807)
  );
#85 = CARTESIAN_POINT('',(1.573234862526,13.912516356828,11.227247646746
    ));
#86 = CARTESIAN_POINT('',(1.430707371893,13.928619339743,11.06397686299)
  );
#87 = CARTESIAN_POINT('',(1.263599120852,13.945413647446,10.914361352528
    ));
#88 = CARTESIAN_POINT('',(1.071822377013,13.961662782988,10.782948411256
    ));
#89 = CARTESIAN_POINT('',(0.856006420113,13.975836091802,10.67520889752)
  );
#90 = CARTESIAN_POINT('',(0.409640855483,13.995560255486,10.530175933852
    ));
#91 = CARTESIAN_POINT('',(0.187346665856,14.001827564663,10.486795861188
    ));
#92 = CARTESIAN_POINT('',(-4.277011197805E-02,14.004064285252,
    10.472348762449));
#93 = CARTESIAN_POINT('',(-0.273688478498,14.001642912589,
    10.488744609656));
#94 = CARTESIAN_POINT('',(-0.498167206036,13.994729022162,
    10.535304120569));
#95 = CARTESIAN_POINT('',(-0.709420442755,13.984359458787,
    10.608828556239));
#96 = CARTESIAN_POINT('',(-0.901874793623,13.971958223094,
    10.703599248528));
#97 = CARTESIAN_POINT('',(-1.311847615313,13.940483816694,
    10.963775912641));
#98 = CARTESIAN_POINT('',(-1.514331298604,13.920187251443,
    11.147046568898));
#99 = CARTESIAN_POINT('',(-1.679574917103,13.900585190146,
    11.351140059517));
#100 = CARTESIAN_POINT('',(-1.809222253444,13.88352997846,
    11.569261955342));
#101 = CARTESIAN_POINT('',(-1.904985571931,13.870119900815,
    11.796464697187));
#102 = CARTESIAN_POINT('',(-1.968293739709,13.860983010023,
    12.029111271237));
#103 = CARTESIAN_POINT('',(-2.,13.856406460551,12.264446082863));
#104 = CARTESIAN_POINT('',(-2.,13.856406460551,12.5));
#105 = ORIENTED_EDGE('',*,*,#106,.T.);
#106 = EDGE_CURVE('',#51,#107,#109,.T.);
#107 = VERTEX_POINT('',#108);
#108 = CARTESIAN_POINT('',(0.,14.,14.5));
#109 = B_SPLINE_CURVE_WITH_KNOTS('',8,(#110,#111,#112,#113,#114,#115,
    #116,#117,#118,#119,#120,#121,#122,#123,#124,#125,#126,#127,#128,
    #129,#130,#131,#132,#133,#134,#135,#136,#137,#138,#139,#140,#141,
    #142,#143,#144,#145,#146,#147,#148,#149,#150,#151,#152,#153,#154,
    #155,#156,#157,#158,#159,#160),.UNSPECIFIED.,.T.,.F.,(9,7,7,7,7,7,7,
    9),(0.,0.153872311945,0.286411889099,0.411834107951,0.568498764436,
    0.70704019428,0.828361317433,1.),.UNSPECIFIED.);
#110 = CARTESIAN_POINT('',(-2.,13.856406460551,12.5));
#111 = CARTESIAN_POINT('',(-2.,13.856406460551,12.708936226943));
#112 = CARTESIAN_POINT('',(-1.975054492482,13.860006868168,
    12.917677366928));
#113 = CARTESIAN_POINT('',(-1.925246070145,13.867196724019,
    13.12458836709));
#114 = CARTESIAN_POINT('',(-1.850003965933,13.877799391413,
    13.327795814811));
#115 = CARTESIAN_POINT('',(-1.748388333352,13.891443638203,
    13.524846773281));
#116 = CARTESIAN_POINT('',(-1.619281097695,13.907456044382,
    13.712508941203));
#117 = CARTESIAN_POINT('',(-1.461624440489,13.924756052841,
    13.886511559206));
#118 = CARTESIAN_POINT('',(-1.113966058316,13.956546099609,
    14.174119585559));
#119 = CARTESIAN_POINT('',(-0.92552573607,13.971637770908,
    14.297679615046));
#120 = CARTESIAN_POINT('',(-0.712326333185,13.985579921323,
    14.401168175279));
#121 = CARTESIAN_POINT('',(-0.479540297705,13.996539979365,
    14.476729933458));
#122 = CARTESIAN_POINT('',(-0.234200044613,14.002851057478,
    14.519173590127));
#123 = CARTESIAN_POINT('',(1.572888180703E-02,14.003756206603,
    14.526015730657));
#124 = CARTESIAN_POINT('',(0.262079993777,13.999526778915,
    14.497581037507));
#125 = CARTESIAN_POINT('',(0.720043986831,13.983246356463,
    14.379995869471));
#126 = CARTESIAN_POINT('',(0.92628208148,13.971859606222,14.295865291723
    ));
#127 = CARTESIAN_POINT('',(1.113986447153,13.95811510935,14.189681024731
    ));
#128 = CARTESIAN_POINT('',(1.281980293089,13.9431966156,14.065725116016)
  );
#129 = CARTESIAN_POINT('',(1.429718702594,13.928166424186,
    13.927824588418));
#130 = CARTESIAN_POINT('',(1.557128221646,13.913882445324,
    13.779443737735));
#131 = CARTESIAN_POINT('',(1.664532732207,13.900978832454,
    13.623725415535));
#132 = CARTESIAN_POINT('',(1.862634705877,13.875982465053,
    13.263379263157));
#133 = CARTESIAN_POINT('',(1.943652597644,13.864747897837,
    13.054143998794));
#134 = CARTESIAN_POINT('',(1.996860063743,13.856939912929,
    12.839311199771));
#135 = CARTESIAN_POINT('',(2.023090346602,13.852986074741,
    12.621474076486));
#136 = CARTESIAN_POINT('',(2.022759233534,13.853058303008,
    12.402822858443));
#137 = CARTESIAN_POINT('',(1.995832474881,13.8571225595,12.185418386671)
  );
#138 = CARTESIAN_POINT('',(1.941789291276,13.864931973021,
    11.971456128088));
#139 = CARTESIAN_POINT('',(1.786829885764,13.885698491161,
    11.580073346197));
#140 = CARTESIAN_POINT('',(1.691687998815,13.89800502909,11.400349575807
    ));
#141 = CARTESIAN_POINT('',(1.573234862526,13.912516356828,
    11.227247646746));
#142 = CARTESIAN_POINT('',(1.430707371893,13.928619339743,11.06397686299
    ));
#143 = CARTESIAN_POINT('',(1.263599120852,13.945413647446,
    10.914361352528));
#144 = CARTESIAN_POINT('',(1.071822377013,13.961662782988,
    10.782948411256));
#145 = CARTESIAN_POINT('',(0.856006420113,13.975836091802,10.67520889752
    ));
#146 = CARTESIAN_POINT('',(0.409640855483,13.995560255486,
    10.530175933852));
#147 = CARTESIAN_POINT('',(0.187346665856,14.001827564663,
    10.486795861188));
#148 = CARTESIAN_POINT('',(-4.277011197805E-02,14.004064285252,
    10.472348762449));
#149 = CARTESIAN_POINT('',(-0.273688478498,14.001642912589,
    10.488744609656));
#150 = CARTESIAN_POINT('',(-0.498167206036,13.994729022162,
    10.535304120569));
#151 = CARTESIAN_POINT('',(-0.709420442755,13.984359458787,
    10.608828556239));
#152 = CARTESIAN_POINT('',(-0.901874793623,13.971958223094,
    10.703599248528));
#153 = CARTESIAN_POINT('',(-1.311847615313,13.940483816694,
    10.963775912641));
#154 = CARTESIAN_POINT('',(-1.514331298604,13.920187251443,
    11.147046568898));
#155 = CARTESIAN_POINT('',(-1.679574917103,13.900585190146,
    11.351140059517));
#156 = CARTESIAN_POINT('',(-1.809222253444,13.88352997846,
    11.569261955342));
#157 = CARTESIAN_POINT('',(-1.904985571931,13.870119900815,
    11.796464697187));
#158 = CARTESIAN_POINT('',(-1.968293739709,13.860983010023,
    12.029111271237));
#159 = CARTESIAN_POINT('',(-2.,13.856406460551,12.264446082863));
#160 = CARTESIAN_POINT('',(-2.,13.856406460551,12.5));
#161 = ORIENTED_EDGE('',*,*,#162,.T.);
#162 = EDGE_CURVE('',#107,#49,#163,.T.);
#163 = B_SPLINE_CURVE_WITH_KNOTS('',8,(#164,#165,#166,#167,#168,#169,
    #170,#171,#172,#173,#174,#175,#176,#177,#178,#179,#180,#181,#182,
    #183,#184,#185,#186,#187,#188,#189,#190,#191,#192,#193,#194,#195,
    #196,#197,#198,#199,#200,#201,#202,#203,#204,#205,#206,#207,#208,
    #209,#210,#211,#212,#213,#214),.UNSPECIFIED.,.T.,.F.,(9,7,7,7,7,7,7,
    9),(0.,0.153872311945,0.286411889099,0.411834107951,0.568498764436,
    0.70704019428,0.828361317433,1.),.UNSPECIFIED.);
#164 = CARTESIAN_POINT('',(-2.,13.856406460551,12.5));
#165 = CARTESIAN_POINT('',(-2.,13.856406460551,12.708936226943));
#166 = CARTESIAN_POINT('',(-1.975054492482,13.860006868168,
    12.917677366928));
#167 = CARTESIAN_POINT('',(-1.925246070145,13.867196724019,
    13.12458836709));
#168 = CARTESIAN_POINT('',(-1.850003965933,13.877799391413,
    13.327795814811));
#169 = CARTESIAN_POINT('',(-1.748388333352,13.891443638203,
    13.524846773281));
#170 = CARTESIAN_POINT('',(-1.619281097695,13.907456044382,
    13.712508941203));
#171 = CARTESIAN_POINT('',(-1.461624440489,13.924756052841,
    13.886511559206));
#172 = CARTESIAN_POINT('',(-1.113966058316,13.956546099609,
    14.174119585559));
#173 = CARTESIAN_POINT('',(-0.92552573607,13.971637770908,
    14.297679615046));
#174 = CARTESIAN_POINT('',(-0.712326333185,13.985579921323,
    14.401168175279));
#175 = CARTESIAN_POINT('',(-0.479540297705,13.996539979365,
    14.476729933458));
#176 = CARTESIAN_POINT('',(-0.234200044613,14.002851057478,
    14.519173590127));
#177 = CARTESIAN_POINT('',(1.572888180703E-02,14.003756206603,
    14.526015730657));
#178 = CARTESIAN_POINT('',(0.262079993777,13.999526778915,
    14.497581037507));
#179 = CARTESIAN_POINT('',(0.720043986831,13.983246356463,
    14.379995869471));
#180 = CARTESIAN_POINT('',(0.92628208148,13.971859606222,14.295865291723
    ));
#181 = CARTESIAN_POINT('',(1.113986447153,13.95811510935,14.189681024731
    ));
#182 = CARTESIAN_POINT('',(1.281980293089,13.9431966156,14.065725116016)
  );
#183 = CARTESIAN_POINT('',(1.429718702594,13.928166424186,
    13.927824588418));
#184 = CARTESIAN_POINT('',(1.557128221646,13.913882445324,
    13.779443737735));
#185 = CARTESIAN_POINT('',(1.664532732207,13.900978832454,
    13.623725415535));
#186 = CARTESIAN_POINT('',(1.862634705877,13.875982465053,
    13.263379263157));
#187 = CARTESIAN_POINT('',(1.943652597644,13.864747897837,
    13.054143998794));
#188 = CARTESIAN_POINT('',(1.996860063743,13.856939912929,
    12.839311199771));
#189 = CARTESIAN_POINT('',(2.023090346602,13.852986074741,
    12.621474076486));
#190 = CARTESIAN_POINT('',(2.022759233534,13.853058303008,
    12.402822858443));
#191 = CARTESIAN_POINT('',(1.995832474881,13.8571225595,12.185418386671)
  );
#192 = CARTESIAN_POINT('',(1.941789291276,13.864931973021,
    11.971456128088));
#193 = CARTESIAN_POINT('',(1.786829885764,13.885698491161,
    11.580073346197));
#194 = CARTESIAN_POINT('',(1.691687998815,13.89800502909,11.400349575807
    ));
#195 = CARTESIAN_POINT('',(1.573234862526,13.912516356828,
    11.227247646746));
#196 = CARTESIAN_POINT('',(1.430707371893,13.928619339743,11.06397686299
    ));
#197 = CARTESIAN_POINT('',(1.263599120852,13.945413647446,
    10.914361352528));
#198 = CARTESIAN_POINT('',(1.071822377013,13.961662782988,
    10.782948411256));
#199 = CARTESIAN_POINT('',(0.856006420113,13.975836091802,10.67520889752
    ));
#200 = CARTESIAN_POINT('',(0.409640855483,13.995560255486,
    10.530175933852));
#201 = CARTESIAN_POINT('',(0.187346665856,14.001827564663,
    10.486795861188));
#202 = CARTESIAN_POINT('',(-4.277011197805E-02,14.004064285252,
    10.472348762449));
#203 = CARTESIAN_POINT('',(-0.273688478498,14.001642912589,
    10.488744609656));
#204 = CARTESIAN_POINT('',(-0.498167206036,13.994729022162,
    10.535304120569));
#205 = CARTESIAN_POINT('',(-0.709420442755,13.984359458787,
    10.608828556239));
#206 = CARTESIAN_POINT('',(-0.901874793623,13.971958223094,
    10.703599248528));
#207 = CARTESIAN_POINT('',(-1.311847615313,13.940483816694,
    10.963775912641));
#208 = CARTESIAN_POINT('',(-1.514331298604,13.920187251443,
    11.147046568898));
#209 = CARTESIAN_POINT('',(-1.679574917103,13.900585190146,
    11.351140059517));
#210 = CARTESIAN_POINT('',(-1.809222253444,13.88352997846,
    11.569261955342));
#211 = CARTESIAN_POINT('',(-1.904985571931,13.870119900815,
    11.796464697187));
#212 = CARTESIAN_POINT('',(-1.968293739709,13.860983010023,
    12.029111271237));
#213 = CARTESIAN_POINT('',(-2.,13.856406460551,12.264446082863));
#214 = CARTESIAN_POINT('',(-2.,13.856406460551,12.5));
#215 = CYLINDRICAL_SURFACE('',#216,14.);
#216 = AXIS2_PLACEMENT_3D('',#217,#218,#219);
#217 = CARTESIAN_POINT('',(0.,0.,17.45352091053));
#218 = DIRECTION('',(0.,0.,-1.));
#219 = DIRECTION('',(1.,0.,0.));
#220 = ADVANCED_FACE('',(#221),#241,.T.);
#221 = FACE_BOUND('',#222,.F.);
#222 = EDGE_LOOP('',(#223,#232,#233,#234));
#223 = ORIENTED_EDGE('',*,*,#224,.F.);
#224 = EDGE_CURVE('',#22,#225,#227,.T.);
#225 = VERTEX_POINT('',#226);
#226 = CARTESIAN_POINT('',(13.,0.,5.));
#227 = CIRCLE('',#228,1.);
#228 = AXIS2_PLACEMENT_3D('',#229,#230,#231);
#229 = CARTESIAN_POINT('',(13.,0.,6.));
#230 = DIRECTION('',(-0.,1.,0.));
#231 = DIRECTION('',(1.,0.,0.));
#232 = ORIENTED_EDGE('',*,*,#21,.F.);
#233 = ORIENTED_EDGE('',*,*,#224,.T.);
#234 = ORIENTED_EDGE('',*,*,#235,.T.);
#235 = EDGE_CURVE('',#225,#225,#236,.T.);
#236 = CIRCLE('',#237,13.);
#237 = AXIS2_PLACEMENT_3D('',#238,#239,#240);
#238 = CARTESIAN_POINT('',(0.,0.,5.));
#239 = DIRECTION('',(0.,0.,1.));
#240 = DIRECTION('',(1.,0.,0.));
#241 = TOROIDAL_SURFACE('',#242,13.,1.);
#242 = AXIS2_PLACEMENT_3D('',#243,#244,#245);
#243 = CARTESIAN_POINT('',(0.,0.,6.));
#244 = DIRECTION('',(0.,0.,-1.));
#245 = DIRECTION('',(1.,0.,0.));
#246 = ADVANCED_FACE('',(#247),#350,.F.);
#247 = FACE_BOUND('',#248,.F.);
#248 = EDGE_LOOP('',(#249,#296,#305,#314,#323,#332,#341,#348,#349));
#249 = ORIENTED_EDGE('',*,*,#250,.F.);
#250 = EDGE_CURVE('',#251,#31,#253,.T.);
#251 = VERTEX_POINT('',#252);
#252 = CARTESIAN_POINT('',(10.,0.,20.));
#253 = B_SPLINE_CURVE_WITH_KNOTS('',3,(#254,#255,#256,#257,#258,#259,
    #260,#261,#262,#263,#264,#265,#266,#267,#268,#269,#270,#271,#272,
    #273,#274,#275,#276,#277,#278,#279,#280,#281,#282,#283,#284,#285,
    #286,#287,#288,#289,#290,#291,#292,#293,#294,#295),.UNSPECIFIED.,.F.
  ,.F.,(4,1,1,1,1,1,1,1,1,1,1,1,1,1,1,1,1,1,1,1,1,1,1,1,1,1,1,1,1,1,1,1,
    1,1,1,1,1,1,1,4),(0.,0.205058888639,0.409785171018,0.613846780362,
    0.816912728003,1.018653640236,1.21874229257,1.416854140487,
    1.612667845851,1.805865798122,1.996134629525,2.183165723325,
    2.366655714412,2.546306981359,2.721828129162,2.892934461888,
    3.059348444449,3.22080015277,3.377027711601,3.527777719284,
    3.67280565877,3.811876294229,3.944764052602,4.07125338948,
    4.191139138722,4.304226845235,4.410333080383,4.509285739508,
    4.600924321089,4.685100187081,4.76167680401,4.830529964441,
    4.891547988459,4.944631904841,4.98969561164,5.02666601595,
    5.055483152733,5.076100282871,5.088483972427,5.092614184697),
  .UNSPECIFIED.);
#254 = CARTESIAN_POINT('',(10.,0.,20.));
#255 = CARTESIAN_POINT('',(10.068357420571,0.,20.));
#256 = CARTESIAN_POINT('',(10.204961958398,0.,19.997249749925));
#257 = CARTESIAN_POINT('',(10.4092596537,0.,19.984897038064));
#258 = CARTESIAN_POINT('',(10.612233600227,0.,19.964398217664));
#259 = CARTESIAN_POINT('',(10.813232445529,0.,19.935886231444));
#260 = CARTESIAN_POINT('',(11.011617843538,0.,19.899545990573));
#261 = CARTESIAN_POINT('',(11.206768344895,0.,19.855613175459));
#262 = CARTESIAN_POINT('',(11.398083493715,0.,19.804372707266));
#263 = CARTESIAN_POINT('',(11.584987704131,0.,19.746156900094));
#264 = CARTESIAN_POINT('',(11.766933997857,0.,19.68134330579));
#265 = CARTESIAN_POINT('',(11.943407550312,0.,19.610352265385));
#266 = CARTESIAN_POINT('',(12.113929029778,0.,19.533644183018));
#267 = CARTESIAN_POINT('',(12.27805770595,0.,19.451716540037));
#268 = CARTESIAN_POINT('',(12.435394308263,0.,19.365100668645));
#269 = CARTESIAN_POINT('',(12.585583615295,0.,19.274358306006));
#270 = CARTESIAN_POINT('',(12.728316758505,0.,19.180077951163));
#271 = CARTESIAN_POINT('',(12.863333225348,0.,19.082871048393));
#272 = CARTESIAN_POINT('',(12.99042254878,0.,18.983368021763));
#273 = CARTESIAN_POINT('',(13.109425672193,0.,18.882214186584));
#274 = CARTESIAN_POINT('',(13.220235980933,0.,18.78006556429));
#275 = CARTESIAN_POINT('',(13.32279999369,0.,18.677584627897));
#276 = CARTESIAN_POINT('',(13.417117709299,0.,18.575436005599));
#277 = CARTESIAN_POINT('',(13.503242606679,0.,18.474282170412));
#278 = CARTESIAN_POINT('',(13.581281297904,0.,18.374779143769));
#279 = CARTESIAN_POINT('',(13.651392836674,0.,18.277572240982));
#280 = CARTESIAN_POINT('',(13.713787686533,0.,18.183291886114));
#281 = CARTESIAN_POINT('',(13.768726355945,0.,18.092549523442));
#282 = CARTESIAN_POINT('',(13.816517707493,0.,18.005933652009));
#283 = CARTESIAN_POINT('',(13.857516957267,0.,17.924006008968));
#284 = CARTESIAN_POINT('',(13.892123360052,0.,17.847297926535));
#285 = CARTESIAN_POINT('',(13.92077765187,0.,17.77630688599));
#286 = CARTESIAN_POINT('',(13.943959081154,0.,17.711493291655));
#287 = CARTESIAN_POINT('',(13.962182638387,0.,17.653277483907));
#288 = CARTESIAN_POINT('',(13.975994643759,0.,17.602037016478));
#289 = CARTESIAN_POINT('',(13.985972393778,0.,17.558104197632));
#290 = CARTESIAN_POINT('',(13.992711042064,0.,17.521763964639));
#291 = CARTESIAN_POINT('',(13.99684536456,0.,17.493251953617));
#292 = CARTESIAN_POINT('',(13.998979454444,0.,17.472753179425));
#293 = CARTESIAN_POINT('',(13.999829147973,0.,17.460400350269));
#294 = CARTESIAN_POINT('',(13.999977821321,0.,17.454897700175));
#295 = CARTESIAN_POINT('',(14.,0.,17.45352091053));
#296 = ORIENTED_EDGE('',*,*,#297,.T.);
#297 = EDGE_CURVE('',#251,#298,#300,.T.);
#298 = VERTEX_POINT('',#299);
#299 = CARTESIAN_POINT('',(8.,6.,20.));
#300 = CIRCLE('',#301,10.);
#301 = AXIS2_PLACEMENT_3D('',#302,#303,#304);
#302 = CARTESIAN_POINT('',(0.,0.,20.));
#303 = DIRECTION('',(0.,0.,1.));
#304 = DIRECTION('',(1.,0.,0.));
#305 = ORIENTED_EDGE('',*,*,#306,.T.);
#306 = EDGE_CURVE('',#298,#307,#309,.T.);
#307 = VERTEX_POINT('',#308);
#308 = CARTESIAN_POINT('',(-8.,6.,20.));
#309 = CIRCLE('',#310,10.);
#310 = AXIS2_PLACEMENT_3D('',#311,#312,#313);
#311 = CARTESIAN_POINT('',(0.,0.,20.));
#312 = DIRECTION('',(0.,0.,1.));
#313 = DIRECTION('',(1.,0.,0.));
#314 = ORIENTED_EDGE('',*,*,#315,.T.);
#315 = EDGE_CURVE('',#307,#316,#318,.T.);
#316 = VERTEX_POINT('',#317);
#317 = CARTESIAN_POINT('',(-10.,-3.E-15,20.));
#318 = CIRCLE('',#319,10.);
#319 = AXIS2_PLACEMENT_3D('',#320,#321,#322);
#320 = CARTESIAN_POINT('',(0.,0.,20.));
#321 = DIRECTION('',(0.,0.,1.));
#322 = DIRECTION('',(1.,0.,0.));
#323 = ORIENTED_EDGE('',*,*,#324,.T.);
#324 = EDGE_CURVE('',#316,#325,#327,.T.);
#325 = VERTEX_POINT('',#326);
#326 = CARTESIAN_POINT('',(-8.,-6.,20.));
#327 = CIRCLE('',#328,10.);
#328 = AXIS2_PLACEMENT_3D('',#329,#330,#331);
#329 = CARTESIAN_POINT('',(0.,0.,20.));
#330 = DIRECTION('',(0.,0.,1.));
#331 = DIRECTION('',(1.,0.,0.));
#332 = ORIENTED_EDGE('',*,*,#333,.T.);
#333 = EDGE_CURVE('',#325,#334,#336,.T.);
#334 = VERTEX_POINT('',#335);
#335 = CARTESIAN_POINT('',(8.,-6.,20.));
#336 = CIRCLE('',#337,10.);
#337 = AXIS2_PLACEMENT_3D('',#338,#339,#340);
#338 = CARTESIAN_POINT('',(0.,0.,20.));
#339 = DIRECTION('',(0.,0.,1.));
#340 = DIRECTION('',(1.,0.,0.));
#341 = ORIENTED_EDGE('',*,*,#342,.T.);
#342 = EDGE_CURVE('',#334,#251,#343,.T.);
#343 = CIRCLE('',#344,10.);
#344 = AXIS2_PLACEMENT_3D('',#345,#346,#347);
#345 = CARTESIAN_POINT('',(0.,0.,20.));
#346 = DIRECTION('',(0.,0.,1.));
#347 = DIRECTION('',(1.,0.,0.));
#348 = ORIENTED_EDGE('',*,*,#250,.T.);
#349 = ORIENTED_EDGE('',*,*,#38,.F.);
#350 = SURFACE_OF_REVOLUTION('',#351,#394);
#351 = B_SPLINE_CURVE_WITH_KNOTS('',3,(#352,#353,#354,#355,#356,#357,
    #358,#359,#360,#361,#362,#363,#364,#365,#366,#367,#368,#369,#370,
    #371,#372,#373,#374,#375,#376,#377,#378,#379,#380,#381,#382,#383,
    #384,#385,#386,#387,#388,#389,#390,#391,#392,#393),.UNSPECIFIED.,.F.
  ,.F.,(4,1,1,1,1,1,1,1,1,1,1,1,1,1,1,1,1,1,1,1,1,1,1,1,1,1,1,1,1,1,1,1,
    1,1,1,1,1,1,1,4),(0.,0.205058888639,0.409785171018,0.613846780362,
    0.816912728003,1.018653640236,1.21874229257,1.416854140487,
    1.612667845851,1.805865798122,1.996134629525,2.183165723325,
    2.366655714412,2.546306981359,2.721828129162,2.892934461888,
    3.059348444449,3.22080015277,3.377027711601,3.527777719284,
    3.67280565877,3.811876294229,3.944764052602,4.07125338948,
    4.191139138722,4.304226845235,4.410333080383,4.509285739508,
    4.600924321089,4.685100187081,4.76167680401,4.830529964441,
    4.891547988459,4.944631904841,4.98969561164,5.02666601595,
    5.055483152733,5.076100282871,5.088483972427,5.092614184697),
  .UNSPECIFIED.);
#352 = CARTESIAN_POINT('',(10.,0.,20.));
#353 = CARTESIAN_POINT('',(10.068357420571,0.,20.));
#354 = CARTESIAN_POINT('',(10.204961958398,0.,19.997249749925));
#355 = CARTESIAN_POINT('',(10.4092596537,0.,19.984897038064));
#356 = CARTESIAN_POINT('',(10.612233600227,0.,19.964398217664));
#357 = CARTESIAN_POINT('',(10.813232445529,0.,19.935886231444));
#358 = CARTESIAN_POINT('',(11.011617843538,0.,19.899545990573));
#359 = CARTESIAN_POINT('',(11.206768344895,0.,19.855613175459));
#360 = CARTESIAN_POINT('',(11.398083493715,0.,19.804372707266));
#361 = CARTESIAN_POINT('',(11.584987704131,0.,19.746156900094));
#362 = CARTESIAN_POINT('',(11.766933997857,0.,19.68134330579));
#363 = CARTESIAN_POINT('',(11.943407550312,0.,19.610352265385));
#364 = CARTESIAN_POINT('',(12.113929029778,0.,19.533644183018));
#365 = CARTESIAN_POINT('',(12.27805770595,0.,19.451716540037));
#366 = CARTESIAN_POINT('',(12.435394308263,0.,19.365100668645));
#367 = CARTESIAN_POINT('',(12.585583615295,0.,19.274358306006));
#368 = CARTESIAN_POINT('',(12.728316758505,0.,19.180077951163));
#369 = CARTESIAN_POINT('',(12.863333225348,0.,19.082871048393));
#370 = CARTESIAN_POINT('',(12.99042254878,0.,18.983368021763));
#371 = CARTESIAN_POINT('',(13.109425672193,0.,18.882214186584));
#372 = CARTESIAN_POINT('',(13.220235980933,0.,18.78006556429));
#373 = CARTESIAN_POINT('',(13.32279999369,0.,18.677584627897));
#374 = CARTESIAN_POINT('',(13.417117709299,0.,18.575436005599));
#375 = CARTESIAN_POINT('',(13.503242606679,0.,18.474282170412));
#376 = CARTESIAN_POINT('',(13.581281297904,0.,18.374779143769));
#377 = CARTESIAN_POINT('',(13.651392836674,0.,18.277572240982));
#378 = CARTESIAN_POINT('',(13.713787686533,0.,18.183291886114));
#379 = CARTESIAN_POINT('',(13.768726355945,0.,18.092549523442));
#380 = CARTESIAN_POINT('',(13.816517707493,0.,18.005933652009));
#381 = CARTESIAN_POINT('',(13.857516957267,0.,17.924006008968));
#382 = CARTESIAN_POINT('',(13.892123360052,0.,17.847297926535));
#383 = CARTESIAN_POINT('',(13.92077765187,0.,17.77630688599));
#384 = CARTESIAN_POINT('',(13.943959081154,0.,17.711493291655));
#385 = CARTESIAN_POINT('',(13.962182638387,0.,17.653277483907));
#386 = CARTESIAN_POINT('',(13.975994643759,0.,17.602037016478));
#387 = CARTESIAN_POINT('',(13.985972393778,0.,17.558104197632));
#388 = CARTESIAN_POINT('',(13.992711042064,0.,17.521763964639));
#389 = CARTESIAN_POINT('',(13.99684536456,0.,17.493251953617));
#390 = CARTESIAN_POINT('',(13.998979454444,0.,17.472753179425));
#391 = CARTESIAN_POINT('',(13.999829147973,0.,17.460400350269));
#392 = CARTESIAN_POINT('',(13.999977821321,0.,17.454897700175));
#393 = CARTESIAN_POINT('',(14.,0.,17.45352091053));
#394 = AXIS1_PLACEMENT('',#395,#396);
#395 = CARTESIAN_POINT('',(0.,0.,20.));
#396 = DIRECTION('',(-0.,-0.,1.));
#397 = ADVANCED_FACE('',(#398),#419,.F.);
#398 = FACE_BOUND('',#399,.F.);
#399 = EDGE_LOOP('',(#400,#401,#409,#416,#417,#418));
#400 = ORIENTED_EDGE('',*,*,#106,.F.);
#401 = ORIENTED_EDGE('',*,*,#402,.T.);
#402 = EDGE_CURVE('',#51,#403,#405,.T.);
#403 = VERTEX_POINT('',#404);
#404 = CARTESIAN_POINT('',(-2.,5.5,12.5));
#405 = LINE('',#406,#407);
#406 = CARTESIAN_POINT('',(-2.,14.,12.5));
#407 = VECTOR('',#408,1.);
#408 = DIRECTION('',(-0.,-1.,0.));
#409 = ORIENTED_EDGE('',*,*,#410,.T.);
#410 = EDGE_CURVE('',#403,#403,#411,.T.);
#411 = CIRCLE('',#412,2.);
#412 = AXIS2_PLACEMENT_3D('',#413,#414,#415);
#413 = CARTESIAN_POINT('',(0.,5.5,12.5));
#414 = DIRECTION('',(0.,1.,-0.));
#415 = DIRECTION('',(-1.,0.,0.));
#416 = ORIENTED_EDGE('',*,*,#402,.F.);
#417 = ORIENTED_EDGE('',*,*,#48,.F.);
#418 = ORIENTED_EDGE('',*,*,#162,.F.);
#419 = CYLINDRICAL_SURFACE('',#420,2.);
#420 = AXIS2_PLACEMENT_3D('',#421,#422,#423);
#421 = CARTESIAN_POINT('',(0.,14.,12.5));
#422 = DIRECTION('',(0.,1.,0.));
#423 = DIRECTION('',(-1.,0.,0.));
#424 = ADVANCED_FACE('',(#425,#428),#439,.F.);
#425 = FACE_BOUND('',#426,.F.);
#426 = EDGE_LOOP('',(#427));
#427 = ORIENTED_EDGE('',*,*,#235,.T.);
#428 = FACE_BOUND('',#429,.F.);
#429 = EDGE_LOOP('',(#430));
#430 = ORIENTED_EDGE('',*,*,#431,.T.);
#431 = EDGE_CURVE('',#432,#432,#434,.T.);
#432 = VERTEX_POINT('',#433);
#433 = CARTESIAN_POINT('',(4.5,0.,5.));
#434 = CIRCLE('',#435,4.5);
#435 = AXIS2_PLACEMENT_3D('',#436,#437,#438);
#436 = CARTESIAN_POINT('',(0.,0.,5.));
#437 = DIRECTION('',(0.,-2.2E-16,-1.));
#438 = DIRECTION('',(1.,0.,0.));
#439 = PLANE('',#440);
#440 = AXIS2_PLACEMENT_3D('',#441,#442,#443);
#441 = CARTESIAN_POINT('',(0.,0.,5.));
#442 = DIRECTION('',(-0.,-0.,1.));
#443 = DIRECTION('',(1.,0.,0.));
#444 = ADVANCED_FACE('',(#445),#470,.F.);
#445 = FACE_BOUND('',#446,.F.);
#446 = EDGE_LOOP('',(#447,#448,#456,#464));
#447 = ORIENTED_EDGE('',*,*,#342,.F.);
#448 = ORIENTED_EDGE('',*,*,#449,.T.);
#449 = EDGE_CURVE('',#334,#450,#452,.T.);
#450 = VERTEX_POINT('',#451);
#451 = CARTESIAN_POINT('',(8.,-10.,20.));
#452 = LINE('',#453,#454);
#453 = CARTESIAN_POINT('',(8.,10.,20.));
#454 = VECTOR('',#455,1.);
#455 = DIRECTION('',(0.,-1.,0.));
#456 = ORIENTED_EDGE('',*,*,#457,.T.);
#457 = EDGE_CURVE('',#450,#458,#460,.T.);
#458 = VERTEX_POINT('',#459);
#459 = CARTESIAN_POINT('',(10.,-10.,20.));
#460 = LINE('',#461,#462);
#461 = CARTESIAN_POINT('',(8.,-10.,20.));
#462 = VECTOR('',#463,1.);
#463 = DIRECTION('',(1.,0.,0.));
#464 = ORIENTED_EDGE('',*,*,#465,.T.);
#465 = EDGE_CURVE('',#458,#251,#466,.T.);
#466 = LINE('',#467,#468);
#467 = CARTESIAN_POINT('',(10.,-10.,20.));
#468 = VECTOR('',#469,1.);
#469 = DIRECTION('',(0.,1.,0.));
#470 = PLANE('',#471);
#471 = AXIS2_PLACEMENT_3D('',#472,#473,#474);
#472 = CARTESIAN_POINT('',(9.,0.,20.));
#473 = DIRECTION('',(0.,0.,1.));
#474 = DIRECTION('',(1.,0.,0.));
#475 = ADVANCED_FACE('',(#476),#492,.T.);
#476 = FACE_BOUND('',#477,.F.);
#477 = EDGE_LOOP('',(#478,#479,#485,#486));
#478 = ORIENTED_EDGE('',*,*,#306,.F.);
#479 = ORIENTED_EDGE('',*,*,#480,.T.);
#480 = EDGE_CURVE('',#298,#334,#481,.T.);
#481 = LINE('',#482,#483);
#482 = CARTESIAN_POINT('',(8.,10.,20.));
#483 = VECTOR('',#484,1.);
#484 = DIRECTION('',(0.,-1.,0.));
#485 = ORIENTED_EDGE('',*,*,#333,.F.);
#486 = ORIENTED_EDGE('',*,*,#487,.T.);
#487 = EDGE_CURVE('',#325,#307,#488,.T.);
#488 = LINE('',#489,#490);
#489 = CARTESIAN_POINT('',(-8.,-10.,20.));
#490 = VECTOR('',#491,1.);
#491 = DIRECTION('',(0.,1.,0.));
#492 = PLANE('',#493);
#493 = AXIS2_PLACEMENT_3D('',#494,#495,#496);
#494 = CARTESIAN_POINT('',(0.,0.,20.));
#495 = DIRECTION('',(-0.,-0.,1.));
#496 = DIRECTION('',(1.,0.,0.));
#497 = ADVANCED_FACE('',(#498),#523,.F.);
#498 = FACE_BOUND('',#499,.F.);
#499 = EDGE_LOOP('',(#500,#501,#509,#517));
#500 = ORIENTED_EDGE('',*,*,#324,.F.);
#501 = ORIENTED_EDGE('',*,*,#502,.T.);
#502 = EDGE_CURVE('',#316,#503,#505,.T.);
#503 = VERTEX_POINT('',#504);
#504 = CARTESIAN_POINT('',(-10.,-10.,20.));
#505 = LINE('',#506,#507);
#506 = CARTESIAN_POINT('',(-10.,10.,20.));
#507 = VECTOR('',#508,1.);
#508 = DIRECTION('',(0.,-1.,0.));
#509 = ORIENTED_EDGE('',*,*,#510,.T.);
#510 = EDGE_CURVE('',#503,#511,#513,.T.);
#511 = VERTEX_POINT('',#512);
#512 = CARTESIAN_POINT('',(-8.,-10.,20.));
#513 = LINE('',#514,#515);
#514 = CARTESIAN_POINT('',(-10.,-10.,20.));
#515 = VECTOR('',#516,1.);
#516 = DIRECTION('',(1.,0.,0.));
#517 = ORIENTED_EDGE('',*,*,#518,.T.);
#518 = EDGE_CURVE('',#511,#325,#519,.T.);
#519 = LINE('',#520,#521);
#520 = CARTESIAN_POINT('',(-8.,-10.,20.));
#521 = VECTOR('',#522,1.);
#522 = DIRECTION('',(0.,1.,0.));
#523 = PLANE('',#524);
#524 = AXIS2_PLACEMENT_3D('',#525,#526,#527);
#525 = CARTESIAN_POINT('',(-9.,0.,20.));
#526 = DIRECTION('',(0.,0.,1.));
#527 = DIRECTION('',(1.,0.,0.));
#528 = ADVANCED_FACE('',(#529),#554,.F.);
#529 = FACE_BOUND('',#530,.F.);
#530 = EDGE_LOOP('',(#531,#541,#547,#548));
#531 = ORIENTED_EDGE('',*,*,#532,.T.);
#532 = EDGE_CURVE('',#533,#535,#537,.T.);
#533 = VERTEX_POINT('',#534);
#534 = CARTESIAN_POINT('',(-8.,10.,20.));
#535 = VERTEX_POINT('',#536);
#536 = CARTESIAN_POINT('',(-10.,10.,20.));
#537 = LINE('',#538,#539);
#538 = CARTESIAN_POINT('',(-8.,10.,20.));
#539 = VECTOR('',#540,1.);
#540 = DIRECTION('',(-1.,0.,0.));
#541 = ORIENTED_EDGE('',*,*,#542,.T.);
#542 = EDGE_CURVE('',#535,#316,#543,.T.);
#543 = LINE('',#544,#545);
#544 = CARTESIAN_POINT('',(-10.,10.,20.));
#545 = VECTOR('',#546,1.);
#546 = DIRECTION('',(0.,-1.,0.));
#547 = ORIENTED_EDGE('',*,*,#315,.F.);
#548 = ORIENTED_EDGE('',*,*,#549,.T.);
#549 = EDGE_CURVE('',#307,#533,#550,.T.);
#550 = LINE('',#551,#552);
#551 = CARTESIAN_POINT('',(-8.,-10.,20.));
#552 = VECTOR('',#553,1.);
#553 = DIRECTION('',(0.,1.,0.));
#554 = PLANE('',#555);
#555 = AXIS2_PLACEMENT_3D('',#556,#557,#558);
#556 = CARTESIAN_POINT('',(-9.,0.,20.));
#557 = DIRECTION('',(0.,0.,1.));
#558 = DIRECTION('',(1.,0.,0.));
#559 = ADVANCED_FACE('',(#560),#585,.F.);
#560 = FACE_BOUND('',#561,.F.);
#561 = EDGE_LOOP('',(#562,#572,#578,#579));
#562 = ORIENTED_EDGE('',*,*,#563,.T.);
#563 = EDGE_CURVE('',#564,#566,#568,.T.);
#564 = VERTEX_POINT('',#565);
#565 = CARTESIAN_POINT('',(10.,10.,20.));
#566 = VERTEX_POINT('',#567);
#567 = CARTESIAN_POINT('',(8.,10.,20.));
#568 = LINE('',#569,#570);
#569 = CARTESIAN_POINT('',(10.,10.,20.));
#570 = VECTOR('',#571,1.);
#571 = DIRECTION('',(-1.,0.,0.));
#572 = ORIENTED_EDGE('',*,*,#573,.T.);
#573 = EDGE_CURVE('',#566,#298,#574,.T.);
#574 = LINE('',#575,#576);
#575 = CARTESIAN_POINT('',(8.,10.,20.));
#576 = VECTOR('',#577,1.);
#577 = DIRECTION('',(0.,-1.,0.));
#578 = ORIENTED_EDGE('',*,*,#297,.F.);
#579 = ORIENTED_EDGE('',*,*,#580,.T.);
#580 = EDGE_CURVE('',#251,#564,#581,.T.);
#581 = LINE('',#582,#583);
#582 = CARTESIAN_POINT('',(10.,-10.,20.));
#583 = VECTOR('',#584,1.);
#584 = DIRECTION('',(0.,1.,0.));
#585 = PLANE('',#586);
#586 = AXIS2_PLACEMENT_3D('',#587,#588,#589);
#587 = CARTESIAN_POINT('',(9.,0.,20.));
#588 = DIRECTION('',(0.,0.,1.));
#589 = DIRECTION('',(1.,0.,0.));
#590 = ADVANCED_FACE('',(#591),#594,.T.);
#591 = FACE_BOUND('',#592,.T.);
#592 = EDGE_LOOP('',(#593));
#593 = ORIENTED_EDGE('',*,*,#410,.T.);
#594 = PLANE('',#595);
#595 = AXIS2_PLACEMENT_3D('',#596,#597,#598);
#596 = CARTESIAN_POINT('',(9.E-17,5.5,12.5));
#597 = DIRECTION('',(0.,1.,0.));
#598 = DIRECTION('',(1.,0.,0.));
#599 = ADVANCED_FACE('',(#600),#619,.F.);
#600 = FACE_BOUND('',#601,.T.);
#601 = EDGE_LOOP('',(#602,#610,#611,#612));
#602 = ORIENTED_EDGE('',*,*,#603,.F.);
#603 = EDGE_CURVE('',#432,#604,#606,.T.);
#604 = VERTEX_POINT('',#605);
#605 = CARTESIAN_POINT('',(4.5,2.E-15,15.));
#606 = LINE('',#607,#608);
#607 = CARTESIAN_POINT('',(4.5,0.,5.));
#608 = VECTOR('',#609,1.);
#609 = DIRECTION('',(-9.E-17,2.2E-16,1.));
#610 = ORIENTED_EDGE('',*,*,#431,.T.);
#611 = ORIENTED_EDGE('',*,*,#603,.T.);
#612 = ORIENTED_EDGE('',*,*,#613,.F.);
#613 = EDGE_CURVE('',#604,#604,#614,.T.);
#614 = CIRCLE('',#615,4.5);
#615 = AXIS2_PLACEMENT_3D('',#616,#617,#618);
#616 = CARTESIAN_POINT('',(0.,2.22E-15,15.));
#617 = DIRECTION('',(0.,-2.2E-16,-1.));
#618 = DIRECTION('',(1.,0.,0.));
#619 = CYLINDRICAL_SURFACE('',#620,4.5);
#620 = AXIS2_PLACEMENT_3D('',#621,#622,#623);
#621 = CARTESIAN_POINT('',(0.,0.,5.));
#622 = DIRECTION('',(0.,2.2E-16,1.));
#623 = DIRECTION('',(1.,0.,0.));
#624 = ADVANCED_FACE('',(#625),#651,.F.);
#625 = FACE_BOUND('',#626,.F.);
#626 = EDGE_LOOP('',(#627,#635,#643,#649,#650));
#627 = ORIENTED_EDGE('',*,*,#628,.T.);
#628 = EDGE_CURVE('',#458,#629,#631,.T.);
#629 = VERTEX_POINT('',#630);
#630 = CARTESIAN_POINT('',(10.,-10.,21.));
#631 = LINE('',#632,#633);
#632 = CARTESIAN_POINT('',(10.,-10.,20.));
#633 = VECTOR('',#634,1.);
#634 = DIRECTION('',(0.,0.,1.));
#635 = ORIENTED_EDGE('',*,*,#636,.T.);
#636 = EDGE_CURVE('',#629,#637,#639,.T.);
#637 = VERTEX_POINT('',#638);
#638 = CARTESIAN_POINT('',(10.,10.,21.));
#639 = LINE('',#640,#641);
#640 = CARTESIAN_POINT('',(10.,-10.,21.));
#641 = VECTOR('',#642,1.);
#642 = DIRECTION('',(0.,1.,0.));
#643 = ORIENTED_EDGE('',*,*,#644,.F.);
#644 = EDGE_CURVE('',#564,#637,#645,.T.);
#645 = LINE('',#646,#647);
#646 = CARTESIAN_POINT('',(10.,10.,20.));
#647 = VECTOR('',#648,1.);
#648 = DIRECTION('',(0.,0.,1.));
#649 = ORIENTED_EDGE('',*,*,#580,.F.);
#650 = ORIENTED_EDGE('',*,*,#465,.F.);
#651 = PLANE('',#652);
#652 = AXIS2_PLACEMENT_3D('',#653,#654,#655);
#653 = CARTESIAN_POINT('',(10.,-10.,20.));
#654 = DIRECTION('',(-1.,0.,0.));
#655 = DIRECTION('',(0.,1.,0.));
#656 = ADVANCED_FACE('',(#657),#675,.F.);
#657 = FACE_BOUND('',#658,.F.);
#658 = EDGE_LOOP('',(#659,#667,#673,#674));
#659 = ORIENTED_EDGE('',*,*,#660,.T.);
#660 = EDGE_CURVE('',#450,#661,#663,.T.);
#661 = VERTEX_POINT('',#662);
#662 = CARTESIAN_POINT('',(8.,-10.,21.));
#663 = LINE('',#664,#665);
#664 = CARTESIAN_POINT('',(8.,-10.,20.));
#665 = VECTOR('',#666,1.);
#666 = DIRECTION('',(0.,0.,1.));
#667 = ORIENTED_EDGE('',*,*,#668,.T.);
#668 = EDGE_CURVE('',#661,#629,#669,.T.);
#669 = LINE('',#670,#671);
#670 = CARTESIAN_POINT('',(8.,-10.,21.));
#671 = VECTOR('',#672,1.);
#672 = DIRECTION('',(1.,0.,0.));
#673 = ORIENTED_EDGE('',*,*,#628,.F.);
#674 = ORIENTED_EDGE('',*,*,#457,.F.);
#675 = PLANE('',#676);
#676 = AXIS2_PLACEMENT_3D('',#677,#678,#679);
#677 = CARTESIAN_POINT('',(8.,-10.,20.));
#678 = DIRECTION('',(0.,1.,0.));
#679 = DIRECTION('',(1.,0.,0.));
#680 = ADVANCED_FACE('',(#681),#701,.F.);
#681 = FACE_BOUND('',#682,.F.);
#682 = EDGE_LOOP('',(#683,#691,#697,#698,#699,#700));
#683 = ORIENTED_EDGE('',*,*,#684,.T.);
#684 = EDGE_CURVE('',#566,#685,#687,.T.);
#685 = VERTEX_POINT('',#686);
#686 = CARTESIAN_POINT('',(8.,10.,21.));
#687 = LINE('',#688,#689);
#688 = CARTESIAN_POINT('',(8.,10.,20.));
#689 = VECTOR('',#690,1.);
#690 = DIRECTION('',(0.,0.,1.));
#691 = ORIENTED_EDGE('',*,*,#692,.T.);
#692 = EDGE_CURVE('',#685,#661,#693,.T.);
#693 = LINE('',#694,#695);
#694 = CARTESIAN_POINT('',(8.,10.,21.));
#695 = VECTOR('',#696,1.);
#696 = DIRECTION('',(0.,-1.,0.));
#697 = ORIENTED_EDGE('',*,*,#660,.F.);
#698 = ORIENTED_EDGE('',*,*,#449,.F.);
#699 = ORIENTED_EDGE('',*,*,#480,.F.);
#700 = ORIENTED_EDGE('',*,*,#573,.F.);
#701 = PLANE('',#702);
#702 = AXIS2_PLACEMENT_3D('',#703,#704,#705);
#703 = CARTESIAN_POINT('',(8.,10.,20.));
#704 = DIRECTION('',(1.,0.,0.));
#705 = DIRECTION('',(0.,-1.,0.));
#706 = ADVANCED_FACE('',(#707),#734,.F.);
#707 = FACE_BOUND('',#708,.F.);
#708 = EDGE_LOOP('',(#709,#717,#725,#731,#732,#733));
#709 = ORIENTED_EDGE('',*,*,#710,.T.);
#710 = EDGE_CURVE('',#511,#711,#713,.T.);
#711 = VERTEX_POINT('',#712);
#712 = CARTESIAN_POINT('',(-8.,-10.,21.));
#713 = LINE('',#714,#715);
#714 = CARTESIAN_POINT('',(-8.,-10.,20.));
#715 = VECTOR('',#716,1.);
#716 = DIRECTION('',(0.,0.,1.));
#717 = ORIENTED_EDGE('',*,*,#718,.T.);
#718 = EDGE_CURVE('',#711,#719,#721,.T.);
#719 = VERTEX_POINT('',#720);
#720 = CARTESIAN_POINT('',(-8.,10.,21.));
#721 = LINE('',#722,#723);
#722 = CARTESIAN_POINT('',(-8.,-10.,21.));
#723 = VECTOR('',#724,1.);
#724 = DIRECTION('',(0.,1.,0.));
#725 = ORIENTED_EDGE('',*,*,#726,.F.);
#726 = EDGE_CURVE('',#533,#719,#727,.T.);
#727 = LINE('',#728,#729);
#728 = CARTESIAN_POINT('',(-8.,10.,20.));
#729 = VECTOR('',#730,1.);
#730 = DIRECTION('',(0.,0.,1.));
#731 = ORIENTED_EDGE('',*,*,#549,.F.);
#732 = ORIENTED_EDGE('',*,*,#487,.F.);
#733 = ORIENTED_EDGE('',*,*,#518,.F.);
#734 = PLANE('',#735);
#735 = AXIS2_PLACEMENT_3D('',#736,#737,#738);
#736 = CARTESIAN_POINT('',(-8.,-10.,20.));
#737 = DIRECTION('',(-1.,0.,0.));
#738 = DIRECTION('',(0.,1.,0.));
#739 = ADVANCED_FACE('',(#740),#758,.F.);
#740 = FACE_BOUND('',#741,.F.);
#741 = EDGE_LOOP('',(#742,#750,#756,#757));
#742 = ORIENTED_EDGE('',*,*,#743,.T.);
#743 = EDGE_CURVE('',#503,#744,#746,.T.);
#744 = VERTEX_POINT('',#745);
#745 = CARTESIAN_POINT('',(-10.,-10.,21.));
#746 = LINE('',#747,#748);
#747 = CARTESIAN_POINT('',(-10.,-10.,20.));
#748 = VECTOR('',#749,1.);
#749 = DIRECTION('',(0.,0.,1.));
#750 = ORIENTED_EDGE('',*,*,#751,.T.);
#751 = EDGE_CURVE('',#744,#711,#752,.T.);
#752 = LINE('',#753,#754);
#753 = CARTESIAN_POINT('',(-10.,-10.,21.));
#754 = VECTOR('',#755,1.);
#755 = DIRECTION('',(1.,0.,0.));
#756 = ORIENTED_EDGE('',*,*,#710,.F.);
#757 = ORIENTED_EDGE('',*,*,#510,.F.);
#758 = PLANE('',#759);
#759 = AXIS2_PLACEMENT_3D('',#760,#761,#762);
#760 = CARTESIAN_POINT('',(-10.,-10.,20.));
#761 = DIRECTION('',(0.,1.,0.));
#762 = DIRECTION('',(1.,0.,0.));
#763 = ADVANCED_FACE('',(#764),#783,.F.);
#764 = FACE_BOUND('',#765,.F.);
#765 = EDGE_LOOP('',(#766,#774,#780,#781,#782));
#766 = ORIENTED_EDGE('',*,*,#767,.T.);
#767 = EDGE_CURVE('',#535,#768,#770,.T.);
#768 = VERTEX_POINT('',#769);
#769 = CARTESIAN_POINT('',(-10.,10.,21.));
#770 = LINE('',#771,#772);
#771 = CARTESIAN_POINT('',(-10.,10.,20.));
#772 = VECTOR('',#773,1.);
#773 = DIRECTION('',(0.,0.,1.));
#774 = ORIENTED_EDGE('',*,*,#775,.T.);
#775 = EDGE_CURVE('',#768,#744,#776,.T.);
#776 = LINE('',#777,#778);
#777 = CARTESIAN_POINT('',(-10.,10.,21.));
#778 = VECTOR('',#779,1.);
#779 = DIRECTION('',(0.,-1.,0.));
#780 = ORIENTED_EDGE('',*,*,#743,.F.);
#781 = ORIENTED_EDGE('',*,*,#502,.F.);
#782 = ORIENTED_EDGE('',*,*,#542,.F.);
#783 = PLANE('',#784);
#784 = AXIS2_PLACEMENT_3D('',#785,#786,#787);
#785 = CARTESIAN_POINT('',(-10.,10.,20.));
#786 = DIRECTION('',(1.,0.,0.));
#787 = DIRECTION('',(0.,-1.,0.));
#788 = ADVANCED_FACE('',(#789),#800,.F.);
#789 = FACE_BOUND('',#790,.F.);
#790 = EDGE_LOOP('',(#791,#792,#798,#799));
#791 = ORIENTED_EDGE('',*,*,#726,.T.);
#792 = ORIENTED_EDGE('',*,*,#793,.T.);
#793 = EDGE_CURVE('',#719,#768,#794,.T.);
#794 = LINE('',#795,#796);
#795 = CARTESIAN_POINT('',(-8.,10.,21.));
#796 = VECTOR('',#797,1.);
#797 = DIRECTION('',(-1.,0.,0.));
#798 = ORIENTED_EDGE('',*,*,#767,.F.);
#799 = ORIENTED_EDGE('',*,*,#532,.F.);
#800 = PLANE('',#801);
#801 = AXIS2_PLACEMENT_3D('',#802,#803,#804);
#802 = CARTESIAN_POINT('',(-8.,10.,20.));
#803 = DIRECTION('',(0.,-1.,0.));
#804 = DIRECTION('',(-1.,0.,0.));
#805 = ADVANCED_FACE('',(#806),#817,.F.);
#806 = FACE_BOUND('',#807,.F.);
#807 = EDGE_LOOP('',(#808,#809,#815,#816));
#808 = ORIENTED_EDGE('',*,*,#644,.T.);
#809 = ORIENTED_EDGE('',*,*,#810,.T.);
#810 = EDGE_CURVE('',#637,#685,#811,.T.);
#811 = LINE('',#812,#813);
#812 = CARTESIAN_POINT('',(10.,10.,21.));
#813 = VECTOR('',#814,1.);
#814 = DIRECTION('',(-1.,0.,0.));
#815 = ORIENTED_EDGE('',*,*,#684,.F.);
#816 = ORIENTED_EDGE('',*,*,#563,.F.);
#817 = PLANE('',#818);
#818 = AXIS2_PLACEMENT_3D('',#819,#820,#821);
#819 = CARTESIAN_POINT('',(10.,10.,20.));
#820 = DIRECTION('',(0.,-1.,0.));
#821 = DIRECTION('',(-1.,0.,0.));
#822 = ADVANCED_FACE('',(#823),#826,.T.);
#823 = FACE_BOUND('',#824,.T.);
#824 = EDGE_LOOP('',(#825));
#825 = ORIENTED_EDGE('',*,*,#613,.T.);
#826 = PLANE('',#827);
#827 = AXIS2_PLACEMENT_3D('',#828,#829,#830);
#828 = CARTESIAN_POINT('',(0.,2.22E-15,15.));
#829 = DIRECTION('',(0.,-2.2E-16,-1.));
#830 = DIRECTION('',(1.,0.,0.));
#831 = ADVANCED_FACE('',(#832,#843,#849),#855,.F.);
#832 = FACE_BOUND('',#833,.F.);
#833 = EDGE_LOOP('',(#834));
#834 = ORIENTED_EDGE('',*,*,#835,.T.);
#835 = EDGE_CURVE('',#836,#836,#838,.T.);
#836 = VERTEX_POINT('',#837);
#837 = CARTESIAN_POINT('',(22.5,0.,21.));
#838 = CIRCLE('',#839,22.5);
#839 = AXIS2_PLACEMENT_3D('',#840,#841,#842);
#840 = CARTESIAN_POINT('',(0.,0.,21.));
#841 = DIRECTION('',(0.,0.,1.));
#842 = DIRECTION('',(1.,0.,0.));
#843 = FACE_BOUND('',#844,.F.);
#844 = EDGE_LOOP('',(#845,#846,#847,#848));
#845 = ORIENTED_EDGE('',*,*,#775,.F.);
#846 = ORIENTED_EDGE('',*,*,#793,.F.);
#847 = ORIENTED_EDGE('',*,*,#718,.F.);
#848 = ORIENTED_EDGE('',*,*,#751,.F.);
#849 = FACE_BOUND('',#850,.F.);
#850 = EDGE_LOOP('',(#851,#852,#853,#854));
#851 = ORIENTED_EDGE('',*,*,#692,.F.);
#852 = ORIENTED_EDGE('',*,*,#810,.F.);
#853 = ORIENTED_EDGE('',*,*,#636,.F.);
#854 = ORIENTED_EDGE('',*,*,#668,.F.);
#855 = PLANE('',#856);
#856 = AXIS2_PLACEMENT_3D('',#857,#858,#859);
#857 = CARTESIAN_POINT('',(-1.94E-15,1.03E-15,21.));
#858 = DIRECTION('',(0.,0.,1.));
#859 = DIRECTION('',(1.,0.,0.));
#860 = ADVANCED_FACE('',(#861),#880,.T.);
#861 = FACE_BOUND('',#862,.F.);
#862 = EDGE_LOOP('',(#863,#871,#878,#879));
#863 = ORIENTED_EDGE('',*,*,#864,.T.);
#864 = EDGE_CURVE('',#836,#865,#867,.T.);
#865 = VERTEX_POINT('',#866);
#866 = CARTESIAN_POINT('',(22.5,0.,23.));
#867 = LINE('',#868,#869);
#868 = CARTESIAN_POINT('',(22.5,0.,21.));
#869 = VECTOR('',#870,1.);
#870 = DIRECTION('',(0.,0.,1.));
#871 = ORIENTED_EDGE('',*,*,#872,.T.);
#872 = EDGE_CURVE('',#865,#865,#873,.T.);
#873 = CIRCLE('',#874,22.5);
#874 = AXIS2_PLACEMENT_3D('',#875,#876,#877);
#875 = CARTESIAN_POINT('',(0.,0.,23.));
#876 = DIRECTION('',(0.,0.,1.));
#877 = DIRECTION('',(1.,0.,0.));
#878 = ORIENTED_EDGE('',*,*,#864,.F.);
#879 = ORIENTED_EDGE('',*,*,#835,.F.);
#880 = CYLINDRICAL_SURFACE('',#881,22.5);
#881 = AXIS2_PLACEMENT_3D('',#882,#883,#884);
#882 = CARTESIAN_POINT('',(0.,0.,21.));
#883 = DIRECTION('',(-0.,-0.,-1.));
#884 = DIRECTION('',(1.,0.,0.));
#885 = ADVANCED_FACE('',(#886,#889,#923),#957,.T.);
#886 = FACE_BOUND('',#887,.T.);
#887 = EDGE_LOOP('',(#888));
#888 = ORIENTED_EDGE('',*,*,#872,.T.);
#889 = FACE_BOUND('',#890,.T.);
#890 = EDGE_LOOP('',(#891,#901,#909,#917));
#891 = ORIENTED_EDGE('',*,*,#892,.F.);
#892 = EDGE_CURVE('',#893,#895,#897,.T.);
#893 = VERTEX_POINT('',#894);
#894 = CARTESIAN_POINT('',(-10.,10.,23.));
#895 = VERTEX_POINT('',#896);
#896 = CARTESIAN_POINT('',(-10.,-10.,23.));
#897 = LINE('',#898,#899);
#898 = CARTESIAN_POINT('',(-10.,10.,23.));
#899 = VECTOR('',#900,1.);
#900 = DIRECTION('',(0.,-1.,0.));
#901 = ORIENTED_EDGE('',*,*,#902,.F.);
#902 = EDGE_CURVE('',#903,#893,#905,.T.);
#903 = VERTEX_POINT('',#904);
#904 = CARTESIAN_POINT('',(-8.,10.,23.));
#905 = LINE('',#906,#907);
#906 = CARTESIAN_POINT('',(-8.,10.,23.));
#907 = VECTOR('',#908,1.);
#908 = DIRECTION('',(-1.,0.,0.));
#909 = ORIENTED_EDGE('',*,*,#910,.F.);
#910 = EDGE_CURVE('',#911,#903,#913,.T.);
#911 = VERTEX_POINT('',#912);
#912 = CARTESIAN_POINT('',(-8.,-10.,23.));
#913 = LINE('',#914,#915);
#914 = CARTESIAN_POINT('',(-8.,-10.,23.));
#915 = VECTOR('',#916,1.);
#916 = DIRECTION('',(0.,1.,0.));
#917 = ORIENTED_EDGE('',*,*,#918,.F.);
#918 = EDGE_CURVE('',#895,#911,#919,.T.);
#919 = LINE('',#920,#921);
#920 = CARTESIAN_POINT('',(-10.,-10.,23.));
#921 = VECTOR('',#922,1.);
#922 = DIRECTION('',(1.,0.,0.));
#923 = FACE_BOUND('',#924,.T.);
#924 = EDGE_LOOP('',(#925,#935,#943,#951));
#925 = ORIENTED_EDGE('',*,*,#926,.F.);
#926 = EDGE_CURVE('',#927,#929,#931,.T.);
#927 = VERTEX_POINT('',#928);
#928 = CARTESIAN_POINT('',(8.,10.,23.));
#929 = VERTEX_POINT('',#930);
#930 = CARTESIAN_POINT('',(8.,-10.,23.));
#931 = LINE('',#932,#933);
#932 = CARTESIAN_POINT('',(8.,10.,23.));
#933 = VECTOR('',#934,1.);
#934 = DIRECTION('',(0.,-1.,0.));
#935 = ORIENTED_EDGE('',*,*,#936,.F.);
#936 = EDGE_CURVE('',#937,#927,#939,.T.);
#937 = VERTEX_POINT('',#938);
#938 = CARTESIAN_POINT('',(10.,10.,23.));
#939 = LINE('',#940,#941);
#940 = CARTESIAN_POINT('',(10.,10.,23.));
#941 = VECTOR('',#942,1.);
#942 = DIRECTION('',(-1.,0.,0.));
#943 = ORIENTED_EDGE('',*,*,#944,.F.);
#944 = EDGE_CURVE('',#945,#937,#947,.T.);
#945 = VERTEX_POINT('',#946);
#946 = CARTESIAN_POINT('',(10.,-10.,23.));
#947 = LINE('',#948,#949);
#948 = CARTESIAN_POINT('',(10.,-10.,23.));
#949 = VECTOR('',#950,1.);
#950 = DIRECTION('',(0.,1.,0.));
#951 = ORIENTED_EDGE('',*,*,#952,.F.);
#952 = EDGE_CURVE('',#929,#945,#953,.T.);
#953 = LINE('',#954,#955);
#954 = CARTESIAN_POINT('',(8.,-10.,23.));
#955 = VECTOR('',#956,1.);
#956 = DIRECTION('',(1.,0.,0.));
#957 = PLANE('',#958);
#958 = AXIS2_PLACEMENT_3D('',#959,#960,#961);
#959 = CARTESIAN_POINT('',(-1.94E-15,1.03E-15,23.));
#960 = DIRECTION('',(0.,0.,1.));
#961 = DIRECTION('',(1.,0.,0.));
#962 = ADVANCED_FACE('',(#963),#996,.F.);
#963 = FACE_BOUND('',#964,.F.);
#964 = EDGE_LOOP('',(#965,#973,#981,#989,#995));
#965 = ORIENTED_EDGE('',*,*,#966,.T.);
#966 = EDGE_CURVE('',#893,#967,#969,.T.);
#967 = VERTEX_POINT('',#968);
#968 = CARTESIAN_POINT('',(-10.,10.,24.));
#969 = LINE('',#970,#971);
#970 = CARTESIAN_POINT('',(-10.,10.,23.));
#971 = VECTOR('',#972,1.);
#972 = DIRECTION('',(0.,0.,1.));
#973 = ORIENTED_EDGE('',*,*,#974,.T.);
#974 = EDGE_CURVE('',#967,#975,#977,.T.);
#975 = VERTEX_POINT('',#976);
#976 = CARTESIAN_POINT('',(-10.,3.E-15,24.));
#977 = LINE('',#978,#979);
#978 = CARTESIAN_POINT('',(-10.,10.,24.));
#979 = VECTOR('',#980,1.);
#980 = DIRECTION('',(0.,-1.,0.));
#981 = ORIENTED_EDGE('',*,*,#982,.T.);
#982 = EDGE_CURVE('',#975,#983,#985,.T.);
#983 = VERTEX_POINT('',#984);
#984 = CARTESIAN_POINT('',(-10.,-10.,24.));
#985 = LINE('',#986,#987);
#986 = CARTESIAN_POINT('',(-10.,10.,24.));
#987 = VECTOR('',#988,1.);
#988 = DIRECTION('',(0.,-1.,0.));
#989 = ORIENTED_EDGE('',*,*,#990,.F.);
#990 = EDGE_CURVE('',#895,#983,#991,.T.);
#991 = LINE('',#992,#993);
#992 = CARTESIAN_POINT('',(-10.,-10.,23.));
#993 = VECTOR('',#994,1.);
#994 = DIRECTION('',(0.,0.,1.));
#995 = ORIENTED_EDGE('',*,*,#892,.F.);
#996 = PLANE('',#997);
#997 = AXIS2_PLACEMENT_3D('',#998,#999,#1000);
#998 = CARTESIAN_POINT('',(-10.,10.,23.));
#999 = DIRECTION('',(1.,0.,0.));
#1000 = DIRECTION('',(0.,-1.,0.));
#1001 = ADVANCED_FACE('',(#1002),#1020,.F.);
#1002 = FACE_BOUND('',#1003,.F.);
#1003 = EDGE_LOOP('',(#1004,#1005,#1013,#1019));
#1004 = ORIENTED_EDGE('',*,*,#990,.T.);
#1005 = ORIENTED_EDGE('',*,*,#1006,.T.);
#1006 = EDGE_CURVE('',#983,#1007,#1009,.T.);
#1007 = VERTEX_POINT('',#1008);
#1008 = CARTESIAN_POINT('',(-8.,-10.,24.));
#1009 = LINE('',#1010,#1011);
#1010 = CARTESIAN_POINT('',(-10.,-10.,24.));
#1011 = VECTOR('',#1012,1.);
#1012 = DIRECTION('',(1.,0.,0.));
#1013 = ORIENTED_EDGE('',*,*,#1014,.F.);
#1014 = EDGE_CURVE('',#911,#1007,#1015,.T.);
#1015 = LINE('',#1016,#1017);
#1016 = CARTESIAN_POINT('',(-8.,-10.,23.));
#1017 = VECTOR('',#1018,1.);
#1018 = DIRECTION('',(0.,0.,1.));
#1019 = ORIENTED_EDGE('',*,*,#918,.F.);
#1020 = PLANE('',#1021);
#1021 = AXIS2_PLACEMENT_3D('',#1022,#1023,#1024);
#1022 = CARTESIAN_POINT('',(-10.,-10.,23.));
#1023 = DIRECTION('',(0.,1.,0.));
#1024 = DIRECTION('',(1.,0.,0.));
#1025 = ADVANCED_FACE('',(#1026),#1060,.F.);
#1026 = FACE_BOUND('',#1027,.F.);
#1027 = EDGE_LOOP('',(#1028,#1029,#1037,#1045,#1053,#1059));
#1028 = ORIENTED_EDGE('',*,*,#1014,.T.);
#1029 = ORIENTED_EDGE('',*,*,#1030,.T.);
#1030 = EDGE_CURVE('',#1007,#1031,#1033,.T.);
#1031 = VERTEX_POINT('',#1032);
#1032 = CARTESIAN_POINT('',(-8.,-6.,24.));
#1033 = LINE('',#1034,#1035);
#1034 = CARTESIAN_POINT('',(-8.,-10.,24.));
#1035 = VECTOR('',#1036,1.);
#1036 = DIRECTION('',(0.,1.,0.));
#1037 = ORIENTED_EDGE('',*,*,#1038,.T.);
#1038 = EDGE_CURVE('',#1031,#1039,#1041,.T.);
#1039 = VERTEX_POINT('',#1040);
#1040 = CARTESIAN_POINT('',(-8.,6.,24.));
#1041 = LINE('',#1042,#1043);
#1042 = CARTESIAN_POINT('',(-8.,-10.,24.));
#1043 = VECTOR('',#1044,1.);
#1044 = DIRECTION('',(0.,1.,0.));
#1045 = ORIENTED_EDGE('',*,*,#1046,.T.);
#1046 = EDGE_CURVE('',#1039,#1047,#1049,.T.);
#1047 = VERTEX_POINT('',#1048);
#1048 = CARTESIAN_POINT('',(-8.,10.,24.));
#1049 = LINE('',#1050,#1051);
#1050 = CARTESIAN_POINT('',(-8.,-10.,24.));
#1051 = VECTOR('',#1052,1.);
#1052 = DIRECTION('',(0.,1.,0.));
#1053 = ORIENTED_EDGE('',*,*,#1054,.F.);
#1054 = EDGE_CURVE('',#903,#1047,#1055,.T.);
#1055 = LINE('',#1056,#1057);
#1056 = CARTESIAN_POINT('',(-8.,10.,23.));
#1057 = VECTOR('',#1058,1.);
#1058 = DIRECTION('',(0.,0.,1.));
#1059 = ORIENTED_EDGE('',*,*,#910,.F.);
#1060 = PLANE('',#1061);
#1061 = AXIS2_PLACEMENT_3D('',#1062,#1063,#1064);
#1062 = CARTESIAN_POINT('',(-8.,-10.,23.));
#1063 = DIRECTION('',(-1.,0.,0.));
#1064 = DIRECTION('',(0.,1.,0.));
#1065 = ADVANCED_FACE('',(#1066),#1077,.F.);
#1066 = FACE_BOUND('',#1067,.F.);
#1067 = EDGE_LOOP('',(#1068,#1069,#1075,#1076));
#1068 = ORIENTED_EDGE('',*,*,#1054,.T.);
#1069 = ORIENTED_EDGE('',*,*,#1070,.T.);
#1070 = EDGE_CURVE('',#1047,#967,#1071,.T.);
#1071 = LINE('',#1072,#1073);
#1072 = CARTESIAN_POINT('',(-8.,10.,24.));
#1073 = VECTOR('',#1074,1.);
#1074 = DIRECTION('',(-1.,0.,0.));
#1075 = ORIENTED_EDGE('',*,*,#966,.F.);
#1076 = ORIENTED_EDGE('',*,*,#902,.F.);
#1077 = PLANE('',#1078);
#1078 = AXIS2_PLACEMENT_3D('',#1079,#1080,#1081);
#1079 = CARTESIAN_POINT('',(-8.,10.,23.));
#1080 = DIRECTION('',(0.,-1.,0.));
#1081 = DIRECTION('',(-1.,0.,0.));
#1082 = ADVANCED_FACE('',(#1083),#1124,.F.);
#1083 = FACE_BOUND('',#1084,.F.);
#1084 = EDGE_LOOP('',(#1085,#1093,#1101,#1109,#1117,#1123));
#1085 = ORIENTED_EDGE('',*,*,#1086,.T.);
#1086 = EDGE_CURVE('',#927,#1087,#1089,.T.);
#1087 = VERTEX_POINT('',#1088);
#1088 = CARTESIAN_POINT('',(8.,10.,24.));
#1089 = LINE('',#1090,#1091);
#1090 = CARTESIAN_POINT('',(8.,10.,23.));
#1091 = VECTOR('',#1092,1.);
#1092 = DIRECTION('',(0.,0.,1.));
#1093 = ORIENTED_EDGE('',*,*,#1094,.T.);
#1094 = EDGE_CURVE('',#1087,#1095,#1097,.T.);
#1095 = VERTEX_POINT('',#1096);
#1096 = CARTESIAN_POINT('',(8.,6.,24.));
#1097 = LINE('',#1098,#1099);
#1098 = CARTESIAN_POINT('',(8.,10.,24.));
#1099 = VECTOR('',#1100,1.);
#1100 = DIRECTION('',(0.,-1.,0.));
#1101 = ORIENTED_EDGE('',*,*,#1102,.T.);
#1102 = EDGE_CURVE('',#1095,#1103,#1105,.T.);
#1103 = VERTEX_POINT('',#1104);
#1104 = CARTESIAN_POINT('',(8.,-6.,24.));
#1105 = LINE('',#1106,#1107);
#1106 = CARTESIAN_POINT('',(8.,10.,24.));
#1107 = VECTOR('',#1108,1.);
#1108 = DIRECTION('',(0.,-1.,0.));
#1109 = ORIENTED_EDGE('',*,*,#1110,.T.);
#1110 = EDGE_CURVE('',#1103,#1111,#1113,.T.);
#1111 = VERTEX_POINT('',#1112);
#1112 = CARTESIAN_POINT('',(8.,-10.,24.));
#1113 = LINE('',#1114,#1115);
#1114 = CARTESIAN_POINT('',(8.,10.,24.));
#1115 = VECTOR('',#1116,1.);
#1116 = DIRECTION('',(0.,-1.,0.));
#1117 = ORIENTED_EDGE('',*,*,#1118,.F.);
#1118 = EDGE_CURVE('',#929,#1111,#1119,.T.);
#1119 = LINE('',#1120,#1121);
#1120 = CARTESIAN_POINT('',(8.,-10.,23.));
#1121 = VECTOR('',#1122,1.);
#1122 = DIRECTION('',(0.,0.,1.));
#1123 = ORIENTED_EDGE('',*,*,#926,.F.);
#1124 = PLANE('',#1125);
#1125 = AXIS2_PLACEMENT_3D('',#1126,#1127,#1128);
#1126 = CARTESIAN_POINT('',(8.,10.,23.));
#1127 = DIRECTION('',(1.,0.,0.));
#1128 = DIRECTION('',(0.,-1.,0.));
#1129 = ADVANCED_FACE('',(#1130),#1148,.F.);
#1130 = FACE_BOUND('',#1131,.F.);
#1131 = EDGE_LOOP('',(#1132,#1133,#1141,#1147));
#1132 = ORIENTED_EDGE('',*,*,#1118,.T.);
#1133 = ORIENTED_EDGE('',*,*,#1134,.T.);
#1134 = EDGE_CURVE('',#1111,#1135,#1137,.T.);
#1135 = VERTEX_POINT('',#1136);
#1136 = CARTESIAN_POINT('',(10.,-10.,24.));
#1137 = LINE('',#1138,#1139);
#1138 = CARTESIAN_POINT('',(8.,-10.,24.));
#1139 = VECTOR('',#1140,1.);
#1140 = DIRECTION('',(1.,0.,0.));
#1141 = ORIENTED_EDGE('',*,*,#1142,.F.);
#1142 = EDGE_CURVE('',#945,#1135,#1143,.T.);
#1143 = LINE('',#1144,#1145);
#1144 = CARTESIAN_POINT('',(10.,-10.,23.));
#1145 = VECTOR('',#1146,1.);
#1146 = DIRECTION('',(0.,0.,1.));
#1147 = ORIENTED_EDGE('',*,*,#952,.F.);
#1148 = PLANE('',#1149);
#1149 = AXIS2_PLACEMENT_3D('',#1150,#1151,#1152);
#1150 = CARTESIAN_POINT('',(8.,-10.,23.));
#1151 = DIRECTION('',(0.,1.,0.));
#1152 = DIRECTION('',(1.,0.,0.));
#1153 = ADVANCED_FACE('',(#1154),#1180,.F.);
#1154 = FACE_BOUND('',#1155,.F.);
#1155 = EDGE_LOOP('',(#1156,#1157,#1165,#1173,#1179));
#1156 = ORIENTED_EDGE('',*,*,#1142,.T.);
#1157 = ORIENTED_EDGE('',*,*,#1158,.T.);
#1158 = EDGE_CURVE('',#1135,#1159,#1161,.T.);
#1159 = VERTEX_POINT('',#1160);
#1160 = CARTESIAN_POINT('',(10.,0.,24.));
#1161 = LINE('',#1162,#1163);
#1162 = CARTESIAN_POINT('',(10.,-10.,24.));
#1163 = VECTOR('',#1164,1.);
#1164 = DIRECTION('',(0.,1.,0.));
#1165 = ORIENTED_EDGE('',*,*,#1166,.T.);
#1166 = EDGE_CURVE('',#1159,#1167,#1169,.T.);
#1167 = VERTEX_POINT('',#1168);
#1168 = CARTESIAN_POINT('',(10.,10.,24.));
#1169 = LINE('',#1170,#1171);
#1170 = CARTESIAN_POINT('',(10.,-10.,24.));
#1171 = VECTOR('',#1172,1.);
#1172 = DIRECTION('',(0.,1.,0.));
#1173 = ORIENTED_EDGE('',*,*,#1174,.F.);
#1174 = EDGE_CURVE('',#937,#1167,#1175,.T.);
#1175 = LINE('',#1176,#1177);
#1176 = CARTESIAN_POINT('',(10.,10.,23.));
#1177 = VECTOR('',#1178,1.);
#1178 = DIRECTION('',(0.,0.,1.));
#1179 = ORIENTED_EDGE('',*,*,#944,.F.);
#1180 = PLANE('',#1181);
#1181 = AXIS2_PLACEMENT_3D('',#1182,#1183,#1184);
#1182 = CARTESIAN_POINT('',(10.,-10.,23.));
#1183 = DIRECTION('',(-1.,0.,0.));
#1184 = DIRECTION('',(0.,1.,0.));
#1185 = ADVANCED_FACE('',(#1186),#1197,.F.);
#1186 = FACE_BOUND('',#1187,.F.);
#1187 = EDGE_LOOP('',(#1188,#1189,#1195,#1196));
#1188 = ORIENTED_EDGE('',*,*,#1174,.T.);
#1189 = ORIENTED_EDGE('',*,*,#1190,.T.);
#1190 = EDGE_CURVE('',#1167,#1087,#1191,.T.);
#1191 = LINE('',#1192,#1193);
#1192 = CARTESIAN_POINT('',(10.,10.,24.));
#1193 = VECTOR('',#1194,1.);
#1194 = DIRECTION('',(-1.,0.,0.));
#1195 = ORIENTED_EDGE('',*,*,#1086,.F.);
#1196 = ORIENTED_EDGE('',*,*,#936,.F.);
#1197 = PLANE('',#1198);
#1198 = AXIS2_PLACEMENT_3D('',#1199,#1200,#1201);
#1199 = CARTESIAN_POINT('',(10.,10.,23.));
#1200 = DIRECTION('',(0.,-1.,0.));
#1201 = DIRECTION('',(-1.,0.,0.));
#1202 = ADVANCED_FACE('',(#1203),#1215,.T.);
#1203 = FACE_BOUND('',#1204,.T.);
#1204 = EDGE_LOOP('',(#1205,#1206,#1207,#1214));
#1205 = ORIENTED_EDGE('',*,*,#1070,.T.);
#1206 = ORIENTED_EDGE('',*,*,#974,.T.);
#1207 = ORIENTED_EDGE('',*,*,#1208,.T.);
#1208 = EDGE_CURVE('',#975,#1039,#1209,.T.);
#1209 = CIRCLE('',#1210,10.);
#1210 = AXIS2_PLACEMENT_3D('',#1211,#1212,#1213);
#1211 = CARTESIAN_POINT('',(0.,0.,24.));
#1212 = DIRECTION('',(0.,0.,-1.));
#1213 = DIRECTION('',(1.,0.,0.));
#1214 = ORIENTED_EDGE('',*,*,#1046,.T.);
#1215 = PLANE('',#1216);
#1216 = AXIS2_PLACEMENT_3D('',#1217,#1218,#1219);
#1217 = CARTESIAN_POINT('',(-9.,0.,24.));
#1218 = DIRECTION('',(0.,0.,1.));
#1219 = DIRECTION('',(1.,0.,0.));
#1220 = ADVANCED_FACE('',(#1221),#1233,.T.);
#1221 = FACE_BOUND('',#1222,.T.);
#1222 = EDGE_LOOP('',(#1223,#1230,#1231,#1232));
#1223 = ORIENTED_EDGE('',*,*,#1224,.T.);
#1224 = EDGE_CURVE('',#1031,#975,#1225,.T.);
#1225 = CIRCLE('',#1226,10.);
#1226 = AXIS2_PLACEMENT_3D('',#1227,#1228,#1229);
#1227 = CARTESIAN_POINT('',(0.,0.,24.));
#1228 = DIRECTION('',(0.,0.,-1.));
#1229 = DIRECTION('',(1.,0.,0.));
#1230 = ORIENTED_EDGE('',*,*,#982,.T.);
#1231 = ORIENTED_EDGE('',*,*,#1006,.T.);
#1232 = ORIENTED_EDGE('',*,*,#1030,.T.);
#1233 = PLANE('',#1234);
#1234 = AXIS2_PLACEMENT_3D('',#1235,#1236,#1237);
#1235 = CARTESIAN_POINT('',(-9.,0.,24.));
#1236 = DIRECTION('',(0.,0.,1.));
#1237 = DIRECTION('',(1.,0.,0.));
#1238 = ADVANCED_FACE('',(#1239),#1257,.T.);
#1239 = FACE_BOUND('',#1240,.F.);
#1240 = EDGE_LOOP('',(#1241,#1248,#1249,#1256));
#1241 = ORIENTED_EDGE('',*,*,#1242,.F.);
#1242 = EDGE_CURVE('',#1103,#1031,#1243,.T.);
#1243 = CIRCLE('',#1244,10.);
#1244 = AXIS2_PLACEMENT_3D('',#1245,#1246,#1247);
#1245 = CARTESIAN_POINT('',(0.,0.,24.));
#1246 = DIRECTION('',(0.,0.,-1.));
#1247 = DIRECTION('',(1.,0.,0.));
#1248 = ORIENTED_EDGE('',*,*,#1102,.F.);
#1249 = ORIENTED_EDGE('',*,*,#1250,.F.);
#1250 = EDGE_CURVE('',#1039,#1095,#1251,.T.);
#1251 = CIRCLE('',#1252,10.);
#1252 = AXIS2_PLACEMENT_3D('',#1253,#1254,#1255);
#1253 = CARTESIAN_POINT('',(0.,0.,24.));
#1254 = DIRECTION('',(0.,0.,-1.));
#1255 = DIRECTION('',(1.,0.,0.));
#1256 = ORIENTED_EDGE('',*,*,#1038,.F.);
#1257 = PLANE('',#1258);
#1258 = AXIS2_PLACEMENT_3D('',#1259,#1260,#1261);
#1259 = CARTESIAN_POINT('',(0.,0.,24.));
#1260 = DIRECTION('',(-0.,0.,-1.));
#1261 = DIRECTION('',(1.,0.,0.));
#1262 = ADVANCED_FACE('',(#1263),#1275,.T.);
#1263 = FACE_BOUND('',#1264,.T.);
#1264 = EDGE_LOOP('',(#1265,#1266,#1267,#1274));
#1265 = ORIENTED_EDGE('',*,*,#1190,.T.);
#1266 = ORIENTED_EDGE('',*,*,#1094,.T.);
#1267 = ORIENTED_EDGE('',*,*,#1268,.T.);
#1268 = EDGE_CURVE('',#1095,#1159,#1269,.T.);
#1269 = CIRCLE('',#1270,10.);
#1270 = AXIS2_PLACEMENT_3D('',#1271,#1272,#1273);
#1271 = CARTESIAN_POINT('',(0.,0.,24.));
#1272 = DIRECTION('',(0.,0.,-1.));
#1273 = DIRECTION('',(1.,0.,0.));
#1274 = ORIENTED_EDGE('',*,*,#1166,.T.);
#1275 = PLANE('',#1276);
#1276 = AXIS2_PLACEMENT_3D('',#1277,#1278,#1279);
#1277 = CARTESIAN_POINT('',(9.,0.,24.));
#1278 = DIRECTION('',(0.,0.,1.));
#1279 = DIRECTION('',(1.,0.,0.));
#1280 = ADVANCED_FACE('',(#1281),#1293,.T.);
#1281 = FACE_BOUND('',#1282,.T.);
#1282 = EDGE_LOOP('',(#1283,#1290,#1291,#1292));
#1283 = ORIENTED_EDGE('',*,*,#1284,.T.);
#1284 = EDGE_CURVE('',#1159,#1103,#1285,.T.);
#1285 = CIRCLE('',#1286,10.);
#1286 = AXIS2_PLACEMENT_3D('',#1287,#1288,#1289);
#1287 = CARTESIAN_POINT('',(0.,0.,24.));
#1288 = DIRECTION('',(0.,0.,-1.));
#1289 = DIRECTION('',(1.,0.,0.));
#1290 = ORIENTED_EDGE('',*,*,#1110,.T.);
#1291 = ORIENTED_EDGE('',*,*,#1134,.T.);
#1292 = ORIENTED_EDGE('',*,*,#1158,.T.);
#1293 = PLANE('',#1294);
#1294 = AXIS2_PLACEMENT_3D('',#1295,#1296,#1297);
#1295 = CARTESIAN_POINT('',(9.,0.,24.));
#1296 = DIRECTION('',(0.,0.,1.));
#1297 = DIRECTION('',(1.,0.,0.));
#1298 = ADVANCED_FACE('',(#1299),#1362,.F.);
#1299 = FACE_BOUND('',#1300,.F.);
#1300 = EDGE_LOOP('',(#1301,#1348,#1349,#1350,#1351,#1352,#1353,#1354,
    #1355));
#1301 = ORIENTED_EDGE('',*,*,#1302,.F.);
#1302 = EDGE_CURVE('',#1159,#1303,#1305,.T.);
#1303 = VERTEX_POINT('',#1304);
#1304 = CARTESIAN_POINT('',(14.,0.,26.54647908947));
#1305 = B_SPLINE_CURVE_WITH_KNOTS('',3,(#1306,#1307,#1308,#1309,#1310,
    #1311,#1312,#1313,#1314,#1315,#1316,#1317,#1318,#1319,#1320,#1321,
    #1322,#1323,#1324,#1325,#1326,#1327,#1328,#1329,#1330,#1331,#1332,
    #1333,#1334,#1335,#1336,#1337,#1338,#1339,#1340,#1341,#1342,#1343,
    #1344,#1345,#1346,#1347),.UNSPECIFIED.,.F.,.F.,(4,1,1,1,1,1,1,1,1,1,
    1,1,1,1,1,1,1,1,1,1,1,1,1,1,1,1,1,1,1,1,1,1,1,1,1,1,1,1,1,4),(0.,
    0.205058888639,0.409785171018,0.613846780362,0.816912728003,
    1.018653640236,1.21874229257,1.416854140487,1.612667845851,
    1.805865798122,1.996134629525,2.183165723325,2.366655714412,
    2.546306981359,2.721828129162,2.892934461888,3.059348444449,
    3.22080015277,3.377027711601,3.527777719284,3.67280565877,
    3.811876294229,3.944764052602,4.07125338948,4.191139138722,
    4.304226845235,4.410333080383,4.509285739508,4.600924321089,
    4.685100187081,4.76167680401,4.830529964441,4.891547988459,
    4.944631904841,4.98969561164,5.02666601595,5.055483152733,
    5.076100282871,5.088483972427,5.092614184697),.UNSPECIFIED.);
#1306 = CARTESIAN_POINT('',(10.,0.,24.));
#1307 = CARTESIAN_POINT('',(10.068357420571,0.,24.));
#1308 = CARTESIAN_POINT('',(10.204961958398,0.,24.002750250075));
#1309 = CARTESIAN_POINT('',(10.4092596537,0.,24.015102961936));
#1310 = CARTESIAN_POINT('',(10.612233600227,0.,24.035601782336));
#1311 = CARTESIAN_POINT('',(10.813232445529,0.,24.064113768556));
#1312 = CARTESIAN_POINT('',(11.011617843538,0.,24.100454009427));
#1313 = CARTESIAN_POINT('',(11.206768344895,0.,24.144386824541));
#1314 = CARTESIAN_POINT('',(11.398083493715,0.,24.195627292734));
#1315 = CARTESIAN_POINT('',(11.584987704131,0.,24.253843099906));
#1316 = CARTESIAN_POINT('',(11.766933997857,0.,24.31865669421));
#1317 = CARTESIAN_POINT('',(11.943407550312,0.,24.389647734615));
#1318 = CARTESIAN_POINT('',(12.113929029778,0.,24.466355816982));
#1319 = CARTESIAN_POINT('',(12.27805770595,0.,24.548283459963));
#1320 = CARTESIAN_POINT('',(12.435394308263,0.,24.634899331355));
#1321 = CARTESIAN_POINT('',(12.585583615295,0.,24.725641693994));
#1322 = CARTESIAN_POINT('',(12.728316758505,0.,24.819922048837));
#1323 = CARTESIAN_POINT('',(12.863333225348,0.,24.917128951607));
#1324 = CARTESIAN_POINT('',(12.99042254878,0.,25.016631978237));
#1325 = CARTESIAN_POINT('',(13.109425672193,0.,25.117785813416));
#1326 = CARTESIAN_POINT('',(13.220235980933,0.,25.21993443571));
#1327 = CARTESIAN_POINT('',(13.32279999369,0.,25.322415372103));
#1328 = CARTESIAN_POINT('',(13.417117709299,0.,25.424563994401));
#1329 = CARTESIAN_POINT('',(13.503242606679,0.,25.525717829588));
#1330 = CARTESIAN_POINT('',(13.581281297904,0.,25.625220856231));
#1331 = CARTESIAN_POINT('',(13.651392836674,0.,25.722427759018));
#1332 = CARTESIAN_POINT('',(13.713787686533,0.,25.816708113886));
#1333 = CARTESIAN_POINT('',(13.768726355945,0.,25.907450476558));
#1334 = CARTESIAN_POINT('',(13.816517707493,0.,25.994066347991));
#1335 = CARTESIAN_POINT('',(13.857516957267,0.,26.075993991032));
#1336 = CARTESIAN_POINT('',(13.892123360052,0.,26.152702073465));
#1337 = CARTESIAN_POINT('',(13.92077765187,0.,26.22369311401));
#1338 = CARTESIAN_POINT('',(13.943959081154,0.,26.288506708345));
#1339 = CARTESIAN_POINT('',(13.962182638387,0.,26.346722516093));
#1340 = CARTESIAN_POINT('',(13.975994643759,0.,26.397962983522));
#1341 = CARTESIAN_POINT('',(13.985972393778,0.,26.441895802368));
#1342 = CARTESIAN_POINT('',(13.992711042064,0.,26.478236035361));
#1343 = CARTESIAN_POINT('',(13.99684536456,0.,26.506748046383));
#1344 = CARTESIAN_POINT('',(13.998979454444,0.,26.527246820575));
#1345 = CARTESIAN_POINT('',(13.999829147973,0.,26.539599649731));
#1346 = CARTESIAN_POINT('',(13.999977821321,0.,26.545102299825));
#1347 = CARTESIAN_POINT('',(14.,0.,26.54647908947));
#1348 = ORIENTED_EDGE('',*,*,#1284,.T.);
#1349 = ORIENTED_EDGE('',*,*,#1242,.T.);
#1350 = ORIENTED_EDGE('',*,*,#1224,.T.);
#1351 = ORIENTED_EDGE('',*,*,#1208,.T.);
#1352 = ORIENTED_EDGE('',*,*,#1250,.T.);
#1353 = ORIENTED_EDGE('',*,*,#1268,.T.);
#1354 = ORIENTED_EDGE('',*,*,#1302,.T.);
#1355 = ORIENTED_EDGE('',*,*,#1356,.F.);
#1356 = EDGE_CURVE('',#1303,#1303,#1357,.T.);
#1357 = CIRCLE('',#1358,14.);
#1358 = AXIS2_PLACEMENT_3D('',#1359,#1360,#1361);
#1359 = CARTESIAN_POINT('',(0.,0.,26.54647908947));
#1360 = DIRECTION('',(0.,0.,-1.));
#1361 = DIRECTION('',(1.,0.,0.));
#1362 = SURFACE_OF_REVOLUTION('',#1363,#1406);
#1363 = B_SPLINE_CURVE_WITH_KNOTS('',3,(#1364,#1365,#1366,#1367,#1368,
    #1369,#1370,#1371,#1372,#1373,#1374,#1375,#1376,#1377,#1378,#1379,
    #1380,#1381,#1382,#1383,#1384,#1385,#1386,#1387,#1388,#1389,#1390,
    #1391,#1392,#1393,#1394,#1395,#1396,#1397,#1398,#1399,#1400,#1401,
    #1402,#1403,#1404,#1405),.UNSPECIFIED.,.F.,.F.,(4,1,1,1,1,1,1,1,1,1,
    1,1,1,1,1,1,1,1,1,1,1,1,1,1,1,1,1,1,1,1,1,1,1,1,1,1,1,1,1,4),(0.,
    0.205058888639,0.409785171018,0.613846780362,0.816912728003,
    1.018653640236,1.21874229257,1.416854140487,1.612667845851,
    1.805865798122,1.996134629525,2.183165723325,2.366655714412,
    2.546306981359,2.721828129162,2.892934461888,3.059348444449,
    3.22080015277,3.377027711601,3.527777719284,3.67280565877,
    3.811876294229,3.944764052602,4.07125338948,4.191139138722,
    4.304226845235,4.410333080383,4.509285739508,4.600924321089,
    4.685100187081,4.76167680401,4.830529964441,4.891547988459,
    4.944631904841,4.98969561164,5.02666601595,5.055483152733,
    5.076100282871,5.088483972427,5.092614184697),.UNSPECIFIED.);
#1364 = CARTESIAN_POINT('',(10.,0.,24.));
#1365 = CARTESIAN_POINT('',(10.068357420571,0.,24.));
#1366 = CARTESIAN_POINT('',(10.204961958398,0.,24.002750250075));
#1367 = CARTESIAN_POINT('',(10.4092596537,0.,24.015102961936));
#1368 = CARTESIAN_POINT('',(10.612233600227,0.,24.035601782336));
#1369 = CARTESIAN_POINT('',(10.813232445529,0.,24.064113768556));
#1370 = CARTESIAN_POINT('',(11.011617843538,0.,24.100454009427));
#1371 = CARTESIAN_POINT('',(11.206768344895,0.,24.144386824541));
#1372 = CARTESIAN_POINT('',(11.398083493715,0.,24.195627292734));
#1373 = CARTESIAN_POINT('',(11.584987704131,0.,24.253843099906));
#1374 = CARTESIAN_POINT('',(11.766933997857,0.,24.31865669421));
#1375 = CARTESIAN_POINT('',(11.943407550312,0.,24.389647734615));
#1376 = CARTESIAN_POINT('',(12.113929029778,0.,24.466355816982));
#1377 = CARTESIAN_POINT('',(12.27805770595,0.,24.548283459963));
#1378 = CARTESIAN_POINT('',(12.435394308263,0.,24.634899331355));
#1379 = CARTESIAN_POINT('',(12.585583615295,0.,24.725641693994));
#1380 = CARTESIAN_POINT('',(12.728316758505,0.,24.819922048837));
#1381 = CARTESIAN_POINT('',(12.863333225348,0.,24.917128951607));
#1382 = CARTESIAN_POINT('',(12.99042254878,0.,25.016631978237));
#1383 = CARTESIAN_POINT('',(13.109425672193,0.,25.117785813416));
#1384 = CARTESIAN_POINT('',(13.220235980933,0.,25.21993443571));
#1385 = CARTESIAN_POINT('',(13.32279999369,0.,25.322415372103));
#1386 = CARTESIAN_POINT('',(13.417117709299,0.,25.424563994401));
#1387 = CARTESIAN_POINT('',(13.503242606679,0.,25.525717829588));
#1388 = CARTESIAN_POINT('',(13.581281297904,0.,25.625220856231));
#1389 = CARTESIAN_POINT('',(13.651392836674,0.,25.722427759018));
#1390 = CARTESIAN_POINT('',(13.713787686533,0.,25.816708113886));
#1391 = CARTESIAN_POINT('',(13.768726355945,0.,25.907450476558));
#1392 = CARTESIAN_POINT('',(13.816517707493,0.,25.994066347991));
#1393 = CARTESIAN_POINT('',(13.857516957267,0.,26.075993991032));
#1394 = CARTESIAN_POINT('',(13.892123360052,0.,26.152702073465));
#1395 = CARTESIAN_POINT('',(13.92077765187,0.,26.22369311401));
#1396 = CARTESIAN_POINT('',(13.943959081154,0.,26.288506708345));
#1397 = CARTESIAN_POINT('',(13.962182638387,0.,26.346722516093));
#1398 = CARTESIAN_POINT('',(13.975994643759,0.,26.397962983522));
#1399 = CARTESIAN_POINT('',(13.985972393778,0.,26.441895802368));
#1400 = CARTESIAN_POINT('',(13.992711042064,0.,26.478236035361));
#1401 = CARTESIAN_POINT('',(13.99684536456,0.,26.506748046383));
#1402 = CARTESIAN_POINT('',(13.998979454444,0.,26.527246820575));
#1403 = CARTESIAN_POINT('',(13.999829147973,0.,26.539599649731));
#1404 = CARTESIAN_POINT('',(13.999977821321,0.,26.545102299825));
#1405 = CARTESIAN_POINT('',(14.,0.,26.54647908947));
#1406 = AXIS1_PLACEMENT('',#1407,#1408);
#1407 = CARTESIAN_POINT('',(0.,0.,24.));
#1408 = DIRECTION('',(-0.,0.,-1.));
#1409 = ADVANCED_FACE('',(#1410),#1429,.T.);
#1410 = FACE_BOUND('',#1411,.F.);
#1411 = EDGE_LOOP('',(#1412,#1420,#1421,#1422));
#1412 = ORIENTED_EDGE('',*,*,#1413,.F.);
#1413 = EDGE_CURVE('',#1303,#1414,#1416,.T.);
#1414 = VERTEX_POINT('',#1415);
#1415 = CARTESIAN_POINT('',(14.,0.,38.));
#1416 = LINE('',#1417,#1418);
#1417 = CARTESIAN_POINT('',(14.,0.,26.54647908947));
#1418 = VECTOR('',#1419,1.);
#1419 = DIRECTION('',(0.,0.,1.));
#1420 = ORIENTED_EDGE('',*,*,#1356,.T.);
#1421 = ORIENTED_EDGE('',*,*,#1413,.T.);
#1422 = ORIENTED_EDGE('',*,*,#1423,.F.);
#1423 = EDGE_CURVE('',#1414,#1414,#1424,.T.);
#1424 = CIRCLE('',#1425,14.);
#1425 = AXIS2_PLACEMENT_3D('',#1426,#1427,#1428);
#1426 = CARTESIAN_POINT('',(0.,0.,38.));
#1427 = DIRECTION('',(0.,0.,-1.));
#1428 = DIRECTION('',(1.,0.,0.));
#1429 = CYLINDRICAL_SURFACE('',#1430,14.);
#1430 = AXIS2_PLACEMENT_3D('',#1431,#1432,#1433);
#1431 = CARTESIAN_POINT('',(0.,0.,26.54647908947));
#1432 = DIRECTION('',(0.,0.,1.));
#1433 = DIRECTION('',(1.,0.,0.));
#1434 = ADVANCED_FACE('',(#1435),#1455,.T.);
#1435 = FACE_BOUND('',#1436,.F.);
#1436 = EDGE_LOOP('',(#1437,#1446,#1447,#1448));
#1437 = ORIENTED_EDGE('',*,*,#1438,.F.);
#1438 = EDGE_CURVE('',#1414,#1439,#1441,.T.);
#1439 = VERTEX_POINT('',#1440);
#1440 = CARTESIAN_POINT('',(13.,0.,39.));
#1441 = CIRCLE('',#1442,1.);
#1442 = AXIS2_PLACEMENT_3D('',#1443,#1444,#1445);
#1443 = CARTESIAN_POINT('',(13.,0.,38.));
#1444 = DIRECTION('',(0.,-1.,0.));
#1445 = DIRECTION('',(1.,0.,0.));
#1446 = ORIENTED_EDGE('',*,*,#1423,.F.);
#1447 = ORIENTED_EDGE('',*,*,#1438,.T.);
#1448 = ORIENTED_EDGE('',*,*,#1449,.T.);
#1449 = EDGE_CURVE('',#1439,#1439,#1450,.T.);
#1450 = CIRCLE('',#1451,13.);
#1451 = AXIS2_PLACEMENT_3D('',#1452,#1453,#1454);
#1452 = CARTESIAN_POINT('',(0.,0.,39.));
#1453 = DIRECTION('',(0.,0.,-1.));
#1454 = DIRECTION('',(1.,0.,0.));
#1455 = TOROIDAL_SURFACE('',#1456,13.,1.);
#1456 = AXIS2_PLACEMENT_3D('',#1457,#1458,#1459);
#1457 = CARTESIAN_POINT('',(0.,0.,38.));
#1458 = DIRECTION('',(0.,0.,1.));
#1459 = DIRECTION('',(1.,0.,0.));
#1460 = ADVANCED_FACE('',(#1461,#1464),#1475,.F.);
#1461 = FACE_BOUND('',#1462,.F.);
#1462 = EDGE_LOOP('',(#1463));
#1463 = ORIENTED_EDGE('',*,*,#1449,.T.);
#1464 = FACE_BOUND('',#1465,.F.);
#1465 = EDGE_LOOP('',(#1466));
#1466 = ORIENTED_EDGE('',*,*,#1467,.T.);
#1467 = EDGE_CURVE('',#1468,#1468,#1470,.T.);
#1468 = VERTEX_POINT('',#1469);
#1469 = CARTESIAN_POINT('',(4.5,0.,39.));
#1470 = CIRCLE('',#1471,4.5);
#1471 = AXIS2_PLACEMENT_3D('',#1472,#1473,#1474);
#1472 = CARTESIAN_POINT('',(0.,0.,39.));
#1473 = DIRECTION('',(-0.,2.2E-16,1.));
#1474 = DIRECTION('',(1.,0.,0.));
#1475 = PLANE('',#1476);
#1476 = AXIS2_PLACEMENT_3D('',#1477,#1478,#1479);
#1477 = CARTESIAN_POINT('',(0.,0.,39.));
#1478 = DIRECTION('',(-0.,0.,-1.));
#1479 = DIRECTION('',(1.,0.,0.));
#1480 = ADVANCED_FACE('',(#1481),#1500,.F.);
#1481 = FACE_BOUND('',#1482,.T.);
#1482 = EDGE_LOOP('',(#1483,#1491,#1492,#1493));
#1483 = ORIENTED_EDGE('',*,*,#1484,.F.);
#1484 = EDGE_CURVE('',#1468,#1485,#1487,.T.);
#1485 = VERTEX_POINT('',#1486);
#1486 = CARTESIAN_POINT('',(4.5,-2.E-15,29.));
#1487 = LINE('',#1488,#1489);
#1488 = CARTESIAN_POINT('',(4.5,0.,39.));
#1489 = VECTOR('',#1490,1.);
#1490 = DIRECTION('',(-9.E-17,-2.2E-16,-1.));
#1491 = ORIENTED_EDGE('',*,*,#1467,.T.);
#1492 = ORIENTED_EDGE('',*,*,#1484,.T.);
#1493 = ORIENTED_EDGE('',*,*,#1494,.F.);
#1494 = EDGE_CURVE('',#1485,#1485,#1495,.T.);
#1495 = CIRCLE('',#1496,4.5);
#1496 = AXIS2_PLACEMENT_3D('',#1497,#1498,#1499);
#1497 = CARTESIAN_POINT('',(0.,-2.22E-15,29.));
#1498 = DIRECTION('',(-0.,2.2E-16,1.));
#1499 = DIRECTION('',(1.,0.,0.));
#1500 = CYLINDRICAL_SURFACE('',#1501,4.5);
#1501 = AXIS2_PLACEMENT_3D('',#1502,#1503,#1504);
#1502 = CARTESIAN_POINT('',(0.,0.,39.));
#1503 = DIRECTION('',(0.,-2.2E-16,-1.));
#1504 = DIRECTION('',(1.,0.,0.));
#1505 = ADVANCED_FACE('',(#1506),#1509,.T.);
#1506 = FACE_BOUND('',#1507,.T.);
#1507 = EDGE_LOOP('',(#1508));
#1508 = ORIENTED_EDGE('',*,*,#1494,.T.);
#1509 = PLANE('',#1510);
#1510 = AXIS2_PLACEMENT_3D('',#1511,#1512,#1513);
#1511 = CARTESIAN_POINT('',(0.,-2.22E-15,29.));
#1512 = DIRECTION('',(0.,2.2E-16,1.));
#1513 = DIRECTION('',(1.,0.,0.));
#1514 = ( GEOMETRIC_REPRESENTATION_CONTEXT(3) 
GLOBAL_UNCERTAINTY_ASSIGNED_CONTEXT((#1518)) 
GLOBAL_UNIT_ASSIGNED_CONTEXT((#1515,#1516,#1517)) REPRESENTATION_CONTEXT
('Context #1','3D Context with UNIT and UNCERTAINTY') );
#1515 = ( LENGTH_UNIT() NAMED_UNIT(*) SI_UNIT(.MILLI.,.METRE.) );
#1516 = ( NAMED_UNIT(*) PLANE_ANGLE_UNIT() SI_UNIT($,.RADIAN.) );
#1517 = ( NAMED_UNIT(*) SI_UNIT($,.STERADIAN.) SOLID_ANGLE_UNIT() );
#1518 = UNCERTAINTY_MEASURE_WITH_UNIT(LENGTH_MEASURE(1.E-07),#1515,
  'distance_accuracy_value','confusion accuracy');
#1519 = PRODUCT_RELATED_PRODUCT_CATEGORY('part',$,(#7));
#1520 = MECHANICAL_DESIGN_GEOMETRIC_PRESENTATION_REPRESENTATION('',(
    #1521,#1532,#1541,#1550,#1559,#1568,#1577,#1585,#1594,#1603,#1612,
    #1619,#1628,#1637,#1644,#1651,#1658,#1667,#1676,#1685,#1694,#1701,
    #1710,#1720,#1729,#1738,#1747,#1756,#1765,#1774,#1783,#1792,#1801,
    #1810,#1819,#1828,#1837,#1846,#1855,#1864,#1873,#1882,#1891,#1900),
  #1514);
#1521 = STYLED_ITEM('color',(#1522),#15);
#1522 = PRESENTATION_STYLE_ASSIGNMENT((#1523,#1529));
#1523 = SURFACE_STYLE_USAGE(.BOTH.,#1524);
#1524 = SURFACE_SIDE_STYLE('',(#1525));
#1525 = SURFACE_STYLE_FILL_AREA(#1526);
#1526 = FILL_AREA_STYLE('',(#1527));
#1527 = FILL_AREA_STYLE_COLOUR('',#1528);
#1528 = COLOUR_RGB('',0.447058818107,0.474509808674,0.501960817233);
#1529 = CURVE_STYLE('',#1530,POSITIVE_LENGTH_MEASURE(0.1),#1531);
#1530 = DRAUGHTING_PRE_DEFINED_CURVE_FONT('continuous');
#1531 = COLOUR_RGB('',9.803921802644E-02,9.803921802644E-02,
  9.803921802644E-02);
#1532 = OVER_RIDING_STYLED_ITEM('overriding color',(#1533),#17,#1521);
#1533 = PRESENTATION_STYLE_ASSIGNMENT((#1534));
#1534 = SURFACE_STYLE_USAGE(.BOTH.,#1535);
#1535 = SURFACE_SIDE_STYLE('',(#1536,#1539));
#1536 = SURFACE_STYLE_FILL_AREA(#1537);
#1537 = FILL_AREA_STYLE('',(#1538));
#1538 = FILL_AREA_STYLE_COLOUR('',#1528);
#1539 = SURFACE_STYLE_RENDERING_WITH_PROPERTIES(.NORMAL_SHADING.,#1528,(
    #1540));
#1540 = SURFACE_STYLE_TRANSPARENT(1.);
#1541 = OVER_RIDING_STYLED_ITEM('overriding color',(#1542),#220,#1521);
#1542 = PRESENTATION_STYLE_ASSIGNMENT((#1543));
#1543 = SURFACE_STYLE_USAGE(.BOTH.,#1544);
#1544 = SURFACE_SIDE_STYLE('',(#1545,#1548));
#1545 = SURFACE_STYLE_FILL_AREA(#1546);
#1546 = FILL_AREA_STYLE('',(#1547));
#1547 = FILL_AREA_STYLE_COLOUR('',#1528);
#1548 = SURFACE_STYLE_RENDERING_WITH_PROPERTIES(.NORMAL_SHADING.,#1528,(
    #1549));
#1549 = SURFACE_STYLE_TRANSPARENT(1.);
#1550 = OVER_RIDING_STYLED_ITEM('overriding color',(#1551),#246,#1521);
#1551 = PRESENTATION_STYLE_ASSIGNMENT((#1552));
#1552 = SURFACE_STYLE_USAGE(.BOTH.,#1553);
#1553 = SURFACE_SIDE_STYLE('',(#1554,#1557));
#1554 = SURFACE_STYLE_FILL_AREA(#1555);
#1555 = FILL_AREA_STYLE('',(#1556));
#1556 = FILL_AREA_STYLE_COLOUR('',#1528);
#1557 = SURFACE_STYLE_RENDERING_WITH_PROPERTIES(.NORMAL_SHADING.,#1528,(
    #1558));
#1558 = SURFACE_STYLE_TRANSPARENT(1.);
#1559 = OVER_RIDING_STYLED_ITEM('overriding color',(#1560),#397,#1521);
#1560 = PRESENTATION_STYLE_ASSIGNMENT((#1561));
#1561 = SURFACE_STYLE_USAGE(.BOTH.,#1562);
#1562 = SURFACE_SIDE_STYLE('',(#1563,#1566));
#1563 = SURFACE_STYLE_FILL_AREA(#1564);
#1564 = FILL_AREA_STYLE('',(#1565));
#1565 = FILL_AREA_STYLE_COLOUR('',#1528);
#1566 = SURFACE_STYLE_RENDERING_WITH_PROPERTIES(.NORMAL_SHADING.,#1528,(
    #1567));
#1567 = SURFACE_STYLE_TRANSPARENT(1.);
#1568 = OVER_RIDING_STYLED_ITEM('overriding color',(#1569),#424,#1521);
#1569 = PRESENTATION_STYLE_ASSIGNMENT((#1570));
#1570 = SURFACE_STYLE_USAGE(.BOTH.,#1571);
#1571 = SURFACE_SIDE_STYLE('',(#1572,#1575));
#1572 = SURFACE_STYLE_FILL_AREA(#1573);
#1573 = FILL_AREA_STYLE('',(#1574));
#1574 = FILL_AREA_STYLE_COLOUR('',#1528);
#1575 = SURFACE_STYLE_RENDERING_WITH_PROPERTIES(.NORMAL_SHADING.,#1528,(
    #1576));
#1576 = SURFACE_STYLE_TRANSPARENT(1.);
#1577 = OVER_RIDING_STYLED_ITEM('overriding color',(#1578),#444,#1521);
#1578 = PRESENTATION_STYLE_ASSIGNMENT((#1579));
#1579 = SURFACE_STYLE_USAGE(.BOTH.,#1580);
#1580 = SURFACE_SIDE_STYLE('',(#1581));
#1581 = SURFACE_STYLE_FILL_AREA(#1582);
#1582 = FILL_AREA_STYLE('',(#1583));
#1583 = FILL_AREA_STYLE_COLOUR('',#1584);
#1584 = COLOUR_RGB('',0.800000010877,0.800000010877,0.901960800373);
#1585 = OVER_RIDING_STYLED_ITEM('overriding color',(#1586),#475,#1521);
#1586 = PRESENTATION_STYLE_ASSIGNMENT((#1587));
#1587 = SURFACE_STYLE_USAGE(.BOTH.,#1588);
#1588 = SURFACE_SIDE_STYLE('',(#1589,#1592));
#1589 = SURFACE_STYLE_FILL_AREA(#1590);
#1590 = FILL_AREA_STYLE('',(#1591));
#1591 = FILL_AREA_STYLE_COLOUR('',#1528);
#1592 = SURFACE_STYLE_RENDERING_WITH_PROPERTIES(.NORMAL_SHADING.,#1528,(
    #1593));
#1593 = SURFACE_STYLE_TRANSPARENT(1.);
#1594 = OVER_RIDING_STYLED_ITEM('overriding color',(#1595),#497,#1521);
#1595 = PRESENTATION_STYLE_ASSIGNMENT((#1596));
#1596 = SURFACE_STYLE_USAGE(.BOTH.,#1597);
#1597 = SURFACE_SIDE_STYLE('',(#1598,#1601));
#1598 = SURFACE_STYLE_FILL_AREA(#1599);
#1599 = FILL_AREA_STYLE('',(#1600));
#1600 = FILL_AREA_STYLE_COLOUR('',#1528);
#1601 = SURFACE_STYLE_RENDERING_WITH_PROPERTIES(.NORMAL_SHADING.,#1528,(
    #1602));
#1602 = SURFACE_STYLE_TRANSPARENT(1.);
#1603 = OVER_RIDING_STYLED_ITEM('overriding color',(#1604),#528,#1521);
#1604 = PRESENTATION_STYLE_ASSIGNMENT((#1605));
#1605 = SURFACE_STYLE_USAGE(.BOTH.,#1606);
#1606 = SURFACE_SIDE_STYLE('',(#1607,#1610));
#1607 = SURFACE_STYLE_FILL_AREA(#1608);
#1608 = FILL_AREA_STYLE('',(#1609));
#1609 = FILL_AREA_STYLE_COLOUR('',#1528);
#1610 = SURFACE_STYLE_RENDERING_WITH_PROPERTIES(.NORMAL_SHADING.,#1528,(
    #1611));
#1611 = SURFACE_STYLE_TRANSPARENT(1.);
#1612 = OVER_RIDING_STYLED_ITEM('overriding color',(#1613),#559,#1521);
#1613 = PRESENTATION_STYLE_ASSIGNMENT((#1614));
#1614 = SURFACE_STYLE_USAGE(.BOTH.,#1615);
#1615 = SURFACE_SIDE_STYLE('',(#1616));
#1616 = SURFACE_STYLE_FILL_AREA(#1617);
#1617 = FILL_AREA_STYLE('',(#1618));
#1618 = FILL_AREA_STYLE_COLOUR('',#1584);
#1619 = OVER_RIDING_STYLED_ITEM('overriding color',(#1620),#590,#1521);
#1620 = PRESENTATION_STYLE_ASSIGNMENT((#1621));
#1621 = SURFACE_STYLE_USAGE(.BOTH.,#1622);
#1622 = SURFACE_SIDE_STYLE('',(#1623,#1626));
#1623 = SURFACE_STYLE_FILL_AREA(#1624);
#1624 = FILL_AREA_STYLE('',(#1625));
#1625 = FILL_AREA_STYLE_COLOUR('',#1528);
#1626 = SURFACE_STYLE_RENDERING_WITH_PROPERTIES(.NORMAL_SHADING.,#1528,(
    #1627));
#1627 = SURFACE_STYLE_TRANSPARENT(1.);
#1628 = OVER_RIDING_STYLED_ITEM('overriding color',(#1629),#599,#1521);
#1629 = PRESENTATION_STYLE_ASSIGNMENT((#1630));
#1630 = SURFACE_STYLE_USAGE(.BOTH.,#1631);
#1631 = SURFACE_SIDE_STYLE('',(#1632,#1635));
#1632 = SURFACE_STYLE_FILL_AREA(#1633);
#1633 = FILL_AREA_STYLE('',(#1634));
#1634 = FILL_AREA_STYLE_COLOUR('',#1528);
#1635 = SURFACE_STYLE_RENDERING_WITH_PROPERTIES(.NORMAL_SHADING.,#1528,(
    #1636));
#1636 = SURFACE_STYLE_TRANSPARENT(1.);
#1637 = OVER_RIDING_STYLED_ITEM('overriding color',(#1638),#624,#1521);
#1638 = PRESENTATION_STYLE_ASSIGNMENT((#1639));
#1639 = SURFACE_STYLE_USAGE(.BOTH.,#1640);
#1640 = SURFACE_SIDE_STYLE('',(#1641));
#1641 = SURFACE_STYLE_FILL_AREA(#1642);
#1642 = FILL_AREA_STYLE('',(#1643));
#1643 = FILL_AREA_STYLE_COLOUR('',#1584);
#1644 = OVER_RIDING_STYLED_ITEM('overriding color',(#1645),#656,#1521);
#1645 = PRESENTATION_STYLE_ASSIGNMENT((#1646));
#1646 = SURFACE_STYLE_USAGE(.BOTH.,#1647);
#1647 = SURFACE_SIDE_STYLE('',(#1648));
#1648 = SURFACE_STYLE_FILL_AREA(#1649);
#1649 = FILL_AREA_STYLE('',(#1650));
#1650 = FILL_AREA_STYLE_COLOUR('',#1584);
#1651 = OVER_RIDING_STYLED_ITEM('overriding color',(#1652),#680,#1521);
#1652 = PRESENTATION_STYLE_ASSIGNMENT((#1653));
#1653 = SURFACE_STYLE_USAGE(.BOTH.,#1654);
#1654 = SURFACE_SIDE_STYLE('',(#1655));
#1655 = SURFACE_STYLE_FILL_AREA(#1656);
#1656 = FILL_AREA_STYLE('',(#1657));
#1657 = FILL_AREA_STYLE_COLOUR('',#1584);
#1658 = OVER_RIDING_STYLED_ITEM('overriding color',(#1659),#706,#1521);
#1659 = PRESENTATION_STYLE_ASSIGNMENT((#1660));
#1660 = SURFACE_STYLE_USAGE(.BOTH.,#1661);
#1661 = SURFACE_SIDE_STYLE('',(#1662,#1665));
#1662 = SURFACE_STYLE_FILL_AREA(#1663);
#1663 = FILL_AREA_STYLE('',(#1664));
#1664 = FILL_AREA_STYLE_COLOUR('',#1528);
#1665 = SURFACE_STYLE_RENDERING_WITH_PROPERTIES(.NORMAL_SHADING.,#1528,(
    #1666));
#1666 = SURFACE_STYLE_TRANSPARENT(1.);
#1667 = OVER_RIDING_STYLED_ITEM('overriding color',(#1668),#739,#1521);
#1668 = PRESENTATION_STYLE_ASSIGNMENT((#1669));
#1669 = SURFACE_STYLE_USAGE(.BOTH.,#1670);
#1670 = SURFACE_SIDE_STYLE('',(#1671,#1674));
#1671 = SURFACE_STYLE_FILL_AREA(#1672);
#1672 = FILL_AREA_STYLE('',(#1673));
#1673 = FILL_AREA_STYLE_COLOUR('',#1528);
#1674 = SURFACE_STYLE_RENDERING_WITH_PROPERTIES(.NORMAL_SHADING.,#1528,(
    #1675));
#1675 = SURFACE_STYLE_TRANSPARENT(1.);
#1676 = OVER_RIDING_STYLED_ITEM('overriding color',(#1677),#763,#1521);
#1677 = PRESENTATION_STYLE_ASSIGNMENT((#1678));
#1678 = SURFACE_STYLE_USAGE(.BOTH.,#1679);
#1679 = SURFACE_SIDE_STYLE('',(#1680,#1683));
#1680 = SURFACE_STYLE_FILL_AREA(#1681);
#1681 = FILL_AREA_STYLE('',(#1682));
#1682 = FILL_AREA_STYLE_COLOUR('',#1528);
#1683 = SURFACE_STYLE_RENDERING_WITH_PROPERTIES(.NORMAL_SHADING.,#1528,(
    #1684));
#1684 = SURFACE_STYLE_TRANSPARENT(1.);
#1685 = OVER_RIDING_STYLED_ITEM('overriding color',(#1686),#788,#1521);
#1686 = PRESENTATION_STYLE_ASSIGNMENT((#1687));
#1687 = SURFACE_STYLE_USAGE(.BOTH.,#1688);
#1688 = SURFACE_SIDE_STYLE('',(#1689,#1692));
#1689 = SURFACE_STYLE_FILL_AREA(#1690);
#1690 = FILL_AREA_STYLE('',(#1691));
#1691 = FILL_AREA_STYLE_COLOUR('',#1528);
#1692 = SURFACE_STYLE_RENDERING_WITH_PROPERTIES(.NORMAL_SHADING.,#1528,(
    #1693));
#1693 = SURFACE_STYLE_TRANSPARENT(1.);
#1694 = OVER_RIDING_STYLED_ITEM('overriding color',(#1695),#805,#1521);
#1695 = PRESENTATION_STYLE_ASSIGNMENT((#1696));
#1696 = SURFACE_STYLE_USAGE(.BOTH.,#1697);
#1697 = SURFACE_SIDE_STYLE('',(#1698));
#1698 = SURFACE_STYLE_FILL_AREA(#1699);
#1699 = FILL_AREA_STYLE('',(#1700));
#1700 = FILL_AREA_STYLE_COLOUR('',#1584);
#1701 = OVER_RIDING_STYLED_ITEM('overriding color',(#1702),#822,#1521);
#1702 = PRESENTATION_STYLE_ASSIGNMENT((#1703));
#1703 = SURFACE_STYLE_USAGE(.BOTH.,#1704);
#1704 = SURFACE_SIDE_STYLE('',(#1705,#1708));
#1705 = SURFACE_STYLE_FILL_AREA(#1706);
#1706 = FILL_AREA_STYLE('',(#1707));
#1707 = FILL_AREA_STYLE_COLOUR('',#1528);
#1708 = SURFACE_STYLE_RENDERING_WITH_PROPERTIES(.NORMAL_SHADING.,#1528,(
    #1709));
#1709 = SURFACE_STYLE_TRANSPARENT(1.);
#1710 = OVER_RIDING_STYLED_ITEM('overriding color',(#1711),#831,#1521);
#1711 = PRESENTATION_STYLE_ASSIGNMENT((#1712));
#1712 = SURFACE_STYLE_USAGE(.BOTH.,#1713);
#1713 = SURFACE_SIDE_STYLE('',(#1714,#1718));
#1714 = SURFACE_STYLE_FILL_AREA(#1715);
#1715 = FILL_AREA_STYLE('',(#1716));
#1716 = FILL_AREA_STYLE_COLOUR('',#1717);
#1717 = COLOUR_RGB('',0.898039222556,0.729411790161,0.392156863511);
#1718 = SURFACE_STYLE_RENDERING_WITH_PROPERTIES(.NORMAL_SHADING.,#1717,(
    #1719));
#1719 = SURFACE_STYLE_TRANSPARENT(1.);
#1720 = OVER_RIDING_STYLED_ITEM('overriding color',(#1721),#860,#1521);
#1721 = PRESENTATION_STYLE_ASSIGNMENT((#1722));
#1722 = SURFACE_STYLE_USAGE(.BOTH.,#1723);
#1723 = SURFACE_SIDE_STYLE('',(#1724,#1727));
#1724 = SURFACE_STYLE_FILL_AREA(#1725);
#1725 = FILL_AREA_STYLE('',(#1726));
#1726 = FILL_AREA_STYLE_COLOUR('',#1717);
#1727 = SURFACE_STYLE_RENDERING_WITH_PROPERTIES(.NORMAL_SHADING.,#1717,(
    #1728));
#1728 = SURFACE_STYLE_TRANSPARENT(1.);
#1729 = OVER_RIDING_STYLED_ITEM('overriding color',(#1730),#885,#1521);
#1730 = PRESENTATION_STYLE_ASSIGNMENT((#1731));
#1731 = SURFACE_STYLE_USAGE(.BOTH.,#1732);
#1732 = SURFACE_SIDE_STYLE('',(#1733,#1736));
#1733 = SURFACE_STYLE_FILL_AREA(#1734);
#1734 = FILL_AREA_STYLE('',(#1735));
#1735 = FILL_AREA_STYLE_COLOUR('',#1717);
#1736 = SURFACE_STYLE_RENDERING_WITH_PROPERTIES(.NORMAL_SHADING.,#1717,(
    #1737));
#1737 = SURFACE_STYLE_TRANSPARENT(1.);
#1738 = OVER_RIDING_STYLED_ITEM('overriding color',(#1739),#962,#1521);
#1739 = PRESENTATION_STYLE_ASSIGNMENT((#1740));
#1740 = SURFACE_STYLE_USAGE(.BOTH.,#1741);
#1741 = SURFACE_SIDE_STYLE('',(#1742,#1745));
#1742 = SURFACE_STYLE_FILL_AREA(#1743);
#1743 = FILL_AREA_STYLE('',(#1744));
#1744 = FILL_AREA_STYLE_COLOUR('',#1528);
#1745 = SURFACE_STYLE_RENDERING_WITH_PROPERTIES(.NORMAL_SHADING.,#1528,(
    #1746));
#1746 = SURFACE_STYLE_TRANSPARENT(1.);
#1747 = OVER_RIDING_STYLED_ITEM('overriding color',(#1748),#1001,#1521);
#1748 = PRESENTATION_STYLE_ASSIGNMENT((#1749));
#1749 = SURFACE_STYLE_USAGE(.BOTH.,#1750);
#1750 = SURFACE_SIDE_STYLE('',(#1751,#1754));
#1751 = SURFACE_STYLE_FILL_AREA(#1752);
#1752 = FILL_AREA_STYLE('',(#1753));
#1753 = FILL_AREA_STYLE_COLOUR('',#1528);
#1754 = SURFACE_STYLE_RENDERING_WITH_PROPERTIES(.NORMAL_SHADING.,#1528,(
    #1755));
#1755 = SURFACE_STYLE_TRANSPARENT(1.);
#1756 = OVER_RIDING_STYLED_ITEM('overriding color',(#1757),#1025,#1521);
#1757 = PRESENTATION_STYLE_ASSIGNMENT((#1758));
#1758 = SURFACE_STYLE_USAGE(.BOTH.,#1759);
#1759 = SURFACE_SIDE_STYLE('',(#1760,#1763));
#1760 = SURFACE_STYLE_FILL_AREA(#1761);
#1761 = FILL_AREA_STYLE('',(#1762));
#1762 = FILL_AREA_STYLE_COLOUR('',#1528);
#1763 = SURFACE_STYLE_RENDERING_WITH_PROPERTIES(.NORMAL_SHADING.,#1528,(
    #1764));
#1764 = SURFACE_STYLE_TRANSPARENT(1.);
#1765 = OVER_RIDING_STYLED_ITEM('overriding color',(#1766),#1065,#1521);
#1766 = PRESENTATION_STYLE_ASSIGNMENT((#1767));
#1767 = SURFACE_STYLE_USAGE(.BOTH.,#1768);
#1768 = SURFACE_SIDE_STYLE('',(#1769,#1772));
#1769 = SURFACE_STYLE_FILL_AREA(#1770);
#1770 = FILL_AREA_STYLE('',(#1771));
#1771 = FILL_AREA_STYLE_COLOUR('',#1528);
#1772 = SURFACE_STYLE_RENDERING_WITH_PROPERTIES(.NORMAL_SHADING.,#1528,(
    #1773));
#1773 = SURFACE_STYLE_TRANSPARENT(1.);
#1774 = OVER_RIDING_STYLED_ITEM('overriding color',(#1775),#1082,#1521);
#1775 = PRESENTATION_STYLE_ASSIGNMENT((#1776));
#1776 = SURFACE_STYLE_USAGE(.BOTH.,#1777);
#1777 = SURFACE_SIDE_STYLE('',(#1778,#1781));
#1778 = SURFACE_STYLE_FILL_AREA(#1779);
#1779 = FILL_AREA_STYLE('',(#1780));
#1780 = FILL_AREA_STYLE_COLOUR('',#1528);
#1781 = SURFACE_STYLE_RENDERING_WITH_PROPERTIES(.NORMAL_SHADING.,#1528,(
    #1782));
#1782 = SURFACE_STYLE_TRANSPARENT(1.);
#1783 = OVER_RIDING_STYLED_ITEM('overriding color',(#1784),#1129,#1521);
#1784 = PRESENTATION_STYLE_ASSIGNMENT((#1785));
#1785 = SURFACE_STYLE_USAGE(.BOTH.,#1786);
#1786 = SURFACE_SIDE_STYLE('',(#1787,#1790));
#1787 = SURFACE_STYLE_FILL_AREA(#1788);
#1788 = FILL_AREA_STYLE('',(#1789));
#1789 = FILL_AREA_STYLE_COLOUR('',#1528);
#1790 = SURFACE_STYLE_RENDERING_WITH_PROPERTIES(.NORMAL_SHADING.,#1528,(
    #1791));
#1791 = SURFACE_STYLE_TRANSPARENT(1.);
#1792 = OVER_RIDING_STYLED_ITEM('overriding color',(#1793),#1153,#1521);
#1793 = PRESENTATION_STYLE_ASSIGNMENT((#1794));
#1794 = SURFACE_STYLE_USAGE(.BOTH.,#1795);
#1795 = SURFACE_SIDE_STYLE('',(#1796,#1799));
#1796 = SURFACE_STYLE_FILL_AREA(#1797);
#1797 = FILL_AREA_STYLE('',(#1798));
#1798 = FILL_AREA_STYLE_COLOUR('',#1528);
#1799 = SURFACE_STYLE_RENDERING_WITH_PROPERTIES(.NORMAL_SHADING.,#1528,(
    #1800));
#1800 = SURFACE_STYLE_TRANSPARENT(1.);
#1801 = OVER_RIDING_STYLED_ITEM('overriding color',(#1802),#1185,#1521);
#1802 = PRESENTATION_STYLE_ASSIGNMENT((#1803));
#1803 = SURFACE_STYLE_USAGE(.BOTH.,#1804);
#1804 = SURFACE_SIDE_STYLE('',(#1805,#1808));
#1805 = SURFACE_STYLE_FILL_AREA(#1806);
#1806 = FILL_AREA_STYLE('',(#1807));
#1807 = FILL_AREA_STYLE_COLOUR('',#1528);
#1808 = SURFACE_STYLE_RENDERING_WITH_PROPERTIES(.NORMAL_SHADING.,#1528,(
    #1809));
#1809 = SURFACE_STYLE_TRANSPARENT(1.);
#1810 = OVER_RIDING_STYLED_ITEM('overriding color',(#1811),#1202,#1521);
#1811 = PRESENTATION_STYLE_ASSIGNMENT((#1812));
#1812 = SURFACE_STYLE_USAGE(.BOTH.,#1813);
#1813 = SURFACE_SIDE_STYLE('',(#1814,#1817));
#1814 = SURFACE_STYLE_FILL_AREA(#1815);
#1815 = FILL_AREA_STYLE('',(#1816));
#1816 = FILL_AREA_STYLE_COLOUR('',#1528);
#1817 = SURFACE_STYLE_RENDERING_WITH_PROPERTIES(.NORMAL_SHADING.,#1528,(
    #1818));
#1818 = SURFACE_STYLE_TRANSPARENT(1.);
#1819 = OVER_RIDING_STYLED_ITEM('overriding color',(#1820),#1220,#1521);
#1820 = PRESENTATION_STYLE_ASSIGNMENT((#1821));
#1821 = SURFACE_STYLE_USAGE(.BOTH.,#1822);
#1822 = SURFACE_SIDE_STYLE('',(#1823,#1826));
#1823 = SURFACE_STYLE_FILL_AREA(#1824);
#1824 = FILL_AREA_STYLE('',(#1825));
#1825 = FILL_AREA_STYLE_COLOUR('',#1528);
#1826 = SURFACE_STYLE_RENDERING_WITH_PROPERTIES(.NORMAL_SHADING.,#1528,(
    #1827));
#1827 = SURFACE_STYLE_TRANSPARENT(1.);
#1828 = OVER_RIDING_STYLED_ITEM('overriding color',(#1829),#1238,#1521);
#1829 = PRESENTATION_STYLE_ASSIGNMENT((#1830));
#1830 = SURFACE_STYLE_USAGE(.BOTH.,#1831);
#1831 = SURFACE_SIDE_STYLE('',(#1832,#1835));
#1832 = SURFACE_STYLE_FILL_AREA(#1833);
#1833 = FILL_AREA_STYLE('',(#1834));
#1834 = FILL_AREA_STYLE_COLOUR('',#1528);
#1835 = SURFACE_STYLE_RENDERING_WITH_PROPERTIES(.NORMAL_SHADING.,#1528,(
    #1836));
#1836 = SURFACE_STYLE_TRANSPARENT(1.);
#1837 = OVER_RIDING_STYLED_ITEM('overriding color',(#1838),#1262,#1521);
#1838 = PRESENTATION_STYLE_ASSIGNMENT((#1839));
#1839 = SURFACE_STYLE_USAGE(.BOTH.,#1840);
#1840 = SURFACE_SIDE_STYLE('',(#1841,#1844));
#1841 = SURFACE_STYLE_FILL_AREA(#1842);
#1842 = FILL_AREA_STYLE('',(#1843));
#1843 = FILL_AREA_STYLE_COLOUR('',#1528);
#1844 = SURFACE_STYLE_RENDERING_WITH_PROPERTIES(.NORMAL_SHADING.,#1528,(
    #1845));
#1845 = SURFACE_STYLE_TRANSPARENT(1.);
#1846 = OVER_RIDING_STYLED_ITEM('overriding color',(#1847),#1280,#1521);
#1847 = PRESENTATION_STYLE_ASSIGNMENT((#1848));
#1848 = SURFACE_STYLE_USAGE(.BOTH.,#1849);
#1849 = SURFACE_SIDE_STYLE('',(#1850,#1853));
#1850 = SURFACE_STYLE_FILL_AREA(#1851);
#1851 = FILL_AREA_STYLE('',(#1852));
#1852 = FILL_AREA_STYLE_COLOUR('',#1528);
#1853 = SURFACE_STYLE_RENDERING_WITH_PROPERTIES(.NORMAL_SHADING.,#1528,(
    #1854));
#1854 = SURFACE_STYLE_TRANSPARENT(1.);
#1855 = OVER_RIDING_STYLED_ITEM('overriding color',(#1856),#1298,#1521);
#1856 = PRESENTATION_STYLE_ASSIGNMENT((#1857));
#1857 = SURFACE_STYLE_USAGE(.BOTH.,#1858);
#1858 = SURFACE_SIDE_STYLE('',(#1859,#1862));
#1859 = SURFACE_STYLE_FILL_AREA(#1860);
#1860 = FILL_AREA_STYLE('',(#1861));
#1861 = FILL_AREA_STYLE_COLOUR('',#1528);
#1862 = SURFACE_STYLE_RENDERING_WITH_PROPERTIES(.NORMAL_SHADING.,#1528,(
    #1863));
#1863 = SURFACE_STYLE_TRANSPARENT(1.);
#1864 = OVER_RIDING_STYLED_ITEM('overriding color',(#1865),#1409,#1521);
#1865 = PRESENTATION_STYLE_ASSIGNMENT((#1866));
#1866 = SURFACE_STYLE_USAGE(.BOTH.,#1867);
#1867 = SURFACE_SIDE_STYLE('',(#1868,#1871));
#1868 = SURFACE_STYLE_FILL_AREA(#1869);
#1869 = FILL_AREA_STYLE('',(#1870));
#1870 = FILL_AREA_STYLE_COLOUR('',#1528);
#1871 = SURFACE_STYLE_RENDERING_WITH_PROPERTIES(.NORMAL_SHADING.,#1528,(
    #1872));
#1872 = SURFACE_STYLE_TRANSPARENT(1.);
#1873 = OVER_RIDING_STYLED_ITEM('overriding color',(#1874),#1434,#1521);
#1874 = PRESENTATION_STYLE_ASSIGNMENT((#1875));
#1875 = SURFACE_STYLE_USAGE(.BOTH.,#1876);
#1876 = SURFACE_SIDE_STYLE('',(#1877,#1880));
#1877 = SURFACE_STYLE_FILL_AREA(#1878);
#1878 = FILL_AREA_STYLE('',(#1879));
#1879 = FILL_AREA_STYLE_COLOUR('',#1528);
#1880 = SURFACE_STYLE_RENDERING_WITH_PROPERTIES(.NORMAL_SHADING.,#1528,(
    #1881));
#1881 = SURFACE_STYLE_TRANSPARENT(1.);
#1882 = OVER_RIDING_STYLED_ITEM('overriding color',(#1883),#1460,#1521);
#1883 = PRESENTATION_STYLE_ASSIGNMENT((#1884));
#1884 = SURFACE_STYLE_USAGE(.BOTH.,#1885);
#1885 = SURFACE_SIDE_STYLE('',(#1886,#1889));
#1886 = SURFACE_STYLE_FILL_AREA(#1887);
#1887 = FILL_AREA_STYLE('',(#1888));
#1888 = FILL_AREA_STYLE_COLOUR('',#1528);
#1889 = SURFACE_STYLE_RENDERING_WITH_PROPERTIES(.NORMAL_SHADING.,#1528,(
    #1890));
#1890 = SURFACE_STYLE_TRANSPARENT(1.);
#1891 = OVER_RIDING_STYLED_ITEM('overriding color',(#1892),#1480,#1521);
#1892 = PRESENTATION_STYLE_ASSIGNMENT((#1893));
#1893 = SURFACE_STYLE_USAGE(.BOTH.,#1894);
#1894 = SURFACE_SIDE_STYLE('',(#1895,#1898));
#1895 = SURFACE_STYLE_FILL_AREA(#1896);
#1896 = FILL_AREA_STYLE('',(#1897));
#1897 = FILL_AREA_STYLE_COLOUR('',#1528);
#1898 = SURFACE_STYLE_RENDERING_WITH_PROPERTIES(.NORMAL_SHADING.,#1528,(
    #1899));
#1899 = SURFACE_STYLE_TRANSPARENT(1.);
#1900 = OVER_RIDING_STYLED_ITEM('overriding color',(#1901),#1505,#1521);
#1901 = PRESENTATION_STYLE_ASSIGNMENT((#1902));
#1902 = SURFACE_STYLE_USAGE(.BOTH.,#1903);
#1903 = SURFACE_SIDE_STYLE('',(#1904,#1907));
#1904 = SURFACE_STYLE_FILL_AREA(#1905);
#1905 = FILL_AREA_STYLE('',(#1906));
#1906 = FILL_AREA_STYLE_COLOUR('',#1528);
#1907 = SURFACE_STYLE_RENDERING_WITH_PROPERTIES(.NORMAL_SHADING.,#1528,(
    #1908));
#1908 = SURFACE_STYLE_TRANSPARENT(1.);
ENDSEC;
END-ISO-10303-21;
